<?xml version="1.0" standalone="no"?>
<!DOCTYPE svg PUBLIC "-//W3C//DTD SVG 1.1//EN" "http://www.w3.org/Graphics/SVG/1.1/DTD/svg11.dtd">
<svg xmlns="http://www.w3.org/2000/svg">
<defs >
<font id="B612Mono" horiz-adv-x="1408" ><font-face
    font-family="B612 Mono"
    units-per-em="2000"
    panose-1="2 11 6 9 5 0 0 2 0 4"
    ascent="1930"
    descent="-500"
    alphabetic="0" />
<glyph unicode=" " glyph-name="space" horiz-adv-x="1300" />
<glyph unicode="!" glyph-name="exclam" horiz-adv-x="1300" d="M652 1500V444L352 409V1500H652ZM338 149Q338 183 351 212T386 264T437 300T501 313Q535 313 564 300T616 265T651 213T664 149Q664 116 652 86T617 33T566 -3T502 -17Q468 -17 438 -4T386 32T351
85T338 149Z" />
<glyph unicode="&quot;" glyph-name="quotedbl" horiz-adv-x="1300" d="M861 1500V1367Q861 1349 861 1325T859 1273T856 1219T851 1168L828 1013H648L625 1168Q622 1191 620 1218T617 1273T616 1324T615 1367V1500H861ZM561 1500V1367Q561 1349 561 1325T559
1273T556 1219T551 1168L528 1013H348L325 1168Q322 1191 320 1218T317 1273T316 1324T315 1367V1500H561Z" />
<glyph unicode="#" glyph-name="numbersign" horiz-adv-x="1300" d="M1051 885L1041 809Q1037 773 1032 738T1023 666T1013 587H1266L1239 373H989Q984 329 978 281T966 185T953 89T942 0L636 -17L686 373H520Q515 329 509 281T496 185T483 89T471 0L166 -17L219
373H42V587H244L281 885H38L65 1100H307Q312 1135 315 1167T324 1235V1500L661 1520L608 1100H775Q780 1144 786 1196T800 1301T814 1406T826 1500L1134 1520L1077 1100H1263V885H1051ZM748 885H584L574 809Q570 773 566 738T557 666T547 587H711L748 885Z" />
<glyph unicode="$" glyph-name="dollar" horiz-adv-x="1300" d="M500 -14Q394 -6 303 27T117 121L255 348Q277 333 305 316T366 283T432 254T500 233V712Q431 745 365 781T246 862T162 964T130 1097Q130 1179 159 1245T239 1363T357 1448T500 1500V1681L800 1719V1499Q875
1482 946 1450T1090 1369L940 1178Q898 1202 864 1220T800 1252V866Q865 835 927 797T1037 710T1115 596T1145 448Q1145 363 1118 294T1042 170T930 78T790 16V-190H500V-14ZM859 430Q859 484 826 524T742 596V249Q766 258 787 272T825 308T850 360T859 430ZM436
1125Q436 1096 445 1073T471 1032T510 999T558 972V1268Q533 1260 511 1249T473 1220T446 1179T436 1125Z" />
<glyph unicode="%" glyph-name="percent" horiz-adv-x="1300" d="M370 746Q284 746 224 774T126 853T71 972T54 1121Q54 1200 70 1267T123 1384T220 1461T370 1489Q455 1489 515 1461T612 1384T667 1267Q679 1220 683 1168L821 1473H1125L779 706Q835 727 913
727Q998 727 1058 700T1156 623T1211 506T1228 359Q1228 279 1212 210T1159 91T1062 13T913 -16Q827 -16 767 12T670 91T614 210Q603 255 599 306L461 0H157L503 768Q447 746 370 746ZM423 1165Q423 1190 422 1213T415 1253T398 1280T367 1291Q350 1291 340 1282T326
1258T320 1222T319 1178V1084Q319 1058 320 1035T327 995T344 967T375 956Q391 956 401 965T415 989T421 1025T423 1068V1165ZM966 404Q966 429 965 451T958 491T941 519T910 529Q893 529 884 520T870 496T864 460T862 417V323Q862 297 863 274T871 233T888 205T920
194Q936 194 945 203T958 227T964 263T966 306V404Z" />
<glyph unicode="&amp;" glyph-name="ampersand" horiz-adv-x="1300" d="M1200 740Q1200 642 1184 560T1141 410T1078 290T1000 200H1077L1241 -17H862L786 100L750 11Q727 5 704 0T655 -9T600 -15T534 -17Q421 -17 330 21T175 124T76 274T41 454Q41 532 63 597T120
713T198 803T285 867Q268 896 251 930T221 999T199 1069T190 1134Q190 1208 212 1274T284 1391T410 1470T598 1500Q675 1500 733 1483T838 1436T920 1368T991 1286L850 1100Q822 1137 797 1165T746 1212T689 1240T620 1250Q584 1250 562 1239T528 1210T511 1173T506
1133Q506 1121 507 1109T513 1084Q518 1064 531 1037T571 966T639 854T742 688Q761 657 773 638T798 598T827 552T872 480Q886 498 894 527Q901 554 900 621V720L1200 740ZM400 694V596Q366 543 366 463Q366 405 383 362T428 291T490 248T557 233Q599 233 625 243T672
269L400 694Z" />
<glyph unicode="&apos;" glyph-name="quotesingle" horiz-adv-x="1300" d="M230 1500H500V1367Q500 1331 493 1299T470 1232T426 1158T359 1068H220Q222 1149 226 1225T230 1367V1500Z" />
<glyph unicode="(" glyph-name="parenleft" horiz-adv-x="1300" d="M379 1158Q379 1251 389 1331T434 1472T537 1566T719 1600Q744 1600 772 1597T829 1586T884 1569T931 1545L841 1431Q823 1431 799 1426T752 1401T715 1339T700 1227V-46Q700 -120 715 -160T752
-219T795 -241T833 -245L931 -365Q910 -378 884 -388T830 -406T773 -416T719 -420Q605 -420 538 -384T435 -284T389 -138T379 38V1158Z" />
<glyph unicode=")" glyph-name="parenright" horiz-adv-x="1300" d="M1020 38Q1020 -55 1010 -138T965 -284T862 -383T680 -420Q654 -420 626 -417T570 -406T515 -389T468 -365L566 -245Q581 -245 603 -242T647 -219T683 -160T699 -46V1227Q699 1298 684 1339T647
1400T601 1426T558 1431L468 1545Q489 1558 515 1568T569 1586T626 1596T680 1600Q794 1600 861 1566T964 1472T1010 1332T1020 1158V38Z" />
<glyph unicode="*" glyph-name="asterisk" horiz-adv-x="1300" d="M918 926L1010 805L842 654L730 800L675 990L625 800L524 656L325 781L447 950L608 1041H398L247 1090L291 1309L476 1259L635 1120L568 1315V1446L797 1470V1309L720 1117L867 1247L1011 1294L1105
1083L967 1037H744L918 926Z" />
<glyph unicode="+" glyph-name="plus" horiz-adv-x="1300" d="M179 700H539V1117H759V700H1119V500H759V100H539V500H179V700Z" />
<glyph unicode="," glyph-name="comma" horiz-adv-x="1300" d="M122 156Q122 191 136 222T174 277T231 315T300 329Q334 329 366 317T423 280T463 219T478 136Q478 73 470 13T438 -108T368 -232T247 -365L185 -337Q199 -311 211 -284T234 -228Q252 -180 267 -126T282
-17Q252 -16 223 -5T172 29T136 82T122 156Z" />
<glyph unicode="-" glyph-name="hyphen" horiz-adv-x="1300" d="M335 624H962V400H335V624Z" />
<glyph unicode="." glyph-name="period" horiz-adv-x="1300" d="M103 183Q103 224 118 260T161 323T223 365T300 381Q341 381 377 366T440 323T482 260T498 183Q498 142 483 106T441 42T378 -1T302 -17Q261 -17 225 -1T161 42T119 105T103 183Z" />
<glyph unicode="/" glyph-name="slash" horiz-adv-x="1300" d="M453 -100H101L810 1600H1153L453 -100Z" />
<glyph unicode="0" glyph-name="zero" horiz-adv-x="1300" d="M628 -16Q535 -16 457 16T317 105T208 236T130 396T84 572T68 750Q68 840 81 931T122 1108T195 1268T302 1397T445 1484T628 1516Q721 1516 799 1484T939 1395T1048 1264T1126 1104T1172 928T1188
750Q1188 660 1175 569T1133 392T1061 232T954 103T810 16T628 -16ZM396 791Q396 740 400 678T415 554T444 432T488 327T551 254T635 226Q677 226 710 246T768 302T810 385T839 487T855 597T860 709Q860 760 856 822T841 946T812 1068T768 1172T705 1245T620 1273Q578
1273 545 1253T487 1197T445 1114T417 1013T401 902T396 791Z" />
<glyph unicode="1" glyph-name="one" horiz-adv-x="1300" d="M545 880L619 1243L392 972L308 898L153 1083L633 1520L876 1500V200H1119V0H302V200H545V880Z" />
<glyph unicode="2" glyph-name="two" horiz-adv-x="1300" d="M112 0V190Q159 264 220 345T347 505T474 654T583 775Q637 833 675 873T736 947T769 1015T780 1097Q780 1134 768 1170T732 1236T676 1282T603 1300Q521 1300 459 1245T349 1096L116 1183Q145 1259
190 1321T299 1426T441 1493T618 1517Q732 1517 821 1480T971 1381T1065 1243T1097 1086Q1097 1016 1075 957T1016 844T932 735T835 621Q785 561 732 499T630 381T542 278T480 200H1122V0H112Z" />
<glyph unicode="3" glyph-name="three" horiz-adv-x="1300" d="M283 938Q312 959 353 989T440 1055T535 1130T628 1211T709 1294T771 1374L511 1300H180L201 1500H1043V1327Q1012 1248 955 1182T825 1052L669 969Q774 969 860 942T1008 863T1102 739T1136 573Q1136
474 1095 393T984 249T820 138T618 61T396 15T170 0V200Q288 204 400 231T600 304T741 416T795 563Q795 621 771 660T704 724T607 759T489 770Q474 770 445 769T385 767T326 763T283 760V938Z" />
<glyph unicode="4" glyph-name="four" horiz-adv-x="1300" d="M1179 300H1001V0H680V300H120V500L613 1520L894 1500L563 763L389 500H680V780L1001 800V500H1200L1179 300Z" />
<glyph unicode="5" glyph-name="five" horiz-adv-x="1300" d="M521 1046Q545 1052 573 1055T637 1059Q753 1059 844 1025T999 932T1096 795T1130 626Q1130 524 1089 438T978 282T813 160T613 72T393 18T172 0V226Q243 228 317 242T462 280T594 338T702 413T776
503T803 606Q803 647 789 686T750 755T689 803T611 822Q572 822 540 816T480 801T433 780T397 759H172V1500H1038V1300H521V1046Z" />
<glyph unicode="6" glyph-name="six" horiz-adv-x="1300" d="M1004 1280Q978 1294 948 1297T893 1300Q824 1300 751 1267T612 1169T499 1012T432 800L597 945Q624 950 649 953T698 956Q795 956 885 932T1046 855T1158 721T1200 525Q1200 414 1160 316T1048 143T873
26T648 -17Q540 -17 458 15T314 99T210 219T143 358T106 500T95 627Q95 745 120 857T194 1067T313 1249T473 1391T671 1484T902 1517Q920 1517 953 1515T1038 1498L1004 1280ZM684 756Q648 756 612 741T542 703T480 653T432 601Q432 575 432 554T434 513T439 474T449
434Q461 387 480 345T525 270T582 219T651 200Q705 200 745 228T811 302T850 404T863 516Q863 566 850 610T812 686T755 737T684 756Z" />
<glyph unicode="7" glyph-name="seven" horiz-adv-x="1300" d="M140 1500H1147V1339Q1147 1313 1133 1275T1094 1189T1038 1088T969 976Q927 906 881 827T796 666T727 503T688 346Q684 310 682 266T678 176T677 84T677 0H340Q340 32 340 86T343 200T350 318T364
418Q383 508 418 598T495 774T584 939T672 1086Q707 1143 735 1191T776 1272H140V1500Z" />
<glyph unicode="8" glyph-name="eight" horiz-adv-x="1300" d="M616 1517Q719 1517 806 1491T958 1415T1058 1294T1094 1134Q1094 1083 1074 1040T1023 961T951 896T870 844Q936 812 994 770T1095 675T1162 560T1187 427Q1187 311 1139 228T1011 90T830 9T622
-17Q518 -17 421 12T248 100T128 243T82 441Q82 512 103 573T163 686T254 777T370 848Q324 875 285 905T217 970T172 1042T155 1124Q155 1226 199 1300T310 1423T459 1494T616 1517ZM862 422Q862 476 839 520T780 599T698 662T607 711Q564 690 528 663T464 599T422
519T406 421Q406 373 425 332T475 262T545 217T623 200Q668 200 711 215T787 258T841 328T862 422ZM475 1156Q475 1122 489 1094T526 1041T580 998T643 964Q670 979 694 998T735 1041T763 1092T774 1152Q774 1190 760 1218T724 1264T679 1291T634 1300Q606 1300
578 1289T527 1259T490 1213T475 1156Z" />
<glyph unicode="9" glyph-name="nine" horiz-adv-x="1300" d="M318 199Q387 201 453 222T580 278T692 361T781 463T840 578T863 700L685 548Q669 546 653 545T619 544Q509 544 415 577T250 673T140 822T100 1017Q100 1128 138 1220T246 1378T417 1480T641 1517Q751
1517 835 1486T980 1404T1083 1285T1149 1147T1184 1004T1195 873Q1195 696 1139 541T976 267T714 74T361 -17L318 199ZM628 761Q662 761 698 777T766 819T824 878T867 945Q864 1008 848 1071T803 1186T736 1268T648 1300Q601 1300 562 1279T493 1221T447 1137T430
1034Q430 980 443 931T482 844T544 784T628 761Z" />
<glyph unicode=":" glyph-name="colon" horiz-adv-x="1300" d="M103 183Q103 224 118 260T161 323T223 365T300 381Q341 381 377 366T440 323T482 260T498 183Q498 142 483 106T441 42T378 -1T302 -17Q261 -17 225 -1T161 42T119 105T103 183ZM103 700Q103 741
118 777T161 840T223 882T300 898Q341 898 377 883T440 840T482 777T498 700Q498 659 483 623T441 559T378 516T302 500Q261 500 225 516T161 559T119 622T103 700Z" />
<glyph unicode=";" glyph-name="semicolon" horiz-adv-x="1300" d="M122 156Q122 191 136 222T174 277T231 315T300 329Q334 329 366 317T423 280T463 219T478 136Q478 73 470 13T438 -108T368 -232T247 -365L185 -337Q199 -311 211 -284T234 -228Q252 -180 267
-126T282 -17Q252 -16 223 -5T172 29T136 82T122 156ZM103 700Q103 741 118 777T161 840T223 882T300 898Q341 898 377 883T440 840T482 777T498 700Q498 659 483 623T441 559T378 516T302 500Q261 500 225 516T161 559T119 622T103 700Z" />
<glyph unicode="&lt;" glyph-name="less" horiz-adv-x="1300" d="M1137 1277V1009L470 654L1137 302V34L130 545V770L1137 1277Z" />
<glyph unicode="=" glyph-name="equal" horiz-adv-x="1300" d="M200 800H1000V581H200V800ZM200 400H1000V181H200V400Z" />
<glyph unicode="&gt;" glyph-name="greater" horiz-adv-x="1300" d="M1137 770V545L130 34V302L797 654L130 1009V1278L1137 770Z" />
<glyph unicode="?" glyph-name="question" horiz-adv-x="1300" d="M1111 1124Q1111 1064 1091 1015T1039 923T965 842T880 765Q851 740 822 709T769 637T731 547T716 434L405 399Q406 486 418 562T460 704T536 830T654 942Q676 961 697 981T734 1023T760 1072T770
1132Q770 1172 756 1200T717 1247T660 1274T594 1283Q568 1283 530 1275T450 1247T366 1195T289 1117L107 1268Q164 1344 228 1392T360 1468T493 1506T618 1517Q713 1517 802 1494T959 1422T1069 1299T1111 1124ZM409 149Q409 183 422 212T457 264T508 300T572
313Q606 313 635 300T687 265T722 213T735 149Q735 116 723 86T688 33T637 -3T573 -17Q539 -17 509 -4T457 32T422 85T409 149Z" />
<glyph unicode="@" glyph-name="at" horiz-adv-x="1300" d="M690 500H660Q643 500 627 492T598 465T576 414T568 333Q568 293 573 268T588 227T609 206T635 200Q655 200 666 212T683 241Q688 257 690 283V500ZM275 500Q275 421 282 341T307 185T354 45T429 -68T536
-144T681 -172Q725 -172 762 -166T828 -152T875 -135T901 -120V-346Q882 -357 826 -369T681 -382Q555 -382 458 -348T290 -253T171 -107T94 80T53 300T40 541Q40 668 61 786T122 1006T218 1191T346 1335T502 1427T682 1460Q783 1460 865 1428T1011 1338T1121 1199T1198
1020T1243 809T1258 576Q1258 497 1254 421T1237 277T1202 153T1146 55T1063 -9T948 -32Q892 -32 851 -15T783 24T743 69T730 100L696 1L672 -8Q660 -12 642 -14T601 -17Q541 -17 501 14T436 95T400 204T387 321T389 427T401 500Q413 537 432 573T483 637T560 682T670
700H690V800Q690 825 676 837T640 852T591 851T537 840T487 825T451 810V986Q472 1000 509 1013Q538 1023 583 1031T691 1040Q733 1040 771 1032T838 1001T884 940T901 844V283Q902 259 907 241Q912 225 922 213T951 200Q976 200 991 232T1014 310T1024 408T1027
500V534Q1027 713 1001 845T929 1066T820 1197T681 1240Q606 1240 533 1197T403 1066T311 846T275 534V500Z" />
<glyph unicode="A" glyph-name="A" horiz-adv-x="1300" d="M50 0L405 1284L441 1500L819 1520L1250 0H916L812 427H470L369 0H50ZM643 1331L604 990L529 646H753L681 990L643 1331Z" />
<glyph unicode="B" glyph-name="B" horiz-adv-x="1300" d="M472 1130V900H501Q548 900 595 913T681 953T743 1024T767 1128Q767 1183 744 1218T685 1272T606 1298T521 1305Q507 1305 489 1304T456 1301L472 1130ZM121 0V1262L89 1489Q132 1495 183 1500T284 1509T381
1515T460 1517Q580 1517 692 1501T890 1442T1029 1329T1081 1148Q1081 1094 1066 1046T1023 957T956 883T868 826Q932 804 988 773T1087 699T1153 601T1177 475Q1177 387 1152 318T1085 196T984 106T861 45T725 11T586 0H121ZM472 228H529Q604 228 662 239T761
279T823 352T845 465Q845 529 824 573T766 643T678 681T567 693H472V228Z" />
<glyph unicode="C" glyph-name="C" horiz-adv-x="1300" d="M1220 133Q1118 52 1007 18T764 -17Q609 -17 486 45T277 215T146 465T100 769Q100 870 117 964T169 1142T258 1294T386 1412T556 1489T768 1517Q898 1517 1015 1473T1220 1344L1072 1160Q1039 1182 1003
1202T929 1237T855 1261T784 1270Q689 1270 625 1231T522 1125T467 966T450 772Q450 711 458 648T484 524T529 411T594 319T680 256T788 233Q822 233 855 238T924 256T1004 289T1101 340L1220 133Z" />
<glyph unicode="D" glyph-name="D" horiz-adv-x="1300" d="M66 1500Q115 1505 170 1508T278 1513T379 1516T460 1517Q628 1517 770 1477T1017 1350T1180 1130T1239 807Q1239 662 1210 546T1129 340T1003 186T843 80T656 20T452 0H100V1262L66 1500ZM451 1121V250Q556
250 629 275T751 343T827 441T868 554T885 671T888 778Q888 890 871 983T805 1143T672 1246T452 1283Q449 1283 446 1283T438 1282H430L451 1121Z" />
<glyph unicode="E" glyph-name="E" horiz-adv-x="1300" d="M1137 228L1110 0H150L167 231V1263L132 1500H1100V1272H503L518 1134V916H1034V703H518V360L510 228H1137Z" />
<glyph unicode="F" glyph-name="F" horiz-adv-x="1300" d="M551 0H200V1263L165 1500H1167L1140 1272H536L551 1134V916H1064V703H551V0Z" />
<glyph unicode="G" glyph-name="G" horiz-adv-x="1300" d="M1251 221Q1206 171 1150 128T1026 52T879 2T708 -17Q553 -17 430 45T221 215T90 465T44 769Q44 870 62 964T117 1142T210 1294T343 1412T515 1489T730 1517Q860 1517 977 1473T1182 1344L1034 1170Q1001
1192 965 1212T892 1247T817 1271T745 1280Q650 1280 584 1240T475 1130T414 968T395 772Q395 711 403 647T429 521T474 405T539 310T625 245T733 221Q758 221 784 227T835 242T881 264T919 289V616L625 635V840H1251V221Z" />
<glyph unicode="H" glyph-name="H" horiz-adv-x="1300" d="M872 0V688H426V0H79V1263L48 1500L426 1520V916H872V1500L1218 1520V0H872Z" />
<glyph unicode="I" glyph-name="I" horiz-adv-x="1300" d="M183 1500H1061V1272H788V228H1089L1054 0H176V228H454V1272H148L183 1500Z" />
<glyph unicode="J" glyph-name="J" horiz-adv-x="1300" d="M338 1500H1110V446Q1110 261 994 121Q967 88 928 63T840 20T737 -7T623 -17Q526 -17 453 0T323 48T225 117T146 200L300 400Q315 382 339 356T398 305T481 262T592 244Q622 244 652 253T705 286T744
347T759 444V1132L779 1266H358L338 1500Z" />
<glyph unicode="K" glyph-name="K" horiz-adv-x="1300" d="M122 0V1263L89 1500L473 1520V1035L864 1500H1232L733 900L500 800L723 716L1253 0H873L473 540V0H122Z" />
<glyph unicode="L" glyph-name="L" horiz-adv-x="1300" d="M463 228H1153L1126 0H100L123 232V1263L89 1500L471 1520V360L463 228Z" />
<glyph unicode="M" glyph-name="M" horiz-adv-x="1300" d="M883 0V449L990 1200H980L843 700L755 475H544L459 700L320 1200H310L422 449V0H100V1263L69 1500L409 1520L600 1079L651 800L700 1082L870 1500L1206 1520V0H883Z" />
<glyph unicode="N" glyph-name="N" horiz-adv-x="1300" d="M884 0L400 950H390L452 649V0H129V1263L96 1500L422 1520L900 600H910L851 852V1500L1173 1520V0H884Z" />
<glyph unicode="O" glyph-name="O" horiz-adv-x="1300" d="M649 -17Q551 -17 469 10T320 88T203 209T118 364T67 547T50 750Q50 907 87 1047T198 1291T385 1456T649 1517Q796 1517 907 1456T1094 1291T1208 1047T1247 750Q1247 645 1231 548T1181 365T1099 209T983
89T833 11T649 -17ZM897 721Q897 783 894 848T881 974T854 1090T808 1186T739 1250T643 1274Q591 1274 553 1253T488 1195T444 1110T417 1007T404 895T400 783Q400 720 403 655T417 527T444 411T490 315T558 250T654 226Q706 226 744 247T809 306T853 393T880 497T893
609T897 721Z" />
<glyph unicode="P" glyph-name="P" horiz-adv-x="1300" d="M494 0H162V1262Q158 1285 153 1314T143 1373T133 1432T124 1484Q169 1491 222 1497T328 1507T432 1514T520 1517Q701 1517 832 1485T1049 1394T1176 1256T1217 1081Q1217 950 1172 857T1036 705T810
616T494 583V0ZM494 1121V813Q598 817 672 832T793 878T862 958T884 1078Q884 1132 854 1172T778 1239T674 1279T563 1292H539Q529 1292 520 1292T501 1291T478 1289L494 1121Z" />
<glyph unicode="Q" glyph-name="Q" horiz-adv-x="1300" d="M1200 -180Q1104 -180 1033 -170T905 -129T799 -44T700 100V-11Q649 -17 602 -17Q465 -17 362 46T190 216T86 461T51 750Q51 907 88 1047T199 1291T386 1456T650 1517Q797 1517 908 1461T1095 1307T1209
1073T1248 780Q1248 688 1232 593T1184 410T1104 250T990 127Q1008 97 1033 81T1086 59T1143 51T1200 50V-180ZM393 783Q394 723 396 660T405 536T427 421T468 327T534 263T632 239Q620 261 601 298L563 374Q544 413 527 447T500 500L727 601L877 300V500Q887 548
896 609T906 751Q906 813 901 876T885 997T854 1107T805 1197T736 1257T644 1279Q595 1279 557 1258T491 1199T445 1113T415 1008T398 895T393 783Z" />
<glyph unicode="R" glyph-name="R" horiz-adv-x="1300" d="M449 600V0H124V1262L86 1488Q176 1498 275 1507T465 1517Q601 1517 716 1489T916 1405T1048 1268T1096 1081Q1096 992 1068 919T988 787T863 688T700 624L792 600L1200 0H835L449 600ZM449 1121V800H485Q553
800 605 821T694 879T748 964T767 1066Q767 1136 741 1181T675 1251T585 1286T489 1296Q473 1296 459 1296T433 1294L449 1121Z" />
<glyph unicode="S" glyph-name="S" horiz-adv-x="1300" d="M973 1178Q927 1205 890 1223T820 1253T760 1269T703 1274Q666 1274 630 1267T564 1243T517 1197T499 1125Q499 1084 519 1055T573 1002T649 960T736 921Q811 886 888 846T1027 750T1128 622T1168 448Q1168
332 1120 245T993 100T810 13T596 -17Q470 -17 364 18T150 121L288 348Q315 330 352 310T430 274T514 247T594 236Q638 236 681 245T757 277T811 337T832 430Q832 484 808 523T744 591T654 645T553 693Q481 727 413 765T292 851T206 959T173 1097Q173 1198 216
1276T330 1408T492 1489T679 1517Q797 1517 904 1481T1123 1369L973 1178Z" />
<glyph unicode="T" glyph-name="T" horiz-adv-x="1300" d="M469 0V1272H66V1500H1200V1272H802V0H469Z" />
<glyph unicode="U" glyph-name="U" horiz-adv-x="1300" d="M1160 1500V534Q1160 395 1123 292T1016 120T846 17T619 -17Q483 -17 389 26T237 148T152 337T126 582V1263L92 1500L458 1520V564Q458 483 464 419T491 311T549 244T650 221Q700 221 734 239T789 295T819
387T828 516V1500H1160Z" />
<glyph unicode="V" glyph-name="V" horiz-adv-x="1300" d="M1281 1500L868 200L840 -17L488 0L15 1500L337 1520L590 700L643 260L713 700L961 1500H1281Z" />
<glyph unicode="W" glyph-name="W" horiz-adv-x="1300" d="M305 1520L418 959L426 400H436L479 701L530 1000H756L813 701L865 400H875L873 957L975 1500H1266L998 0H745L684 300L644 650L603 300L541 0H291Q255 237 220 443T151 832T85 1181T21 1500L305 1520Z" />
<glyph unicode="X" glyph-name="X" horiz-adv-x="1300" d="M920 0L608 583L587 400L359 0H16L477 797Q430 878 75 1500L423 1520L717 995L748 1199L909 1500H1254L854 800L1283 0H920Z" />
<glyph unicode="Y" glyph-name="Y" horiz-adv-x="1300" d="M571 1143L678 773L736 1143L918 1500H1253L820 650V0H469V650L40 1500L379 1520L571 1143Z" />
<glyph unicode="Z" glyph-name="Z" horiz-adv-x="1300" d="M1156 228L1183 0H144L110 86L651 1187L789 1300L658 1272H200L173 1500H1087L1128 1442L581 314L447 200L580 228H1156Z" />
<glyph unicode="[" glyph-name="bracketleft" horiz-adv-x="1300" d="M281 1288L255 1520H955V1302H605L620 1154V-31L605 -179H955V-398H255L281 -166V1288Z" />
<glyph unicode="\" glyph-name="backslash" horiz-adv-x="1300" d="M93 1600H435L1141 -100H788L93 1600Z" />
<glyph unicode="]" glyph-name="bracketright" horiz-adv-x="1300" d="M1041 -166L1067 -398H367V-179H716L701 -31V1154L716 1302H367V1520H1067L1041 1288V-166Z" />
<glyph unicode="^" glyph-name="asciicircum" horiz-adv-x="1300" d="M1250 866H950L650 1200L350 868H50L534 1500L743 1520L1250 866Z" />
<glyph unicode="_" glyph-name="underscore" horiz-adv-x="1300" d="M100 -200H1200V-455H100V-200Z" />
<glyph unicode="`" glyph-name="grave" horiz-adv-x="1300" d="M900 1200H685L400 1520L737 1500L900 1200Z" />
<glyph unicode="a" glyph-name="a" horiz-adv-x="1300" d="M1135 0H795V100L711 5Q676 -6 642 -11T577 -17Q494 -17 410 7T259 79T149 197T106 358Q106 454 149 524T262 639T422 707T604 729Q661 729 708 726T795 715Q791 800 752 850T632 900Q588 900 544 895T458
881T382 861T319 838L225 1023Q271 1044 313 1061T403 1091T508 1110T642 1117Q770 1117 859 1086T1005 997T1086 859T1112 681V200L1135 0ZM795 500Q780 501 760 502T719 503T678 504T642 505Q604 505 567 498T500 474T453 429T435 359Q435 325 447 298T481 250T529
219T585 208Q642 208 694 233T795 300V500Z" />
<glyph unicode="b" glyph-name="b" horiz-adv-x="1300" d="M500 212Q529 207 562 204T625 200Q688 200 728 237T792 333T825 462T835 598Q835 680 823 737T792 831T746 883T691 900Q630 900 584 879T500 826V212ZM173 1398L151 1601L500 1632V974L597 1096Q626
1104 658 1110T719 1117Q810 1117 891 1083T1032 982T1127 817T1162 593Q1162 456 1121 344T1008 151T835 28T616 -16Q553 -16 487 -10T362 7T253 29T173 54V1398Z" />
<glyph unicode="c" glyph-name="c" horiz-adv-x="1300" d="M968 772Q920 829 862 855T727 881Q666 881 613 855T521 783T459 679T436 553Q436 484 459 426T523 325T615 260T727 236Q779 236 821 245T897 271T956 309T1000 353L1124 137Q1106 121 1071 95T982 44T857
1T694 -17Q561 -17 453 31T267 159T148 344T106 565Q106 669 146 768T263 945T450 1070T698 1117Q833 1117 942 1080T1130 957L968 772Z" />
<glyph unicode="d" glyph-name="d" horiz-adv-x="1300" d="M800 900H731Q665 900 616 869T536 785T489 662T473 515Q473 441 485 383T518 284T568 222T633 200Q669 200 696 210T743 237T777 275T800 316V900ZM800 0V162L675 -10Q667 -12 660 -13T644 -15T621 -16T586
-17Q494 -17 414 23T275 137T182 309T148 528Q148 647 189 751T306 933T489 1055T730 1100H800V1632L1126 1600V209L1148 0H800Z" />
<glyph unicode="e" glyph-name="e" horiz-adv-x="1300" d="M1148 158Q1108 121 1062 90T960 35T836 -2T686 -16Q542 -16 433 31T249 156T138 337T100 550Q100 621 117 690T167 822T247 939T356 1032T492 1093T653 1116Q773 1116 867 1081T1026 982T1125 829T1159
632Q1159 605 1156 561T1147 466H400Q402 412 430 364T501 279T598 222T706 200Q757 200 804 211T890 238T957 271T1000 300L1148 158ZM865 672Q865 718 852 759T812 831T747 881T657 900Q606 900 568 885T503 848T459 800T434 756L343 653L516 671L865 672Z" />
<glyph unicode="f" glyph-name="f" horiz-adv-x="1300" d="M100 1100H320V1207Q320 1295 357 1367T459 1491T610 1571T794 1600Q858 1600 913 1590T1016 1563T1101 1526T1170 1486L1037 1300Q1022 1310 1000 1323T949 1348T890 1368T824 1376Q795 1376 763 1365T704
1331T660 1275T642 1198V1100H1063L1036 876H647V0H320V876H100V1100Z" />
<glyph unicode="g" glyph-name="g" horiz-adv-x="1300" d="M828 16Q796 2 748 -7T641 -17Q574 -17 510 3T388 60T282 148T199 262T145 396T125 545Q125 662 164 766T276 948T452 1071T684 1117Q702 1117 714 1117T736 1114L827 958V1120L1153 1100V-41Q1153 -140
1115 -226T1007 -377T838 -479T614 -517Q549 -517 495 -507T393 -476T305 -427T225 -359L369 -192Q385 -206 411 -223T468 -256T535 -282T605 -293Q647 -293 687 -273T759 -216T809 -132T828 -27V16ZM827 820Q799 852 762 876T679 900Q619 900 576 864T506 774T465
655T452 534Q452 463 470 402T517 296T582 226T656 200Q715 200 755 225T827 287V820Z" />
<glyph unicode="h" glyph-name="h" horiz-adv-x="1300" d="M461 0H144V1339L122 1568L461 1600V1000L538 1100Q583 1110 634 1113T749 1116Q927 1116 1019 1014T1112 718V0H786V698Q786 750 774 787T744 847T702 881T656 892Q614 892 584 885T532 865T494 838T461 808V0Z" />
<glyph unicode="i" glyph-name="i" horiz-adv-x="1300" d="M455 1501H792V1240H455V1501ZM534 916L364 876H189L161 1100H791V423Q791 382 801 348T829 289T872 250T927 236Q993 236 1043 258T1145 330L1204 98Q1190 87 1169 68T1114 30T1029 -3T908 -17Q793 -17
710 19T572 116T491 259T464 432V826L534 916Z" />
<glyph unicode="j" glyph-name="j" horiz-adv-x="1300" d="M593 1501H930V1240H593V1501ZM668 916L498 876H323L295 1100H925V-68Q925 -159 899 -240T818 -383T680 -481T481 -517Q410 -517 360 -503T276 -471T220 -433T185 -402L244 -170Q296 -220 346 -242T462
-264Q492 -264 517 -250T560 -212T588 -153T598 -77V826L668 916Z" />
<glyph unicode="k" glyph-name="k" horiz-adv-x="1300" d="M187 0V1397L165 1600L493 1631V769L758 1100H1099L737 700L533 627L722 564L1200 0H852L493 458V0H187Z" />
<glyph unicode="l" glyph-name="l" horiz-adv-x="1300" d="M493 1382L323 1342H147L120 1566H740V388Q740 337 750 303T776 247T814 217T856 208Q884 208 907 216T951 238T987 267T1017 300L1125 107Q1114 98 1094 78T1041 36T958 -1T838 -17Q730 -17 652 17T523
109T448 245T423 410V1292L493 1382Z" />
<glyph unicode="m" glyph-name="m" horiz-adv-x="1300" d="M365 0H50V1100L365 1120V1000L442 1100Q452 1106 477 1111T522 1117Q571 1117 605 1114T666 1101T711 1077T750 1039Q769 1052 795 1065T851 1090T912 1109T975 1117Q1072 1117 1128 1090T1213 1014T1250
894T1258 736V0H943V727Q943 767 942 797T937 846T923 875T895 885Q878 885 863 878T835 859T814 832T803 798V778Q803 766 803 754T804 730V0H500V708Q500 793 492 839T452 885Q423 885 399 866T365 804V0Z" />
<glyph unicode="n" glyph-name="n" horiz-adv-x="1300" d="M461 0H144V1100L461 1120V1000L538 1100Q576 1110 619 1113T721 1117Q812 1117 885 1090T1008 1014T1086 894T1113 736V0H796V736Q796 777 784 806T751 855T705 883T651 892Q588 892 545 872T461 808V0Z" />
<glyph unicode="o" glyph-name="o" horiz-adv-x="1300" d="M627 -17Q507 -17 407 26T235 146T122 327T81 553Q81 674 120 778T230 958T403 1077T627 1117Q747 1121 846 1078T1015 958T1125 778T1164 553Q1164 431 1127 327T1019 147T850 27T627 -17ZM838 528Q838
596 827 662T789 780T722 865T623 897Q567 897 527 870T460 796T421 692T408 571Q408 502 421 436T461 319T530 235T631 203Q685 203 724 230T789 304T826 408T838 528Z" />
<glyph unicode="p" glyph-name="p" horiz-adv-x="1300" d="M476 200H554Q621 200 680 229T784 310T854 429T880 576Q880 657 863 718T817 819T748 880T663 900Q636 900 610 892T559 872T514 843T476 811V200ZM150 -500V1100L476 1120V944L600 1110Q621 1113 643
1115T690 1117Q783 1117 870 1078T1026 967T1136 792T1178 564Q1178 441 1130 338T995 159T792 42T537 0H476V-500H150Z" />
<glyph unicode="q" glyph-name="q" horiz-adv-x="1300" d="M819 891Q789 895 761 897T694 900Q631 900 584 866T504 777T455 657T438 526Q438 442 456 381T503 280T571 220T648 200Q684 200 710 205T755 221T789 246T819 278V891ZM819 136L702 -8Q654 -17 610
-17Q518 -17 430 20T272 128T160 299T117 526Q117 663 163 772T288 958T473 1076T698 1117Q762 1117 830 1108T959 1087T1070 1061T1145 1038V-500H819V136Z" />
<glyph unicode="r" glyph-name="r" horiz-adv-x="1300" d="M462 1000L539 1100Q593 1115 643 1116T741 1117Q822 1117 882 1108T985 1086T1057 1058T1102 1032L1152 735L872 700L823 876L783 882Q763 885 743 885Q646 885 577 850T462 750V0H145V1100L462 1120V1000Z" />
<glyph unicode="s" glyph-name="s" horiz-adv-x="1300" d="M985 802Q957 820 926 837T859 867T782 889T694 898Q651 898 606 894T523 880T462 851T438 804Q438 778 465 760T533 727T622 703T715 684Q766 673 814 662T892 640Q942 620 986 591T1064 526T1117 446T1137
355Q1137 288 1111 235T1039 140T934 69T808 20T672 -8T540 -17Q480 -17 421 -9T308 15T208 50T127 95L225 305Q294 263 371 236T542 208Q565 208 595 210T658 219T723 236T780 263T820 301T836 354Q836 381 812 400T751 434T670 457T586 475Q557 481 528 487T471
501T421 515T382 531H383Q317 562 274 596T205 667T169 743T158 822Q158 898 202 953T319 1045T488 1099T688 1117Q744 1117 800 1109T908 1087T1001 1056T1070 1022L985 802Z" />
<glyph unicode="t" glyph-name="t" horiz-adv-x="1300" d="M658 388Q658 337 660 303T671 247T693 217T731 208Q778 208 819 219T894 247T957 283L1007 316L1111 135Q1098 124 1066 99T979 48T849 3T672 -17Q564 -17 499 17T399 109T353 245T342 410V876H100V1100H342V1310L654
1420V1100H1113L1086 876H658V388Z" />
<glyph unicode="u" glyph-name="u" horiz-adv-x="1300" d="M816 1100L1133 1120V0H816V100L735 0Q679 -17 614 -17Q480 -17 390 21T246 122T168 268T145 438V1100L461 1120V438Q461 386 469 345T499 274T554 229T640 213Q673 213 701 223T751 249T790 283T816 318V1100Z" />
<glyph unicode="v" glyph-name="v" horiz-adv-x="1300" d="M583 700L657 300L729 700L860 1100L1173 1120L800 -17L484 0L133 1100L447 1120L583 700Z" />
<glyph unicode="w" glyph-name="w" horiz-adv-x="1300" d="M809 600L860 300H870L859 700L932 1100L1225 1120L1006 0H740L641 400L625 600L609 400L513 0H248L34 1100L322 1120L394 700L390 300H400L443 600L508 900H743L809 600Z" />
<glyph unicode="x" glyph-name="x" horiz-adv-x="1300" d="M698 272L632 474L564 272L396 0H57L468 585L112 1100L454 1120L595 900L657 700L717 900L856 1100L1212 1120L832 581L1240 0H879L698 272Z" />
<glyph unicode="y" glyph-name="y" horiz-adv-x="1300" d="M571 670L648 200L727 670L890 1100L1210 1120L802 8Q782 -47 759 -105T707 -217T646 -319T573 -402T486 -459T383 -480Q316 -480 251 -453T127 -374L250 -194Q273 -209 299 -221T352 -234Q395 -234 429
-185T501 -47L82 1100L408 1120L571 670Z" />
<glyph unicode="z" glyph-name="z" horiz-adv-x="1300" d="M715 200H1088L1115 0H212L179 85L579 757L790 925L539 900H265L238 1100H1034L1066 1017L671 339L464 175L715 200Z" />
<glyph unicode="{" glyph-name="braceleft" horiz-adv-x="1300" d="M1003 1260Q969 1280 926 1292T847 1305Q817 1303 799 1289T772 1248T760 1185T757 1099V864Q757 808 742 759T702 671T649 601T593 550Q620 530 649 500T702 430T741 342T757 238V-2Q757 -50
760 -88T772 -153T799 -194T847 -208Q882 -208 925 -196T1003 -163L1099 -348Q1066 -363 1036 -376T971 -399T897 -414T804 -420Q691 -420 616 -388T497 -300T434 -168T415 -2V238Q415 328 400 380T338 442L200 462V640L338 660Q384 671 399 723T415 864V1099Q415
1188 433 1264T497 1397T617 1485T805 1517Q857 1517 897 1512T971 1497T1035 1474T1099 1445L1003 1260Z" />
<glyph unicode="|" glyph-name="bar" horiz-adv-x="1300" d="M766 1520V-380H434V1500L766 1520Z" />
<glyph unicode="}" glyph-name="braceright" horiz-adv-x="1300" d="M201 1445Q234 1461 264 1474T329 1496T403 1511T496 1517Q609 1517 684 1485T803 1397T866 1265T885 1099V864Q885 776 900 724T962 660L1100 640V462L962 442Q916 432 901 380T885 238V-2Q885
-91 867 -167T804 -300T684 -388T496 -420Q444 -420 404 -415T329 -400T265 -377T201 -348L297 -163Q331 -183 374 -195T453 -208Q483 -208 501 -194T528 -153T540 -88T543 -2V238Q543 293 558 341T598 430T651 500T707 550Q680 570 651 600T598 670T559 759T543
864V1099Q543 1147 540 1184T528 1248T501 1288T453 1305Q418 1305 375 1293T297 1260L201 1445Z" />
<glyph unicode="~" glyph-name="asciitilde" horiz-adv-x="1300" d="M31 441Q37 508 63 578T139 705T264 798T444 835Q498 835 538 825T609 801T666 769T715 738T766 713T827 703Q896 703 938 741T991 838L1266 802Q1261 729 1239 657T1169 528T1047 436T862 400Q812
400 775 410T709 434T655 466T604 497T549 522T481 532Q452 532 428 522T384 496T351 457T331 410L31 441Z" />
<glyph unicode="&#xa0;" glyph-name="nbspace" horiz-adv-x="1300" />
<glyph unicode="&#xa1;" glyph-name="exclamdown" horiz-adv-x="1300" d="M352 -400V691L652 656V-400H352ZM338 951Q338 984 351 1014T386 1067T438 1103T502 1117Q536 1117 565 1104T617 1068T651 1015T664 951Q664 917 651 888T616 836T565 800T501 787Q467
787 438 800T386 835T351 887T338 951Z" />
<glyph unicode="&#xa2;" glyph-name="cent" horiz-adv-x="1300" d="M989 814Q965 837 943 852T901 877V223Q967 249 1023 288L1135 93Q1084 58 1026 33T901 -5V-190H611V6Q518 34 448 90T331 222T261 388T237 575Q237 662 259 744T328 896T445 1017T611 1095V1302L901
1340V1105Q968 1090 1026 1056T1140 961L989 814ZM521 563Q521 436 556 354T659 232V873Q594 840 558 765T521 563Z" />
<glyph unicode="&#xa3;" glyph-name="sterling" horiz-adv-x="1300" d="M779 216H1100V0H151L180 216H313Q315 218 318 224T326 249Q334 277 355 378T403 665H275V883H434L472 1150Q484 1229 509 1296T578 1413T688 1489T847 1517Q901 1517 943 1511T1023 1490T1094
1452T1167 1395L1037 1228Q987 1273 954 1288T891 1303Q868 1303 852 1290T824 1252T805 1193T791 1116L758 883H953L926 665H728Q720 601 715 556T703 475T690 405T673 331L531 157L779 216Z" />
<glyph unicode="&#xa4;" glyph-name="currency" horiz-adv-x="1300" d="M1117 232L941 55L775 221Q695 188 600 188Q552 188 508 196T424 221L259 55L82 232L234 383Q177 479 177 573Q177 618 191 666T234 762L82 913L258 1092L424 925Q464 942 508 949T600 957Q647
957 691 950T775 925L942 1092L1117 913L966 762Q1022 665 1022 573Q1022 527 1008 479T966 383L1117 232ZM435 573Q435 525 450 492T490 438T543 409T600 400Q627 400 656 409T709 438T748 491T764 573Q764 621 749 654T709 707T656 735T600 744Q573 744 544 736T490
707T451 654T435 573Z" />
<glyph unicode="&#xa5;" glyph-name="yen" horiz-adv-x="1300" d="M160 589H469V650L443 700H160V889H347L40 1500L379 1520L571 1143L678 773L736 1143L918 1500H1253L942 889H1160V700H845L820 650V589H1160V400H820V0H469V400H160V589Z" />
<glyph unicode="&#xa6;" glyph-name="brokenbar" horiz-adv-x="1300" d="M871 1520V700H529V1500L871 1520ZM871 362V-400H529V362H871Z" />
<glyph unicode="&#xa7;" glyph-name="section" horiz-adv-x="1300" d="M888 1249Q846 1272 813 1285T752 1306T701 1316T657 1318Q626 1318 598 1311T549 1286T515 1242T502 1174Q502 1135 517 1105T558 1050T617 1003T687 958Q747 921 807 880T915 788T994 674T1025
527Q1025 479 1011 434T970 350T909 282T833 234Q870 205 901 173T956 106T992 33T1006 -46Q1006 -128 976 -193T887 -305T744 -375T551 -400Q504 -400 460 -395T373 -378T286 -347T197 -299L303 -129Q345 -152 378 -166T439 -187T490 -197T534 -200Q565 -200 593
-192T642 -167T675 -121T688 -54Q688 -15 673 15T633 70T574 118T504 163Q444 200 384 240T276 332T197 446T166 593Q166 645 181 689T222 769T282 833T357 885Q320 915 289 947T234 1014T198 1087T185 1166Q185 1248 215 1313T304 1423T447 1493T640 1517Q686
1517 730 1513T817 1497T903 1466T993 1419L888 1249ZM548 747L536 737Q525 728 513 715T492 684T476 644T469 595Q469 561 482 532T517 478T566 430T621 387L643 372L655 383Q666 392 678 405T699 437T715 477T722 525Q722 558 709 587T674 641T625 689T571 731L548
747Z" />
<glyph unicode="&#xa8;" glyph-name="dieresis" horiz-adv-x="1300" d="M262 1566H538V1300H262V1566ZM662 1566H938V1300H662V1566Z" />
<glyph unicode="&#xa9;" glyph-name="copyright" horiz-adv-x="1300" d="M650 1517Q747 1517 832 1480T982 1379T1083 1230T1120 1047Q1120 949 1083 864T982 715T833 614T650 577Q553 577 468 614T318 714T217 863T180 1047Q180 1144 217 1229T318 1379T467 1480T650
1517ZM650 701Q720 701 782 728T892 803T968 913T996 1047Q996 1119 969 1182T895 1292T785 1366T650 1393Q578 1393 515 1366T405 1292T331 1182T304 1047Q304 977 331 915T406 805T516 729T650 701ZM785 1165Q754 1191 730 1197T681 1204Q652 1204 632 1192T598
1158T580 1110T574 1052Q574 1021 579 992T598 940T632 903T686 889Q712 889 744 900T802 929L858 841Q821 818 777 805T679 791Q612 791 562 813T477 873T426 958T409 1058Q409 1105 425 1149T475 1227T560 1281T682 1302Q736 1302 779 1286T860 1231L785 1165Z"
/>
<glyph unicode="&#xaa;" glyph-name="ordfeminine" horiz-adv-x="1300" d="M612 959H442V1009L400 961Q383 956 366 953T333 950Q292 950 250 962T174 998T119 1057T98 1138Q98 1186 119 1221T176 1278T255 1312T347 1323Q375 1323 398 1322T442 1316Q440 1359
421 1384T361 1409Q339 1409 317 1407T274 1400T236 1390T204 1378L157 1470Q180 1481 201 1489T246 1504T298 1514T366 1517Q430 1517 474 1502T547 1457T588 1388T601 1299V1059L612 959ZM159 810H601V690H159V810ZM442 1209Q435 1209 425 1209T405 1210T383
1211H366Q347 1211 328 1208T295 1196T271 1173T262 1138Q262 1121 268 1108T285 1084T309 1069T337 1063Q366 1063 392 1075T442 1109V1209Z" />
<glyph unicode="&#xab;" glyph-name="guillemotleft" horiz-adv-x="1300" d="M584 1106L673 880L342 583L266 550L341 517L675 224L581 -13L26 476V620L584 1106ZM1084 1106L1173 880L842 583L766 550L841 517L1175 224L1081 -13L526 476V620L1084 1106Z" />
<glyph unicode="&#xac;" glyph-name="logicalnot" horiz-adv-x="1300" d="M1261 827L1242 586V258H900V459L912 600H62V827H1261Z" />
<glyph unicode="&#xad;" glyph-name="sfthyphen" horiz-adv-x="0" />
<glyph unicode="&#xae;" glyph-name="registered" horiz-adv-x="1300" d="M650 1517Q747 1517 832 1480T982 1379T1083 1230T1120 1047Q1120 949 1083 864T982 715T833 614T650 577Q553 577 468 614T318 714T217 863T180 1047Q180 1144 217 1229T318 1379T467
1480T650 1517ZM650 701Q720 701 782 728T892 803T968 913T996 1047Q996 1119 969 1182T895 1292T785 1366T650 1393Q578 1393 515 1366T405 1292T331 1182T304 1047Q304 977 331 915T406 805T516 729T650 701ZM622 987Q618 991 614 992T607 993V800H494V1218L482
1291Q496 1292 514 1294T552 1297T589 1299T621 1300Q709 1300 763 1264T817 1158Q817 1122 806 1097T777 1053T735 1023T685 1004L730 993L869 800H752L622 987ZM607 1174V1065H627Q670 1065 690 1091T711 1153Q711 1176 704 1191T684 1216T658 1228T628 1232H611Q607
1232 601 1231L607 1174Z" />
<glyph unicode="&#xaf;" glyph-name="overscore" horiz-adv-x="1300" d="M300 1500H1000V1282H300V1500Z" />
<glyph unicode="&#xb0;" glyph-name="degree" horiz-adv-x="1300" d="M500 1517Q561 1517 615 1496T709 1438T773 1352T796 1247Q796 1191 773 1142T710 1057T615 999T500 977Q438 977 385 998T291 1056T227 1142T204 1247Q204 1303 227 1352T290 1438T384 1496T500
1517ZM500 1145Q523 1145 543 1153T579 1175T603 1207T612 1247Q612 1268 603 1286T579 1319T544 1341T500 1349Q477 1349 457 1341T421 1319T397 1287T388 1247Q388 1226 397 1208T421 1175T456 1153T500 1145Z" />
<glyph unicode="&#xb1;" glyph-name="plusminus" horiz-adv-x="1300" d="M179 862H539V1196H759V862H1119V702H759V382H539V702H179V862ZM200 290H1100V88H200V290Z" />
<glyph unicode="&#xb2;" glyph-name="twosuperior" horiz-adv-x="1300" d="M155 720V815Q178 852 209 892T272 972T335 1046T390 1107Q417 1136 436 1156T467 1193T484 1227T489 1268Q489 1287 483 1305T465 1337T437 1361T400 1370Q359 1370 328 1343T273 1268L157
1311Q186 1388 248 1433T408 1478Q465 1478 509 1460T584 1411T631 1342T647 1263Q647 1228 636 1199T607 1142T565 1087T516 1030Q491 1000 464 969T413 910T370 859T339 820H660V720H155Z" />
<glyph unicode="&#xb3;" glyph-name="threesuperior" horiz-adv-x="1300" d="M240 1189Q262 1205 296 1230T366 1285T434 1346T484 1407L354 1370H189L199 1470H620V1383Q605 1344 576 1311T511 1246L433 1204Q486 1204 529 1191T603 1152T650 1089T667 1006Q667
956 647 916T591 844T509 789T408 750T297 728T184 720V820Q243 822 299 835T399 872T469 927T496 1001Q496 1030 484 1050T451 1082T402 1099T343 1105Q335 1105 321 1105T291 1103T261 1101T240 1100V1189Z" />
<glyph unicode="&#xb4;" glyph-name="acute" horiz-adv-x="1300" d="M563 1500L900 1520L615 1200H400L563 1500Z" />
<glyph unicode="&#xb5;" glyph-name="mu" horiz-adv-x="1300" d="M1269 51Q1254 37 1237 25T1195 4T1137 -11T1055 -17Q1021 -17 988 -5T926 32T873 96T832 190L785 72Q767 56 744 40T690 12T624 -9T545 -17Q525 -17 496 -12T438 1T383 20T346 40L411 -166V-500H100V1093L411
1125V362Q411 324 423 294T456 242T502 210T555 199Q598 199 634 219T700 268V1093L1011 1125V365Q1011 273 1030 236T1084 199Q1111 199 1128 204T1170 223L1269 51Z" />
<glyph unicode="&#xb6;" glyph-name="paragraph" horiz-adv-x="1300" d="M933 1298H799V-400H530V604Q453 614 379 643T246 724T151 857T115 1050Q115 1137 137 1204T197 1322T286 1406T394 1461T511 1491T630 1500H1200V-400H933V1298Z" />
<glyph unicode="&#xb7;" glyph-name="middot" horiz-adv-x="1300" d="M103 683Q103 724 118 760T161 823T223 865T300 881Q341 881 377 866T440 823T482 760T498 683Q498 642 483 606T441 542T378 499T302 483Q261 483 225 499T161 542T119 605T103 683Z" />
<glyph unicode="&#xb8;" glyph-name="cedilla" horiz-adv-x="1300" d="M884 0Q911 -20 933 -46Q952 -69 967 -100T983 -171Q983 -221 960 -264T896 -338T804 -388T695 -407Q635 -407 578 -389T472 -349Q417 -323 366 -290L481 -131Q513 -151 545 -166Q571 -179
600 -189T652 -200Q675 -200 695 -188T716 -147Q716 -126 704 -103T676 -58T645 -22T622 0H884Z" />
<glyph unicode="&#xb9;" glyph-name="onesuperior" horiz-adv-x="1300" d="M386 1160L423 1341L310 1206L268 1169L190 1261L430 1480L552 1470V820H673V720H265V820H386V1160Z" />
<glyph unicode="&#xba;" glyph-name="ordmasculine" horiz-adv-x="1300" d="M179 810H621V690H179V810ZM402 950Q342 950 292 972T206 1032T150 1122T129 1235Q129 1296 148 1348T204 1438T290 1497T402 1517Q462 1519 511 1498T596 1438T651 1348T671 1235Q671
1174 652 1122T598 1032T514 972T402 950ZM508 1223Q508 1257 502 1290T483 1349T450 1391T400 1407Q372 1407 352 1394T319 1357T300 1305T293 1244Q293 1210 299 1177T319 1118T354 1076T404 1060Q431 1060 451 1074T483 1111T502 1163T508 1223Z" />
<glyph unicode="&#xbb;" glyph-name="guillemotright" horiz-adv-x="1300" d="M777 619V476L221 -13L127 224L461 517L535 550L460 582L129 880L218 1106L777 619ZM1277 619V476L721 -13L627 224L961 517L1035 550L960 582L629 880L718 1106L1277 619Z" />
<glyph unicode="&#xbc;" glyph-name="onequarter" horiz-adv-x="1300" d="M454 0H269L1044 1500H1220L454 0ZM1263 150H1174V0H1014V150H734V250L980 760L1121 750L955 381L868 250H1014V390L1174 400V250H1274L1263 150ZM284 1160L321 1341L208 1206L166 1169L88
1261L328 1480L450 1470V820H571V720H163V820H284V1160Z" />
<glyph unicode="&#xbd;" glyph-name="onehalf" horiz-adv-x="1300" d="M424 0H239L1014 1500H1190L424 0ZM778 0V95Q801 132 832 172T895 252T958 326T1013 387Q1040 416 1059 436T1090 473T1107 507T1112 548Q1112 567 1106 585T1088 617T1060 641T1023 650Q982
650 951 623T896 548L780 591Q809 668 871 713T1031 758Q1088 758 1132 740T1207 691T1254 622T1270 543Q1270 508 1259 479T1230 422T1188 367T1139 310Q1114 280 1087 249T1036 190T993 139T962 100H1283V0H778ZM284 1160L321 1341L208 1206L166 1169L88 1261L328
1480L450 1470V820H571V720H163V820H284V1160Z" />
<glyph unicode="&#xbe;" glyph-name="threequarters" horiz-adv-x="1300" d="M454 0H269L1044 1500H1220L454 0ZM1241 150H1152V0H992V150H712V250L958 760L1099 750L933 381L846 250H992V390L1152 400V250H1252L1241 150ZM240 1189Q262 1205 296 1230T366 1285T434
1346T484 1407L354 1370H189L199 1470H620V1383Q605 1344 576 1311T511 1246L433 1204Q486 1204 529 1191T603 1152T650 1089T667 1006Q667 956 647 916T591 844T509 789T408 750T297 728T184 720V820Q243 822 299 835T399 872T469 927T496 1001Q496 1030 484 1050T451
1082T402 1099T343 1105Q335 1105 321 1105T291 1103T261 1101T240 1100V1189Z" />
<glyph unicode="&#xbf;" glyph-name="questiondown" horiz-adv-x="1300" d="M96 -24Q96 36 116 85T168 177T242 258T327 335Q356 360 385 391T438 463T476 553T491 666L802 701Q801 614 789 538T747 396T671 270T553 158Q531 139 510 119T473 77T447 28T437 -32Q437
-72 451 -100T490 -147T547 -174T613 -183Q639 -183 677 -175T757 -147T841 -95T918 -17L1100 -168Q1043 -244 979 -292T847 -368T714 -406T589 -417Q494 -417 405 -394T248 -322T138 -199T96 -24ZM798 951Q798 917 785 888T750 836T699 800T635 787Q601 787 572
800T520 835T485 887T472 951Q472 984 484 1014T519 1067T570 1103T634 1117Q668 1117 698 1104T750 1068T785 1015T798 951Z" />
<glyph unicode="&#xc0;" glyph-name="Agrave" horiz-adv-x="1300" d="M50 0L405 1284L441 1500L819 1520L1250 0H916L812 427H470L369 0H50ZM643 1331L604 990L529 646H753L681 990L643 1331ZM800 1600H585L300 1920L637 1900L800 1600Z" />
<glyph unicode="&#xc1;" glyph-name="Aacute" horiz-adv-x="1300" d="M50 0L405 1284L441 1500L819 1520L1250 0H916L812 427H470L369 0H50ZM643 1331L604 990L529 646H753L681 990L643 1331ZM663 1900L1000 1920L715 1600H500L663 1900Z" />
<glyph unicode="&#xc2;" glyph-name="Acircumflex" horiz-adv-x="1300" d="M50 0L405 1284L441 1500L819 1520L1250 0H916L812 427H470L369 0H50ZM643 1331L604 990L529 646H753L681 990L643 1331ZM958 1620H738L668 1723L638 1850L608 1723L527 1620H288L483
1900L773 1920L958 1620Z" />
<glyph unicode="&#xc3;" glyph-name="Atilde" horiz-adv-x="1300" d="M50 0L405 1284L441 1500L819 1520L1250 0H916L812 427H470L369 0H50ZM643 1331L604 990L529 646H753L681 990L643 1331ZM255 1627Q259 1667 275 1712T321 1796T397 1859T506 1884Q555 1884
588 1872T649 1844T700 1817T756 1804Q777 1804 791 1811T814 1830T829 1858T837 1892L1004 1882Q1001 1838 987 1792T945 1707T871 1645T759 1620Q713 1620 682 1632T624 1660T572 1687T510 1700Q492 1700 480 1693T460 1675T446 1650T437 1620L255 1627Z" />
<glyph unicode="&#xc4;" glyph-name="Adieresis" horiz-adv-x="1300" d="M50 0L405 1284L441 1500L819 1520L1250 0H916L812 427H470L369 0H50ZM643 1331L604 990L529 646H753L681 990L643 1331ZM304 1866H580V1600H304V1866ZM704 1866H980V1600H704V1866Z" />
<glyph unicode="&#xc5;" glyph-name="Aring" horiz-adv-x="1300" d="M644 1927Q703 1927 754 1905T844 1844T905 1753T928 1642Q928 1583 906 1531T846 1438L843 1435L1250 0H916L812 427H470L369 0H50L405 1284L432 1449Q401 1485 381 1530Q358 1583 358 1642Q358
1701 380 1753T442 1843T533 1904T644 1927ZM643 1331L604 990L529 646H753L681 990L643 1331ZM645 1542Q665 1542 682 1550T713 1571T733 1603T741 1641Q741 1661 734 1678T713 1709T682 1730T644 1738Q624 1738 606 1731T575 1710T555 1679T547 1641Q547 1621
554 1603T575 1572T607 1550T645 1542Z" />
<glyph unicode="&#xc6;" glyph-name="AE" horiz-adv-x="1300" d="M1300 228L1273 0H583L601 231V427H430Q395 324 357 213T284 0H0L445 1284L491 1500H1263V1272H871Q876 1237 880 1202T887 1133V916H1196V703H887V360L880 228H1300ZM601 1200L543 851L478 599H601V1200Z" />
<glyph unicode="&#xc7;" glyph-name="Ccedilla" horiz-adv-x="1300" d="M1210 133Q1108 52 996 17Q944 1 888 -7Q909 -24 927 -46Q946 -69 961 -100T977 -171Q977 -221 954 -264T890 -338T798 -388T689 -407Q629 -407 572 -389T466 -349Q411 -323 360 -290L475
-131Q507 -151 539 -166Q565 -179 594 -189T646 -200Q669 -200 689 -188T710 -147Q710 -126 698 -103T670 -58T638 -21Q627 -10 621 -4Q543 11 476 45Q353 108 267 215T136 465T90 769Q90 870 107 964T159 1142T248 1294T376 1412T546 1489T758 1517Q888 1517 1005
1473T1210 1344L1062 1160Q1029 1182 993 1202T919 1237T845 1261T774 1270Q679 1270 615 1231T512 1125T457 966T440 772Q440 711 448 648T474 524T519 411T584 319T670 256T778 233Q812 233 845 238T914 256T994 289T1091 340L1210 133Z" />
<glyph unicode="&#xc8;" glyph-name="Egrave" horiz-adv-x="1300" d="M1137 228L1110 0H150L167 231V1263L132 1500H1100V1272H503L518 1134V916H1034V703H518V360L510 228H1137ZM800 1600H585L300 1920L637 1900L800 1600Z" />
<glyph unicode="&#xc9;" glyph-name="Eacute" horiz-adv-x="1300" d="M1137 228L1110 0H150L167 231V1263L132 1500H1100V1272H503L518 1134V916H1034V703H518V360L510 228H1137ZM648 1900L985 1920L700 1600H485L648 1900Z" />
<glyph unicode="&#xca;" glyph-name="Ecircumflex" horiz-adv-x="1300" d="M1137 228L1110 0H150L167 231V1263L132 1500H1100V1272H503L518 1134V916H1034V703H518V360L510 228H1137ZM970 1620H750L680 1723L650 1850L620 1723L539 1620H300L495 1900L785 1920L970
1620Z" />
<glyph unicode="&#xcb;" glyph-name="Edieresis" horiz-adv-x="1300" d="M1137 228L1110 0H150L167 231V1263L132 1500H1100V1272H503L518 1134V916H1034V703H518V360L510 228H1137ZM312 1866H588V1600H312V1866ZM712 1866H988V1600H712V1866Z" />
<glyph unicode="&#xcc;" glyph-name="Igrave" horiz-adv-x="1300" d="M189 1500H1067V1272H794V228H1095L1060 0H182V228H460V1272H154L189 1500ZM795 1600H580L295 1920L632 1900L795 1600Z" />
<glyph unicode="&#xcd;" glyph-name="Iacute" horiz-adv-x="1300" d="M189 1500H1067V1272H794V228H1095L1060 0H182V228H460V1272H154L189 1500ZM626 1900L963 1920L678 1600H463L626 1900Z" />
<glyph unicode="&#xce;" glyph-name="Icircumflex" horiz-adv-x="1300" d="M189 1500H1067V1272H794V228H1095L1060 0H182V228H460V1272H154L189 1500ZM955 1624H735L665 1727L635 1854L605 1727L524 1624H285L480 1904L770 1924L955 1624Z" />
<glyph unicode="&#xcf;" glyph-name="Idieresis" horiz-adv-x="1300" d="M189 1500H1067V1272H794V228H1095L1060 0H182V228H460V1272H154L189 1500ZM291 1966H567V1700H291V1966ZM691 1966H967V1700H691V1966Z" />
<glyph unicode="&#xd0;" glyph-name="Eth" horiz-adv-x="1300" d="M0 888H160V1263L126 1500Q175 1505 230 1508T338 1513T439 1516T520 1517Q688 1517 830 1477T1077 1350T1240 1130T1299 807Q1299 662 1270 546T1189 340T1063 186T903 80T716 20T512 0H160V665H0V888ZM512
1289H501Q496 1289 490 1288L511 1127V888H691V665H511V230Q616 236 689 266T811 340T887 440T928 555T945 671T948 778Q948 890 931 984T865 1146T732 1251T512 1289Z" />
<glyph unicode="&#xd1;" glyph-name="Ntilde" horiz-adv-x="1300" d="M884 0L400 950H390L452 649V0H129V1263L96 1500L422 1520L900 600H910L851 852V1500L1173 1520V0H884ZM274 1627Q278 1667 294 1712T340 1796T416 1859T525 1884Q574 1884 607 1872T668 1844T719
1817T775 1804Q796 1804 810 1811T833 1830T848 1858T856 1892L1023 1882Q1020 1838 1006 1792T964 1707T890 1645T778 1620Q732 1620 701 1632T643 1660T591 1687T529 1700Q511 1700 499 1693T479 1675T465 1650T456 1620L274 1627Z" />
<glyph unicode="&#xd2;" glyph-name="Ograve" horiz-adv-x="1300" d="M623 -17Q525 -17 443 10T294 88T177 209T92 364T41 547T24 750Q24 907 61 1047T172 1291T359 1456T623 1517Q770 1517 881 1456T1068 1291T1182 1047T1221 750Q1221 645 1205 548T1155 365T1073
209T957 89T807 11T623 -17ZM871 721Q871 783 868 848T855 974T828 1090T782 1186T713 1250T617 1274Q565 1274 527 1253T462 1195T418 1110T391 1007T378 895T374 783Q374 720 377 655T391 527T418 411T464 315T532 250T628 226Q680 226 718 247T783 306T827 393T854
497T867 609T871 721ZM800 1600H585L300 1920L637 1900L800 1600Z" />
<glyph unicode="&#xd3;" glyph-name="Oacute" horiz-adv-x="1300" d="M623 -17Q525 -17 443 10T294 88T177 209T92 364T41 547T24 750Q24 907 61 1047T172 1291T359 1456T623 1517Q770 1517 881 1456T1068 1291T1182 1047T1221 750Q1221 645 1205 548T1155 365T1073
209T957 89T807 11T623 -17ZM871 721Q871 783 868 848T855 974T828 1090T782 1186T713 1250T617 1274Q565 1274 527 1253T462 1195T418 1110T391 1007T378 895T374 783Q374 720 377 655T391 527T418 411T464 315T532 250T628 226Q680 226 718 247T783 306T827 393T854
497T867 609T871 721ZM563 1900L900 1920L615 1600H400L563 1900Z" />
<glyph unicode="&#xd4;" glyph-name="Ocircumflex" horiz-adv-x="1300" d="M622 -17Q524 -17 442 10T293 88T176 209T91 364T40 547T23 750Q23 907 60 1047T171 1291T358 1456T622 1517Q769 1517 880 1456T1067 1291T1181 1047T1220 750Q1220 645 1204 548T1154
365T1072 209T956 89T806 11T622 -17ZM870 721Q870 783 867 848T854 974T827 1090T781 1186T712 1250T616 1274Q564 1274 526 1253T461 1195T417 1110T390 1007T377 895T373 783Q373 720 376 655T390 527T417 411T463 315T531 250T627 226Q679 226 717 247T782
306T826 393T853 497T866 609T870 721ZM952 1620H732L662 1723L632 1850L602 1723L521 1620H282L477 1900L767 1920L952 1620Z" />
<glyph unicode="&#xd5;" glyph-name="Otilde" horiz-adv-x="1300" d="M623 -17Q525 -17 443 10T294 88T177 209T92 364T41 547T24 750Q24 907 61 1047T172 1291T359 1456T623 1517Q770 1517 881 1456T1068 1291T1182 1047T1221 750Q1221 645 1205 548T1155 365T1073
209T957 89T807 11T623 -17ZM871 721Q871 783 868 848T855 974T828 1090T782 1186T713 1250T617 1274Q565 1274 527 1253T462 1195T418 1110T391 1007T378 895T374 783Q374 720 377 655T391 527T418 411T464 315T532 250T628 226Q680 226 718 247T783 306T827 393T854
497T867 609T871 721ZM225 1627Q229 1667 245 1712T291 1796T367 1859T476 1884Q525 1884 558 1872T619 1844T670 1817T726 1804Q747 1804 761 1811T784 1830T799 1858T807 1892L974 1882Q971 1838 957 1792T915 1707T841 1645T729 1620Q683 1620 652 1632T594
1660T542 1687T480 1700Q462 1700 450 1693T430 1675T416 1650T407 1620L225 1627Z" />
<glyph unicode="&#xd6;" glyph-name="Odieresis" horiz-adv-x="1300" d="M623 -17Q525 -17 443 10T294 88T177 209T92 364T41 547T24 750Q24 907 61 1047T172 1291T359 1456T623 1517Q770 1517 881 1456T1068 1291T1182 1047T1221 750Q1221 645 1205 548T1155
365T1073 209T957 89T807 11T623 -17ZM871 721Q871 783 868 848T855 974T828 1090T782 1186T713 1250T617 1274Q565 1274 527 1253T462 1195T418 1110T391 1007T378 895T374 783Q374 720 377 655T391 527T418 411T464 315T532 250T628 226Q680 226 718 247T783
306T827 393T854 497T867 609T871 721ZM282 1866H558V1600H282V1866ZM682 1866H958V1600H682V1866Z" />
<glyph unicode="&#xd7;" glyph-name="multiply" horiz-adv-x="1300" d="M303 119L116 269L482 633L116 998L303 1149L604 847L674 729L696 847L996 1149L1183 998L818 633L1183 269L996 119L696 419L626 538L604 419L303 119Z" />
<glyph unicode="&#xd8;" glyph-name="Oslash" horiz-adv-x="1300" d="M649 -17Q551 -17 468 10Q432 22 400 38L331 -100H121L248 152Q224 179 202 209Q152 279 118 364T67 547T50 750Q50 907 87 1047T198 1291T385 1456T649 1517Q796 1517 907 1456L980 1600H1180L1051
1343Q1074 1318 1094 1291Q1170 1187 1208 1047T1247 750Q1247 645 1231 548T1181 365T1099 209T983 89T833 11T649 -17ZM738 1250Q698 1274 643 1274Q591 1274 553 1253T488 1195T444 1110T417 1007T404 895T400 783Q400 720 403 655T417 527Q419 511 422 496L785
1214Q764 1235 738 1250ZM897 721Q897 783 894 848T880 974Q879 984 877 994L520 279Q537 262 558 250Q599 226 654 226Q706 226 744 247T809 306T853 393T880 497T893 609T897 721Z" />
<glyph unicode="&#xd9;" glyph-name="Ugrave" horiz-adv-x="1300" d="M1160 1500V534Q1160 395 1123 292T1016 120T846 17T619 -17Q483 -17 389 26T237 148T152 337T126 582V1263L92 1500L458 1520V564Q458 483 464 419T491 311T549 244T650 221Q700 221 734 239T789
295T819 387T828 516V1500H1160ZM800 1600H585L300 1920L637 1900L800 1600Z" />
<glyph unicode="&#xda;" glyph-name="Uacute" horiz-adv-x="1300" d="M1160 1500V534Q1160 395 1123 292T1016 120T846 17T619 -17Q483 -17 389 26T237 148T152 337T126 582V1263L92 1500L458 1520V564Q458 483 464 419T491 311T549 244T650 221Q700 221 734 239T789
295T819 387T828 516V1500H1160ZM663 1900L1000 1920L715 1600H500L663 1900Z" />
<glyph unicode="&#xdb;" glyph-name="Ucircumflex" horiz-adv-x="1300" d="M1160 1500V534Q1160 395 1123 292T1016 120T846 17T619 -17Q483 -17 389 26T237 148T152 337T126 582V1263L92 1500L458 1520V564Q458 483 464 419T491 311T549 244T650 221Q700 221
734 239T789 295T819 387T828 516V1500H1160ZM969 1620H749L679 1723L649 1850L619 1723L538 1620H299L494 1900L784 1920L969 1620Z" />
<glyph unicode="&#xdc;" glyph-name="Udieresis" horiz-adv-x="1300" d="M1160 1500V534Q1160 395 1123 292T1016 120T846 17T619 -17Q483 -17 389 26T237 148T152 337T126 582V1263L92 1500L458 1520V564Q458 483 464 419T491 311T549 244T650 221Q700 221 734
239T789 295T819 387T828 516V1500H1160ZM311 1866H587V1600H311V1866ZM711 1866H987V1600H711V1866Z" />
<glyph unicode="&#xdd;" glyph-name="Yacute" horiz-adv-x="1300" d="M540 1143L647 773L705 1143L887 1500H1222L789 650V0H438V650L9 1500L348 1520L540 1143ZM563 1900L900 1920L615 1600H400L563 1900Z" />
<glyph unicode="&#xde;" glyph-name="Thorn" horiz-adv-x="1300" d="M137 1500H501V1311H615Q666 1311 723 1302T836 1273T943 1219T1033 1138T1095 1027T1118 882Q1118 825 1110 764T1074 643T998 531T866 438Q840 426 811 416T747 398T670 386T577 381H501V0H159V1267L137
1500ZM501 1093V605H605Q654 605 690 626T750 684T784 772T796 882Q796 983 740 1038T586 1093H501Z" />
<glyph unicode="&#xdf;" glyph-name="germandbls" horiz-adv-x="1300" d="M470 -17L127 0V1073Q127 1176 162 1254T262 1384T416 1463T613 1489Q844 1489 954 1373Q979 1346 1000 1320T1036 1264T1059 1201T1068 1127Q1068 1074 1053 1027T1011 940T945 868T859
811Q922 790 977 759T1074 686T1138 590T1162 466Q1162 380 1138 312T1073 192T978 104T861 44T732 11T601 0L520 224Q666 227 746 283T826 457Q826 516 809 558T761 628T688 668T595 681L500 902Q554 907 598 921T674 961T723 1022T740 1107Q740 1142 729 1173T700
1227T659 1263T610 1276Q539 1276 505 1240T470 1119V-17Z" />
<glyph unicode="&#xe0;" glyph-name="agrave" horiz-adv-x="1300" d="M1135 0H795V100L711 5Q676 -6 642 -11T577 -17Q494 -17 410 7T259 79T149 197T106 358Q106 454 149 524T262 639T422 707T604 729Q661 729 708 726T795 715Q791 800 752 850T632 900Q588 900
544 895T458 881T382 861T319 838L225 1023Q271 1044 313 1061T403 1091T508 1110T642 1117Q770 1117 859 1086T1005 997T1086 859T1112 681V200L1135 0ZM795 500Q780 501 760 502T719 503T678 504T642 505Q604 505 567 498T500 474T453 429T435 359Q435 325 447
298T481 250T529 219T585 208Q642 208 694 233T795 300V500ZM863 1200H648L363 1520L700 1500L863 1200Z" />
<glyph unicode="&#xe1;" glyph-name="aacute" horiz-adv-x="1300" d="M1135 0H795V100L711 5Q676 -6 642 -11T577 -17Q494 -17 410 7T259 79T149 197T106 358Q106 454 149 524T262 639T422 707T604 729Q661 729 708 726T795 715Q791 800 752 850T632 900Q588 900
544 895T458 881T382 861T319 838L225 1023Q271 1044 313 1061T403 1091T508 1110T642 1117Q770 1117 859 1086T1005 997T1086 859T1112 681V200L1135 0ZM795 500Q780 501 760 502T719 503T678 504T642 505Q604 505 567 498T500 474T453 429T435 359Q435 325 447
298T481 250T529 219T585 208Q642 208 694 233T795 300V500ZM663 1500L1000 1520L715 1200H500L663 1500Z" />
<glyph unicode="&#xe2;" glyph-name="acircumflex" horiz-adv-x="1300" d="M1135 0H795V100L711 5Q676 -6 642 -11T577 -17Q494 -17 410 7T259 79T149 197T106 358Q106 454 149 524T262 639T422 707T604 729Q661 729 708 726T795 715Q791 800 752 850T632 900Q588
900 544 895T458 881T382 861T319 838L225 1023Q271 1044 313 1061T403 1091T508 1110T642 1117Q770 1117 859 1086T1005 997T1086 859T1112 681V200L1135 0ZM795 500Q780 501 760 502T719 503T678 504T642 505Q604 505 567 498T500 474T453 429T435 359Q435 325
447 298T481 250T529 219T585 208Q642 208 694 233T795 300V500ZM1020 1220H800L730 1323L700 1450L670 1323L589 1220H350L545 1500L835 1520L1020 1220Z" />
<glyph unicode="&#xe3;" glyph-name="atilde" horiz-adv-x="1300" d="M1135 0H795V100L711 5Q676 -6 642 -11T577 -17Q494 -17 410 7T259 79T149 197T106 358Q106 454 149 524T262 639T422 707T604 729Q661 729 708 726T795 715Q791 800 752 850T632 900Q588 900
544 895T458 881T382 861T319 838L225 1023Q271 1044 313 1061T403 1091T508 1110T642 1117Q770 1117 859 1086T1005 997T1086 859T1112 681V200L1135 0ZM795 500Q780 501 760 502T719 503T678 504T642 505Q604 505 567 498T500 474T453 429T435 359Q435 325 447
298T481 250T529 219T585 208Q642 208 694 233T795 300V500ZM276 1247Q280 1287 296 1332T342 1416T418 1479T527 1504Q576 1504 609 1492T670 1464T721 1437T777 1424Q798 1424 812 1431T835 1450T850 1478T858 1512L1025 1502Q1022 1458 1008 1412T966 1327T892
1265T780 1240Q734 1240 703 1252T645 1280T593 1307T531 1320Q513 1320 501 1313T481 1295T467 1270T458 1240L276 1247Z" />
<glyph unicode="&#xe4;" glyph-name="adieresis" horiz-adv-x="1300" d="M1135 0H795V100L711 5Q676 -6 642 -11T577 -17Q494 -17 410 7T259 79T149 197T106 358Q106 454 149 524T262 639T422 707T604 729Q661 729 708 726T795 715Q791 800 752 850T632 900Q588
900 544 895T458 881T382 861T319 838L225 1023Q271 1044 313 1061T403 1091T508 1110T642 1117Q770 1117 859 1086T1005 997T1086 859T1112 681V200L1135 0ZM795 500Q780 501 760 502T719 503T678 504T642 505Q604 505 567 498T500 474T453 429T435 359Q435 325
447 298T481 250T529 219T585 208Q642 208 694 233T795 300V500ZM324 1566H600V1300H324V1566ZM724 1566H1000V1300H724V1566Z" />
<glyph unicode="&#xe5;" glyph-name="aring" horiz-adv-x="1300" d="M650 1682Q709 1682 760 1660T850 1599T911 1508T934 1397Q934 1338 912 1286T852 1194T762 1131Q738 1120 712 1114Q795 1108 859 1085Q949 1054 1005 997T1086 859T1112 681V200L1135 0H795V100L711
5Q676 -6 642 -11T577 -17Q494 -17 410 7T259 79T149 197T106 358Q106 454 149 524T262 639T422 707T604 729Q661 729 708 726T795 715Q791 800 752 850T632 900Q588 900 544 895T458 881T382 861T319 838L225 1023Q271 1044 313 1061T403 1091T508 1110Q542 1114
583 1116Q561 1122 540 1131Q488 1154 449 1193T387 1285T364 1397Q364 1456 386 1508T448 1598T539 1659T650 1682ZM795 500Q780 501 760 502T719 503T678 504T642 505Q604 505 567 498T500 474T453 429T435 359Q435 325 447 298T481 250T529 219T585 208Q642
208 694 233T795 300V500ZM651 1297Q671 1297 688 1305T719 1326T739 1358T747 1396Q747 1416 740 1433T719 1464T688 1485T650 1493Q630 1493 612 1486T581 1465T561 1434T553 1396Q553 1376 560 1358T581 1327T613 1305T651 1297Z" />
<glyph unicode="&#xe6;" glyph-name="ae" horiz-adv-x="1300" d="M659 87Q621 42 557 13T397 -17Q310 -17 240 7T121 79T46 197T19 358Q19 454 44 525T117 643T230 713T378 736H415Q432 736 448 734Q448 771 447 800T440 849T422 881T386 892Q348 892 315 884T256
864Q226 852 200 836L100 1025Q145 1051 201 1071Q249 1088 315 1102T462 1117Q525 1117 573 1098T654 1051Q694 1080 751 1098T886 1117Q969 1117 1031 1100T1137 1053T1210 981T1255 892T1278 790T1285 681Q1285 651 1282 620T1273 561T1262 508T1250 466H800Q800
422 802 375T819 289T863 225T950 200Q978 200 1001 210T1043 236T1076 269T1100 299L1266 161Q1236 125 1208 93T1143 36T1054 -3T924 -17Q848 -17 779 11T659 87ZM710 681H1020V768Q1020 786 1015 807T996 847T962 879T910 892Q880 892 859 879T824 848T802 808T790
768L710 681ZM448 513H439Q414 513 387 505T338 478T301 431T286 359Q286 288 311 248T380 208Q406 208 419 221T439 251Q446 269 448 294V513Z" />
<glyph unicode="&#xe7;" glyph-name="ccedilla" horiz-adv-x="1300" d="M967 772Q919 829 861 855T726 881Q665 881 612 855T520 783T458 679T435 553Q435 484 458 426T522 325T614 260T726 236Q778 236 820 245T896 271T955 309T999 353L1123 137Q1105 121 1070
95T981 44T856 1Q842 -2 827 -5Q850 -23 869 -46Q888 -69 903 -100T919 -171Q919 -221 896 -264T832 -338T740 -388T631 -407Q571 -407 514 -389T408 -349Q353 -323 302 -290L417 -131Q449 -151 481 -166Q507 -179 536 -189T588 -200Q611 -200 631 -188T652 -147Q652
-126 640 -103T612 -58T580 -21L563 -4Q504 7 451 31Q343 79 266 159T147 344T105 565Q105 669 145 768T262 945T449 1070T697 1117Q832 1117 941 1080T1129 957L967 772Z" />
<glyph unicode="&#xe8;" glyph-name="egrave" horiz-adv-x="1300" d="M1148 158Q1108 121 1062 90T960 35T836 -2T686 -16Q542 -16 433 31T249 156T138 337T100 550Q100 621 117 690T167 822T247 939T356 1032T492 1093T653 1116Q773 1116 867 1081T1026 982T1125
829T1159 632Q1159 605 1156 561T1147 466H400Q402 412 430 364T501 279T598 222T706 200Q757 200 804 211T890 238T957 271T1000 300L1148 158ZM865 672Q865 718 852 759T812 831T747 881T657 900Q606 900 568 885T503 848T459 800T434 756L343 653L516 671L865
672ZM800 1200H585L300 1520L637 1500L800 1200Z" />
<glyph unicode="&#xe9;" glyph-name="eacute" horiz-adv-x="1300" d="M1148 158Q1108 121 1062 90T960 35T836 -2T686 -16Q542 -16 433 31T249 156T138 337T100 550Q100 621 117 690T167 822T247 939T356 1032T492 1093T653 1116Q773 1116 867 1081T1026 982T1125
829T1159 632Q1159 605 1156 561T1147 466H400Q402 412 430 364T501 279T598 222T706 200Q757 200 804 211T890 238T957 271T1000 300L1148 158ZM865 672Q865 718 852 759T812 831T747 881T657 900Q606 900 568 885T503 848T459 800T434 756L343 653L516 671L865
672ZM663 1500L1000 1520L715 1200H500L663 1500Z" />
<glyph unicode="&#xea;" glyph-name="ecircumflex" horiz-adv-x="1300" d="M1148 158Q1108 121 1062 90T960 35T836 -2T686 -16Q542 -16 433 31T249 156T138 337T100 550Q100 621 117 690T167 822T247 939T356 1032T492 1093T653 1116Q773 1116 867 1081T1026
982T1125 829T1159 632Q1159 605 1156 561T1147 466H400Q402 412 430 364T501 279T598 222T706 200Q757 200 804 211T890 238T957 271T1000 300L1148 158ZM865 672Q865 718 852 759T812 831T747 881T657 900Q606 900 568 885T503 848T459 800T434 756L343 653L516
671L865 672ZM983 1220H763L693 1323L663 1450L633 1323L552 1220H313L508 1500L798 1520L983 1220Z" />
<glyph unicode="&#xeb;" glyph-name="edieresis" horiz-adv-x="1300" d="M1148 158Q1108 121 1062 90T960 35T836 -2T686 -16Q542 -16 433 31T249 156T138 337T100 550Q100 621 117 690T167 822T247 939T356 1032T492 1093T653 1116Q773 1116 867 1081T1026 982T1125
829T1159 632Q1159 605 1156 561T1147 466H400Q402 412 430 364T501 279T598 222T706 200Q757 200 804 211T890 238T957 271T1000 300L1148 158ZM865 672Q865 718 852 759T812 831T747 881T657 900Q606 900 568 885T503 848T459 800T434 756L343 653L516 671L865
672ZM312 1566H588V1300H312V1566ZM712 1566H988V1300H712V1566Z" />
<glyph unicode="&#xec;" glyph-name="igrave" horiz-adv-x="1300" d="M464 834L544 896L452 876H189L161 1100H791V423Q791 382 801 348T829 289T872 250T927 236Q993 236 1043 258T1145 330L1204 98Q1190 87 1169 68T1114 30T1029 -3T908 -17Q793 -17 710 19T572
116T491 259T464 432V834ZM790 1200H575L290 1520L627 1500L790 1200Z" />
<glyph unicode="&#xed;" glyph-name="iacute" horiz-adv-x="1300" d="M464 834L544 896L452 876H189L161 1100H791V423Q791 382 801 348T829 289T872 250T927 236Q993 236 1043 258T1145 330L1204 98Q1190 87 1169 68T1114 30T1029 -3T908 -17Q793 -17 710 19T572
116T491 259T464 432V834ZM633 1500L970 1520L685 1200H470L633 1500Z" />
<glyph unicode="&#xee;" glyph-name="icircumflex" horiz-adv-x="1300" d="M464 834L544 896L452 876H189L161 1100H791V423Q791 382 801 348T829 289T872 250T927 236Q993 236 1043 258T1145 330L1204 98Q1190 87 1169 68T1114 30T1029 -3T908 -17Q793 -17 710
19T572 116T491 259T464 432V834ZM921 1220H701L631 1323L601 1450L571 1323L490 1220H251L446 1500L736 1520L921 1220Z" />
<glyph unicode="&#xef;" glyph-name="idieresis" horiz-adv-x="1300" d="M464 834L544 896L452 876H189L161 1100H791V423Q791 382 801 348T829 289T872 250T927 236Q993 236 1043 258T1145 330L1204 98Q1190 87 1169 68T1114 30T1029 -3T908 -17Q793 -17 710
19T572 116T491 259T464 432V834ZM262 1566H538V1300H262V1566ZM662 1566H938V1300H662V1566Z" />
<glyph unicode="&#xf0;" glyph-name="eth" horiz-adv-x="1300" d="M392 1154L594 1320L450 1296Q406 1310 371 1310Q344 1310 319 1308T271 1300L235 1508L290 1513Q312 1515 327 1516T352 1517H372Q472 1517 560 1495T723 1433L872 1561L1012 1395L827 1239H955Q1007
1177 1046 1103T1110 948T1148 782T1161 612Q1161 558 1151 491T1118 354T1055 218T956 99T817 15T630 -17Q512 -17 421 18T267 118T173 273T140 472Q140 584 173 671T266 816T413 905T608 936Q656 936 704 929T801 904Q798 929 789 958T766 1018T734 1076T693
1126L535 993L392 1154ZM839 596Q821 616 800 637T753 674T694 701T622 712Q576 712 542 692T486 638T452 556T440 455Q440 401 454 356T494 278T554 227T629 208Q668 208 700 225T758 272T800 341T826 426Q835 469 837 510T839 596Z" />
<glyph unicode="&#xf1;" glyph-name="ntilde" horiz-adv-x="1300" d="M460 0H143V1100L460 1120V1000L537 1100Q575 1110 618 1113T720 1117Q811 1117 884 1090T1007 1014T1085 894T1112 736V0H795V736Q795 777 783 806T750 855T704 883T650 892Q587 892 544 872T460
808V0ZM226 1247Q230 1287 246 1332T292 1416T368 1479T477 1504Q526 1504 559 1492T620 1464T671 1437T727 1424Q748 1424 762 1431T785 1450T800 1478T808 1512L975 1502Q972 1458 958 1412T916 1327T842 1265T730 1240Q684 1240 653 1252T595 1280T543 1307T481
1320Q463 1320 451 1313T431 1295T417 1270T408 1240L226 1247Z" />
<glyph unicode="&#xf2;" glyph-name="ograve" horiz-adv-x="1300" d="M627 -17Q507 -17 407 26T235 146T122 327T81 553Q81 674 120 778T230 958T403 1077T627 1117Q747 1121 846 1078T1015 958T1125 778T1164 553Q1164 431 1127 327T1019 147T850 27T627 -17ZM838
528Q838 596 827 662T789 780T722 865T623 897Q567 897 527 870T460 796T421 692T408 571Q408 502 421 436T461 319T530 235T631 203Q685 203 724 230T789 304T826 408T838 528ZM800 1200H585L300 1520L637 1500L800 1200Z" />
<glyph unicode="&#xf3;" glyph-name="oacute" horiz-adv-x="1300" d="M627 -17Q507 -17 407 26T235 146T122 327T81 553Q81 674 120 778T230 958T403 1077T627 1117Q747 1121 846 1078T1015 958T1125 778T1164 553Q1164 431 1127 327T1019 147T850 27T627 -17ZM838
528Q838 596 827 662T789 780T722 865T623 897Q567 897 527 870T460 796T421 692T408 571Q408 502 421 436T461 319T530 235T631 203Q685 203 724 230T789 304T826 408T838 528ZM663 1500L1000 1520L715 1200H500L663 1500Z" />
<glyph unicode="&#xf4;" glyph-name="ocircumflex" horiz-adv-x="1300" d="M627 -17Q507 -17 407 26T235 146T122 327T81 553Q81 674 120 778T230 958T403 1077T627 1117Q747 1121 846 1078T1015 958T1125 778T1164 553Q1164 431 1127 327T1019 147T850 27T627
-17ZM838 528Q838 596 827 662T789 780T722 865T623 897Q567 897 527 870T460 796T421 692T408 571Q408 502 421 436T461 319T530 235T631 203Q685 203 724 230T789 304T826 408T838 528ZM959 1220H739L669 1323L639 1450L609 1323L528 1220H289L484 1500L774 1520L959
1220Z" />
<glyph unicode="&#xf5;" glyph-name="otilde" horiz-adv-x="1300" d="M627 -17Q507 -17 407 26T235 146T122 327T81 553Q81 674 120 778T230 958T403 1077T627 1117Q747 1121 846 1078T1015 958T1125 778T1164 553Q1164 431 1127 327T1019 147T850 27T627 -17ZM838
528Q838 596 827 662T789 780T722 865T623 897Q567 897 527 870T460 796T421 692T408 571Q408 502 421 436T461 319T530 235T631 203Q685 203 724 230T789 304T826 408T838 528ZM268 1247Q272 1287 288 1332T334 1416T410 1479T519 1504Q568 1504 601 1492T662
1464T713 1437T769 1424Q790 1424 804 1431T827 1450T842 1478T850 1512L1017 1502Q1014 1458 1000 1412T958 1327T884 1265T772 1240Q726 1240 695 1252T637 1280T585 1307T523 1320Q505 1320 493 1313T473 1295T459 1270T450 1240L268 1247Z" />
<glyph unicode="&#xf6;" glyph-name="odieresis" horiz-adv-x="1300" d="M627 -17Q507 -17 407 26T235 146T122 327T81 553Q81 674 120 778T230 958T403 1077T627 1117Q747 1121 846 1078T1015 958T1125 778T1164 553Q1164 431 1127 327T1019 147T850 27T627 -17ZM838
528Q838 596 827 662T789 780T722 865T623 897Q567 897 527 870T460 796T421 692T408 571Q408 502 421 436T461 319T530 235T631 203Q685 203 724 230T789 304T826 408T838 528ZM282 1566H558V1300H282V1566ZM682 1566H958V1300H682V1566Z" />
<glyph unicode="&#xf7;" glyph-name="divide" horiz-adv-x="1300" d="M509 287Q509 316 520 341T550 386T595 417T649 428Q678 428 703 417T747 387T778 342T789 287Q789 259 778 233T749 188T705 156T650 144Q622 144 596 156T551 187T520 233T509 287ZM509 940Q509
969 520 994T550 1039T595 1070T649 1081Q678 1081 703 1070T747 1040T778 995T789 940Q789 912 778 886T749 841T705 809T650 797Q622 797 596 809T551 840T520 886T509 940ZM200 724H1100V500H200V724Z" />
<glyph unicode="&#xf8;" glyph-name="oslash" horiz-adv-x="1300" d="M582 -17Q479 -17 390 15L321 -100H61L203 132Q196 139 189 146Q117 223 77 327T36 553Q36 674 75 778T185 958T358 1077T582 1117Q692 1120 785 1084L861 1209H1111L964 965Q967 961 970 958Q1041
882 1080 778T1119 553Q1119 431 1082 327T974 147T805 27T582 -17ZM578 897Q522 897 482 870T415 796T376 692T363 571Q363 502 376 436Q377 428 379 420L658 877Q623 897 578 897ZM793 528Q793 596 781 662V663L513 218Q545 203 586 203Q640 203 679 230T744
304T781 408T793 528Z" />
<glyph unicode="&#xf9;" glyph-name="ugrave" horiz-adv-x="1300" d="M815 1100L1132 1120V0H815V100L734 0Q678 -17 613 -17Q479 -17 389 21T245 122T167 268T144 438V1100L460 1120V438Q460 386 468 345T498 274T553 229T639 213Q672 213 700 223T750 249T789
283T815 318V1100ZM816 1200H601L316 1520L653 1500L816 1200Z" />
<glyph unicode="&#xfa;" glyph-name="uacute" horiz-adv-x="1300" d="M815 1100L1132 1120V0H815V100L734 0Q678 -17 613 -17Q479 -17 389 21T245 122T167 268T144 438V1100L460 1120V438Q460 386 468 345T498 274T553 229T639 213Q672 213 700 223T750 249T789
283T815 318V1100ZM625 1500L962 1520L677 1200H462L625 1500Z" />
<glyph unicode="&#xfb;" glyph-name="ucircumflex" horiz-adv-x="1300" d="M815 1100L1132 1120V0H815V100L734 0Q678 -17 613 -17Q479 -17 389 21T245 122T167 268T144 438V1100L460 1120V438Q460 386 468 345T498 274T553 229T639 213Q672 213 700 223T750 249T789
283T815 318V1100ZM965 1220H745L675 1323L645 1450L615 1323L534 1220H295L490 1500L780 1520L965 1220Z" />
<glyph unicode="&#xfc;" glyph-name="udieresis" horiz-adv-x="1300" d="M815 1100L1132 1120V0H815V100L734 0Q678 -17 613 -17Q479 -17 389 21T245 122T167 268T144 438V1100L460 1120V438Q460 386 468 345T498 274T553 229T639 213Q672 213 700 223T750 249T789
283T815 318V1100ZM300 1566H576V1300H300V1566ZM700 1566H976V1300H700V1566Z" />
<glyph unicode="&#xfd;" glyph-name="yacute" horiz-adv-x="1300" d="M580 670L657 200L736 670L899 1100L1219 1120L811 8Q791 -47 768 -105T716 -217T655 -319T582 -402T495 -459T392 -480Q325 -480 260 -453T136 -374L259 -194Q282 -209 308 -221T361 -234Q404
-234 438 -185T510 -47L91 1100L417 1120L580 670ZM666 1500L1003 1520L718 1200H503L666 1500Z" />
<glyph unicode="&#xfe;" glyph-name="thorn" horiz-adv-x="1300" d="M885 528Q885 596 873 662T835 780T767 865T666 897Q611 897 571 870T506 796T468 692T456 571Q456 502 468 436T506 319T574 235T673 203Q728 203 768 230T834 304T872 408T885 528ZM472 1520V1201L390
1030L571 1109Q595 1113 619 1115T670 1117Q790 1117 889 1075T1060 957T1171 778T1211 553Q1211 431 1173 327T1065 147T894 27T670 -17Q644 -17 620 -15T571 -9L390 75L472 -99V-380H130V1500L472 1520Z" />
<glyph unicode="&#xff;" glyph-name="ydieresis" horiz-adv-x="1300" d="M580 670L657 200L736 670L899 1100L1219 1120L811 8Q791 -47 768 -105T716 -217T655 -319T582 -402T495 -459T392 -480Q325 -480 260 -453T136 -374L259 -194Q282 -209 308 -221T361 -234Q404
-234 438 -185T510 -47L91 1100L417 1120L580 670ZM323 1566H599V1300H323V1566ZM723 1566H999V1300H723V1566Z" />
<glyph unicode="&#x2013;" glyph-name="endash" horiz-adv-x="1300" d="M300 624H1000V400H300V624Z" />
<glyph unicode="&#x2014;" glyph-name="emdash" horiz-adv-x="1300" d="M0 624H1300V400H0V624Z" />
<glyph unicode="&#x2018;" glyph-name="quoteleft" horiz-adv-x="1300" d="M458 1079Q458 1048 447 1020T414 971T364 938T300 925Q266 925 236 937T184 971T149 1020T136 1079Q136 1115 143 1159T170 1253T226 1356T323 1466L425 1408Q414 1390 403 1367T382
1319T365 1267T355 1217Q375 1209 393 1198T426 1171T449 1133T458 1079Z" />
<glyph unicode="&#x2019;" glyph-name="quoteright" horiz-adv-x="1300" d="M600 1520L970 1500L554 1144H247L600 1520Z" />
<glyph unicode="&#x201a;" glyph-name="quotesinglbase" horiz-adv-x="1300" d="M142 121Q142 152 153 180T186 229T236 262T300 275Q334 275 364 263T416 229T451 180T464 121Q464 85 457 41T430 -53T374 -156T277 -266L175 -208Q186 -190 197 -167T218 -119T235
-67T245 -17Q225 -9 207 2T174 29T151 67T142 121Z" />
<glyph unicode="&#x201c;" glyph-name="quotedblleft" horiz-adv-x="1300" d="M458 1079Q458 1048 447 1020T414 971T364 938T300 925Q266 925 236 937T184 971T149 1020T136 1079Q136 1115 143 1159T170 1253T226 1356T323 1466L425 1408Q414 1390 403 1367T382
1319T365 1267T355 1217Q375 1209 393 1198T426 1171T449 1133T458 1079ZM858 1079Q858 1048 847 1020T814 971T764 938T700 925Q666 925 636 937T584 971T549 1020T536 1079Q536 1115 543 1159T570 1253T626 1356T723 1466L825 1408Q814 1390 803 1367T782 1319T765
1267T755 1217Q775 1209 793 1198T826 1171T849 1133T858 1079Z" />
<glyph unicode="&#x201d;" glyph-name="quotedblright" horiz-adv-x="1300" d="M142 1321Q142 1352 153 1380T186 1429T236 1462T300 1475Q334 1475 364 1463T416 1429T451 1380T464 1321Q464 1285 457 1241T430 1147T374 1044T277 934L175 992Q186 1010 197 1033T218
1081T235 1133T245 1183Q225 1191 207 1202T174 1229T151 1267T142 1321ZM542 1321Q542 1352 553 1380T586 1429T636 1462T700 1475Q734 1475 764 1463T816 1429T851 1380T864 1321Q864 1285 857 1241T830 1147T774 1044T677 934L575 992Q586 1010 597 1033T618
1081T635 1133T645 1183Q625 1191 607 1202T574 1229T551 1267T542 1321Z" />
<glyph unicode="&#x201e;" glyph-name="quotedblbase" horiz-adv-x="1300" d="M142 121Q142 152 153 180T186 229T236 262T300 275Q334 275 364 263T416 229T451 180T464 121Q464 85 457 41T430 -53T374 -156T277 -266L175 -208Q186 -190 197 -167T218 -119T235
-67T245 -17Q225 -9 207 2T174 29T151 67T142 121ZM542 121Q542 152 553 180T586 229T636 262T700 275Q734 275 764 263T816 229T851 180T864 121Q864 85 857 41T830 -53T774 -156T677 -266L575 -208Q586 -190 597 -167T618 -119T635 -67T645 -17Q625 -9 607 2T574
29T551 67T542 121Z" />
<glyph unicode="&#x2022;" glyph-name="bullet" horiz-adv-x="1300" d="M398 807Q398 867 421 920T485 1013T578 1076T692 1100Q752 1100 805 1077T899 1014T962 921T986 807Q986 747 963 693T901 597T808 532T695 508Q635 508 581 532T487 597T422 692T398 807Z" />
<glyph unicode="&#x2039;" glyph-name="guilsinglleft" horiz-adv-x="1300" d="M884 1106L973 880L642 583L566 550L641 517L975 224L881 -13L326 476V620L884 1106Z" />
<glyph unicode="&#x203a;" glyph-name="guilsinglright" horiz-adv-x="1300" d="M977 619V476L421 -13L327 224L661 517L735 550L660 582L329 880L418 1106L977 619Z" />
</font>
</defs>
</svg>
