<?xml version="1.0" standalone="no"?>
<!DOCTYPE svg PUBLIC "-//W3C//DTD SVG 1.1//EN" "http://www.w3.org/Graphics/SVG/1.1/DTD/svg11.dtd">
<svg xmlns="http://www.w3.org/2000/svg">
<defs >
<font id="B612Mono" horiz-adv-x="1408" ><font-face
    font-family="B612 Mono"
    units-per-em="2000"
    panose-1="2 11 6 9 5 0 0 2 0 4"
    ascent="1930"
    descent="-500"
    alphabetic="0" />
<glyph unicode=" " glyph-name="space" horiz-adv-x="1300" />
<glyph unicode="!" glyph-name="exclam" horiz-adv-x="1300" d="M785 1500L599 444L293 409L485 1500H785ZM233 149Q239 183 256 212T300 264T359 300T425 313Q459 313 486 300T531 265T557 213T559 149Q553 116 535 86T492 33T434 -3T368 -17Q335 -17 307 -4T260
32T234 85T233 149Z" />
<glyph unicode="&quot;" glyph-name="quotedbl" horiz-adv-x="1300" d="M893 1500L870 1367Q867 1349 863 1325T852 1273T839 1219T825 1168L775 1013H595L599 1168Q600 1191 602 1218T609 1273T617 1324T624 1367L647 1500H893ZM593 1500L570 1367Q567 1349 563
1325T552 1273T539 1219T525 1168L475 1013H295L299 1168Q300 1191 302 1218T309 1273T317 1324T324 1367L347 1500H593Z" />
<glyph unicode="#" glyph-name="numbersign" horiz-adv-x="1300" d="M1074 885Q1062 845 1051 809T1029 738T1007 666T983 587H1216L1152 373H922Q909 329 895 281T865 185T836 89T809 0L500 -17L619 373H453Q440 329 425 281T395 185T366 89T338 0L30 -17L152
373H1L37 587H214L304 885H81L146 1100H368Q379 1135 388 1167T409 1235L455 1500L796 1520L669 1100H836Q849 1144 865 1196T897 1301T929 1406T957 1500L1269 1520L1138 1100H1299L1261 885H1074ZM771 885H607Q595 845 584 809T563 738T541 666T517 587H681L771
885Z" />
<glyph unicode="$" glyph-name="dollar" horiz-adv-x="1300" d="M412 -14Q308 -6 222 28T53 121L231 348Q250 333 275 316T330 283T392 254T456 233L540 712Q477 745 417 781T313 862T247 964T238 1097Q253 1179 294 1245T394 1363T527 1448T679 1500L711 1681L1018
1719L979 1499Q1119 1466 1246 1369L1062 1178Q987 1226 935 1252L867 866Q927 835 982 797T1077 710T1135 596T1139 448Q1124 363 1084 294T987 170T858 78T708 16L671 -190H381L412 -14ZM850 430Q859 484 833 524T762 596L701 249Q727 258 751 272T794 308T828
360T850 430ZM549 1125Q544 1096 549 1073T567 1032T600 999T644 972L696 1268Q670 1260 646 1249T602 1220T568 1179T549 1125Z" />
<glyph unicode="%" glyph-name="percent" horiz-adv-x="1300" d="M331 746Q245 746 190 774T106 853T72 972T81 1121Q95 1200 123 1267T197 1384T308 1461T462 1489Q547 1489 602 1461T686 1384T721 1268T712 1121Q706 1086 697 1053L960 1473H1264L761 670Q787
687 816 699Q882 727 971 727Q1056 727 1111 700T1195 623T1229 506T1221 359Q1207 279 1179 210T1105 91T994 13T840 -16Q754 -16 699 12T615 91T581 210T590 359Q595 388 602 416L341 0H37L542 806Q515 788 484 774Q419 746 331 746ZM458 1165Q462 1190 465 1213T465
1253T453 1280T424 1291Q407 1291 396 1282T377 1258T365 1222T356 1178L340 1084Q335 1058 333 1035T332 995T344 967T373 956Q389 956 400 965T419 989T432 1025T441 1068L458 1165ZM967 404Q971 429 974 451T974 491T962 519T933 529Q916 529 905 520T887 496T874
460T865 417L849 323Q844 297 842 274T842 233T854 205T884 194Q900 194 910 203T928 227T941 263T950 306L967 404Z" />
<glyph unicode="&amp;" glyph-name="ampersand" horiz-adv-x="1300" d="M1258 740Q1241 642 1211 560T1141 410T1057 290T963 200H1040L1166 -17H787L731 100L680 11Q656 5 632 0T581 -8T525 -14T459 -17Q346 -17 262 21T126 124T53 274T50 454Q63 532 96 597T174
714T268 804T366 867Q354 896 343 930T324 999T315 1069T318 1134Q331 1208 365 1274T457 1391T597 1470T790 1500Q867 1500 922 1483T1018 1436T1089 1368T1146 1286L972 1100Q951 1137 931 1165T887 1212T835 1240T768 1250Q732 1250 708 1239T669 1210T645 1173T634
1133Q629 1107 632 1084Q634 1065 642 1038T669 966T717 854T791 688Q804 657 813 638T831 598T852 552T884 480Q903 500 914 527T937 621T955 720L1258 740ZM450 694L433 596Q390 542 375 463Q365 405 374 362T406 291T461 248T526 233Q568 233 596 243T647 269L450
694Z" />
<glyph unicode="&apos;" glyph-name="quotesingle" horiz-adv-x="1300" d="M300 1500H570L546 1367Q540 1331 527 1299T492 1232T435 1158T352 1068H213Q230 1148 247 1224T276 1367L300 1500Z" />
<glyph unicode="(" glyph-name="parenleft" horiz-adv-x="1300" d="M449 1158Q465 1251 489 1331T559 1472T679 1566T867 1600Q892 1600 919 1597T974 1586T1026 1569T1069 1545L959 1431Q941 1431 916 1426T865 1401T817 1339T782 1227L557 -46Q544 -119 552
-159T579 -219T618 -241T655 -245L732 -365Q709 -378 681 -388T623 -406T564 -416T510 -420Q396 -420 335 -384T250 -284T230 -138T251 38L449 1158Z" />
<glyph unicode=")" glyph-name="parenright" horiz-adv-x="1300" d="M824 38Q807 -55 783 -138T712 -284T591 -383T403 -420Q378 -420 351 -417T296 -406T244 -389T201 -365L320 -245Q335 -245 358 -242T406 -219T453 -160T488 -46L713 1227Q725 1298 717 1339T691
1400T650 1426T608 1431L538 1545Q561 1558 589 1568T647 1586T706 1596T760 1600Q874 1600 935 1566T1021 1472T1042 1332T1022 1158L824 38Z" />
<glyph unicode="*" glyph-name="asterisk" horiz-adv-x="1300" d="M884 926L954 805L760 654L673 800L652 990L568 800L442 656L265 781L417 950L594 1041H384L241 1090L324 1309L500 1259L635 1120L602 1315L625 1446L858 1470L830 1309L719 1117L889 1247L1041
1294L1098 1083L952 1037H729L884 926Z" />
<glyph unicode="+" glyph-name="plus" horiz-adv-x="1300" d="M205 700H565L638 1117H858L785 700H1145L1109 500H749L679 100H459L529 500H169L205 700Z" />
<glyph unicode="," glyph-name="comma" horiz-adv-x="1300" d="M152 156Q158 191 177 222T226 277T290 314T361 329Q396 329 425 317T475 280T504 219T505 136Q493 72 475 13T421 -108T329 -232T185 -365L128 -337Q165 -284 196 -228Q223 -181 247 -126T282 -17Q252
-16 225 -4T179 29T153 82T152 156Z" />
<glyph unicode="-" glyph-name="hyphen" horiz-adv-x="1300" d="M339 624H966L927 400H300L339 624Z" />
<glyph unicode="." glyph-name="period" horiz-adv-x="1300" d="M103 183Q110 224 132 260T185 323T255 365T335 381Q376 381 409 366T464 323T496 260T498 183Q490 142 469 106T416 42T346 -1T266 -17Q225 -17 192 -1T136 42T105 105T103 183Z" />
<glyph unicode="/" glyph-name="slash" horiz-adv-x="1300" d="M331 -100H0L977 1600H1300L331 -100Z" />
<glyph unicode="0" glyph-name="zero" horiz-adv-x="1300" d="M512 -16Q419 -16 347 16T223 105T137 236T88 396T71 572T88 750Q104 840 133 931T205 1108T306 1268T436 1397T594 1484T783 1516Q876 1516 948 1484T1072 1395T1158 1264T1208 1104T1224 928T1208
750Q1192 660 1163 569T1090 392T989 232T859 103T700 16T512 -16ZM422 791Q413 740 407 678T400 554T406 432T432 327T482 254T561 226Q603 226 640 246T708 302T765 385T811 487T846 597T871 709Q880 760 886 822T893 946T887 1068T861 1172T811 1245T731 1273Q689
1273 652 1253T584 1197T528 1114T482 1013T446 902T422 791Z" />
<glyph unicode="1" glyph-name="one" horiz-adv-x="1300" d="M616 880L754 1243L479 972L382 898L259 1083L817 1520L1056 1500L827 200H1070L1034 0H217L253 200H496L616 880Z" />
<glyph unicode="2" glyph-name="two" horiz-adv-x="1300" d="M49 0L81 190Q141 264 217 345T371 505T524 654T655 775Q720 833 764 873T838 947T884 1015T909 1097Q916 1134 910 1170T886 1236T839 1282T768 1300Q686 1300 614 1245T478 1096L260 1183Q303 1260
359 1321T486 1426T640 1493T821 1517Q935 1517 1017 1480T1150 1381T1219 1243T1224 1086Q1212 1016 1180 957T1101 844T998 735T880 621Q820 561 756 499T633 381T526 278T451 200H1093L1058 0H49Z" />
<glyph unicode="3" glyph-name="three" horiz-adv-x="1300" d="M361 938Q394 959 440 989T539 1055T647 1130T754 1211T850 1294T926 1374L652 1300H321L378 1500H1220L1189 1327Q1144 1248 1075 1182T923 1052L752 969Q857 969 938 942T1072 863T1144 739T1149
573Q1131 474 1076 393T940 249T756 138T540 61T310 15T82 0L118 200Q236 204 353 231T566 304T727 416T807 563Q817 621 800 660T744 724T653 759T537 770Q522 770 493 769T433 766T373 763T329 760L361 938Z" />
<glyph unicode="4" glyph-name="four" horiz-adv-x="1300" d="M1155 300H977L924 0H603L656 300H96L132 500L805 1520L1082 1500L621 763L401 500H692L741 780L1066 800L1013 500H1212L1155 300Z" />
<glyph unicode="5" glyph-name="five" horiz-adv-x="1300" d="M619 1046Q644 1052 673 1055T737 1059Q853 1059 938 1025T1077 932T1150 795T1154 626Q1136 523 1080 437T941 282T755 160T539 72T310 18T85 0L125 226Q197 228 274 242T425 280T567 338T689 413T778
503T823 606Q830 647 823 686T796 755T744 803T669 822Q631 822 597 816T535 801T483 780T444 759H219L350 1500H1216L1180 1300H663L619 1046Z" />
<glyph unicode="6" glyph-name="six" horiz-adv-x="1300" d="M1132 1280Q1109 1294 1079 1297T1024 1300Q955 1300 876 1267T720 1169T579 1012T475 800L666 945Q724 956 769 956Q866 956 952 932T1099 855T1187 721T1195 525Q1175 414 1118 316T975 143T780 26T547
-17Q439 -17 362 15T233 99T151 219T108 358T96 500T108 627Q129 745 174 857T285 1067T436 1249T621 1391T835 1484T1072 1517Q1090 1517 1123 1515T1204 1498L1132 1280ZM720 756Q684 756 645 741T568 703T497 653T440 601Q435 575 432 554T428 513T426 474T428
434Q432 387 443 345T475 270T524 219T589 200Q643 200 688 228T767 302T823 404T856 516Q865 566 859 610T835 686T788 737T720 756Z" />
<glyph unicode="7" glyph-name="seven" horiz-adv-x="1300" d="M179 1500H1186L1157 1339Q1152 1312 1131 1274T1078 1190T1003 1089T915 976Q861 906 801 827T687 666T589 503T523 346Q512 310 502 266T483 176T466 84T451 0H114Q120 32 130 86T153 200T181 318T212
418Q246 507 296 597T405 774T523 939T638 1086Q683 1143 720 1191T775 1272H139L179 1500Z" />
<glyph unicode="8" glyph-name="eight" horiz-adv-x="1300" d="M810 1517Q913 1517 996 1491T1134 1415T1212 1294T1220 1134Q1211 1083 1184 1040T1118 961T1035 896T945 844Q1006 812 1056 770T1140 675T1187 560T1189 427Q1168 312 1105 228T953 90T758 9T545
-17Q441 -17 349 12T192 100T97 243T86 441Q98 512 130 573T210 686T318 777T446 848Q405 875 371 905T314 970T281 1042T279 1124Q291 1192 321 1248T394 1347T487 1423T594 1476T704 1507T810 1517ZM863 422Q872 476 857 520T812 599T741 662T659 711Q612 690
571 663T496 599T439 519T406 421Q398 373 410 332T448 262T510 217T585 200Q630 200 676 215T760 258T826 328T863 422ZM605 1156Q599 1122 608 1094T636 1041T682 998T739 964Q799 993 845 1041T903 1152Q910 1190 901 1218T873 1264T832 1291T789 1300Q761 1300
731 1289T674 1259T629 1213T605 1156Z" />
<glyph unicode="9" glyph-name="nine" horiz-adv-x="1300" d="M190 200Q259 202 329 223T466 279T590 361T696 463T775 578T819 700L614 548Q598 546 581 545T547 544Q438 544 349 577T201 673T118 822T112 1017Q131 1128 185 1220T322 1378T510 1480T741 1517Q851
1517 929 1486T1060 1404T1142 1285T1183 1147T1194 1004T1181 873Q1150 696 1067 541T855 267T559 74T190 -17V200ZM594 761Q628 761 666 777T742 819T811 878T866 945Q875 1008 870 1071T845 1186T791 1268T709 1300Q662 1300 619 1279T540 1221T479 1137T445
1034Q435 980 439 931T463 844T514 784T594 761Z" />
<glyph unicode=":" glyph-name="colon" horiz-adv-x="1300" d="M137 183Q144 224 166 260T220 323T290 365T369 381Q410 381 443 366T499 323T530 260T532 183Q525 142 503 106T450 42T380 -1T301 -17Q260 -17 226 -1T170 42T139 105T137 183ZM228 700Q235 741
257 777T311 840T381 882T460 898Q501 898 534 883T590 840T621 777T623 700Q616 659 594 623T541 559T472 516T392 500Q351 500 318 516T262 559T230 622T228 700Z" />
<glyph unicode=";" glyph-name="semicolon" horiz-adv-x="1300" d="M191 156Q197 191 216 222T264 277T328 314T400 329Q435 329 464 317T514 280T543 219T543 136Q532 72 514 13T460 -108T368 -232T224 -365L167 -337Q203 -284 235 -228Q262 -181 286 -126T321
-17Q291 -16 264 -4T218 29T192 82T191 156ZM268 700Q275 741 297 777T350 840T420 882T500 898Q541 898 574 883T629 840T661 777T663 700Q656 659 634 623T581 559T511 516T432 500Q391 500 357 516T301 559T270 622T268 700Z" />
<glyph unicode="&lt;" glyph-name="less" horiz-adv-x="1300" d="M1219 1277L1172 1009L442 654L1047 302L1000 34L83 545L123 770L1219 1277Z" />
<glyph unicode="=" glyph-name="equal" horiz-adv-x="1300" d="M304 800H1104L1065 581H265L304 800ZM234 400H1034L995 181H195L234 400Z" />
<glyph unicode="&gt;" glyph-name="greater" horiz-adv-x="1300" d="M1217 770L1177 545L80 34L127 302L856 654L252 1009L299 1278L1217 770Z" />
<glyph unicode="?" glyph-name="question" horiz-adv-x="1300" d="M1146 1124Q1135 1064 1107 1015T1039 922T951 841T852 765Q818 740 784 709T719 637T665 547T630 434L313 399Q329 486 355 562T421 705T519 830T657 942Q683 961 707 981T752 1023T786 1072T807
1132Q814 1172 805 1200T774 1247T722 1274T657 1283Q631 1283 592 1275T508 1247T414 1195T323 1117L168 1268Q238 1344 311 1392T457 1468T596 1506T723 1517Q818 1517 902 1494T1047 1422T1135 1299T1146 1124ZM273 149Q279 183 296 212T340 264T398 300T464
313Q498 313 525 300T571 265T597 213T599 149Q593 116 575 86T531 33T473 -3T407 -17Q374 -17 346 -4T300 32T274 85T273 149Z" />
<glyph unicode="@" glyph-name="at" horiz-adv-x="1300" d="M728 636L783 774Q759 768 726 750T659 696T593 601T538 457Q518 381 512 329T508 244T524 194T551 172T585 169T619 181L728 636ZM1052 570Q1068 652 1077 734T1086 891T1073 1031T1036 1144T969 1219T868
1247Q808 1247 747 1224T626 1160T513 1064T414 945T335 812T281 673Q256 584 240 487T221 297T230 121T275 -25T363 -125T499 -162Q514 -162 540 -157T597 -140T660 -110T722 -66L656 -313Q640 -330 613 -343T555 -364T497 -377T450 -382Q342 -382 263 -341T130
-229T46 -65T3 132T-5 342T17 547Q39 673 82 790T187 1008T326 1193T494 1335T685 1427T894 1460Q995 1460 1068 1424T1191 1324T1268 1171T1303 978T1301 756T1266 519Q1236 375 1189 271T1077 100T931 0T753 -32Q728 -32 707 -25T669 -5T640 24T621 57L555 -17Q504
-17 457 -3T374 50T322 159T314 340Q324 447 353 536T426 697T521 822T628 910T736 963T836 981Q896 981 936 973T1001 952L835 249Q827 210 827 190T851 169Q868 169 894 196T950 274T1006 400T1052 570Z" />
<glyph unicode="A" glyph-name="A" horiz-adv-x="1300" d="M35 0L616 1284L680 1500L1072 1520L1234 0H900L872 427H530L353 0H35ZM862 1331L763 990L627 646H851L840 990L862 1331Z" />
<glyph unicode="B" glyph-name="B" horiz-adv-x="1300" d="M612 1130L571 900H600Q647 900 696 913T789 953T864 1024T907 1128Q917 1183 900 1218T851 1272T776 1298T692 1305Q678 1305 660 1304T626 1301L612 1130ZM63 0L284 1262V1489Q328 1495 381 1500T487
1509T587 1515T668 1517Q788 1517 895 1499T1080 1437T1195 1320T1214 1138Q1195 1029 1130 950T954 826Q1015 804 1064 770T1146 690T1191 584T1192 455Q1168 323 1112 236T971 96T774 22T527 0H63ZM453 228H510Q585 228 646 239T752 279T826 352T868 465Q879
530 866 573T821 643T739 681T630 693H535L453 228Z" />
<glyph unicode="C" glyph-name="C" horiz-adv-x="1300" d="M1058 133Q943 52 824 18T575 -17Q472 -17 388 11T239 91T129 215T61 374T34 561T50 769Q68 870 96 964T167 1142T270 1294T414 1412T605 1489T850 1517Q914 1517 974 1506T1089 1472T1189 1418T1271
1344L1091 1160Q1062 1182 1029 1202T962 1237T892 1261T822 1270Q727 1270 656 1231T535 1125T451 966T400 772Q389 711 387 648T391 524T416 411T464 319T539 256T643 233Q677 233 711 238T784 256T869 289T975 340L1058 133Z" />
<glyph unicode="D" glyph-name="D" horiz-adv-x="1300" d="M223 1500Q273 1505 330 1508T442 1513T546 1516T628 1517Q721 1517 811 1500T980 1445T1123 1350T1227 1214T1281 1034T1272 807Q1234 589 1163 436T980 186T713 45T353 0H2L223 1262V1500ZM549 1121L396
250Q501 250 578 275T712 343T806 441T867 554T904 671T926 778Q946 890 945 983T907 1143T793 1246T579 1283Q576 1283 573 1283T565 1282H557L549 1121Z" />
<glyph unicode="E" glyph-name="E" horiz-adv-x="1300" d="M1066 228L999 0H39L97 231L279 1263V1500H1254L1214 1272H617L607 1134L569 916H1085L1047 703H531L471 360L439 228H1066Z" />
<glyph unicode="F" glyph-name="F" horiz-adv-x="1300" d="M383 0H32L255 1263V1500H1264L1197 1272H593L583 1134L545 916H1058L1020 703H507L383 0Z" />
<glyph unicode="G" glyph-name="G" horiz-adv-x="1300" d="M1157 221Q1103 171 1040 128T903 52T747 2T572 -17Q417 -17 305 45T127 215T40 465T47 769Q74 920 139 1056T306 1294T549 1457T865 1517Q994 1517 1103 1473T1286 1344L1108 1170Q1079 1192 1046 1212T979
1247T909 1271T838 1280Q743 1280 670 1240T542 1130T452 968T398 772Q387 711 385 647T388 521T413 405T461 310T535 245T639 221Q664 221 691 227T745 242T795 264T837 289L895 616L604 635L640 840H1266L1157 221Z" />
<glyph unicode="H" glyph-name="H" horiz-adv-x="1300" d="M672 0L794 688H478L356 0H10L232 1263V1500L625 1520L518 916H834L937 1500L1287 1520L1018 0H672Z" />
<glyph unicode="I" glyph-name="I" horiz-adv-x="1300" d="M347 1500H1225L1185 1272H912L727 228H1028L953 0H75L115 228H393L578 1272H272L347 1500Z" />
<glyph unicode="J" glyph-name="J" horiz-adv-x="1300" d="M471 1500H1243L1057 446Q1041 352 998 272T884 121Q851 88 808 63T713 20T604 -7T489 -17Q392 -17 322 0T200 48T114 117T50 200L239 400Q251 382 270 356T320 305T396 262T504 244Q534 244 565 253T625
286T674 347T706 444L827 1132L871 1266H450L471 1500Z" />
<glyph unicode="K" glyph-name="K" horiz-adv-x="1300" d="M8 0L230 1263V1500L627 1520L541 1035L924 1500H1292L777 900L527 800L735 716L1138 0H758L454 540L358 0H8Z" />
<glyph unicode="L" glyph-name="L" horiz-adv-x="1300" d="M507 228H1197L1129 0H104L167 232L349 1263V1500L743 1520L538 360L507 228Z" />
<glyph unicode="M" glyph-name="M" horiz-adv-x="1300" d="M717 0L797 449L1036 1200H1026L801 700L693 475H502L477 700L426 1200H416L396 449L316 0H5L227 1263V1500L552 1520L645 1079L642 800L725 1082L969 1500L1299 1520L1030 0H717Z" />
<glyph unicode="N" glyph-name="N" horiz-adv-x="1300" d="M739 0L443 950H433L442 649L327 0H5L227 1263V1500L566 1520L861 600H871L857 852L971 1500L1297 1520L1028 0H739Z" />
<glyph unicode="O" glyph-name="O" horiz-adv-x="1300" d="M514 -17Q416 -17 339 10T204 88T108 209T51 364T32 547T51 750Q69 855 103 952T185 1135T295 1291T432 1411T595 1489T785 1517Q932 1517 1033 1456T1191 1291T1262 1047T1248 750Q1229 645 1196 548T1114
365T1004 209T867 89T703 11T514 -17ZM892 721Q903 783 911 848T920 974T914 1090T885 1185T828 1250T736 1274Q684 1274 642 1253T567 1195T508 1110T463 1007T429 895T406 783Q395 720 387 655T378 527T385 411T414 315T471 250T562 226Q639 226 695 273T790
393T853 553T892 721Z" />
<glyph unicode="P" glyph-name="P" horiz-adv-x="1300" d="M360 0H28L250 1262V1484Q296 1491 350 1497T459 1508T564 1514T653 1517Q810 1517 930 1483T1128 1389T1242 1244T1263 1061Q1245 929 1186 840T1026 695T785 613T463 583L360 0ZM557 1121L503 813Q608
817 684 832T813 878T896 958T940 1078Q949 1132 927 1172T862 1239T766 1279T657 1292H633Q623 1292 614 1292T595 1291T571 1289L557 1121Z" />
<glyph unicode="Q" glyph-name="Q" horiz-adv-x="1300" d="M1035 -180Q939 -180 870 -170T748 -129T657 -44T584 100L565 -11Q539 -14 515 -15T466 -17Q375 -17 304 12T181 93T96 216T46 373T31 554T50 750Q68 855 102 952T184 1135T294 1291T431 1411T594 1489T784
1517Q931 1517 1032 1461T1192 1307T1265 1073T1252 780Q1236 688 1203 593T1123 410T1014 250T879 127Q892 97 914 81T962 59T1018 51T1075 50L1035 -180ZM398 783Q389 723 380 660T368 536T369 421T393 327T447 263T541 239Q533 262 521 298T497 374T472 447L455
500L700 601L797 300L832 500Q850 548 870 609T905 751Q916 813 922 876T928 997T916 1107T883 1197T824 1257T736 1279Q687 1279 646 1258T570 1199T508 1113T459 1008T423 895T398 783Z" />
<glyph unicode="R" glyph-name="R" horiz-adv-x="1300" d="M491 600L385 0H61L282 1262V1488L376 1498Q426 1504 476 1508T575 1514T668 1517Q795 1517 903 1486T1086 1395T1196 1251T1212 1061Q1197 972 1157 902T1057 777T919 685T746 624L834 600L1136 0H771L491
600ZM582 1121L526 800H562Q630 800 686 821T785 879T855 964T891 1066Q903 1136 885 1181T831 1251T747 1286T653 1296Q637 1296 623 1296T597 1294L582 1121Z" />
<glyph unicode="S" glyph-name="S" horiz-adv-x="1300" d="M1048 1178Q1006 1205 972 1223T908 1252T851 1269T795 1274Q758 1274 721 1267T651 1243T596 1198T565 1125Q557 1084 572 1055T617 1002T685 960T766 921Q859 876 930 826T1045 714T1106 575T1104 398Q1084
282 1022 203T872 75T677 5T460 -17Q397 -17 341 -8T234 18T135 62T39 121L217 348Q241 330 274 312T346 279T424 255T503 246Q547 246 591 254T673 282T738 338T775 430Q785 484 768 523T716 591T635 645T542 693Q476 727 416 770T314 866T251 984T244 1127Q262
1228 317 1301T450 1423T623 1494T814 1517Q931 1517 1032 1480T1232 1369L1048 1178Z" />
<glyph unicode="T" glyph-name="T" horiz-adv-x="1300" d="M246 0L471 1272H68L108 1500H1242L1202 1272H804L579 0H246Z" />
<glyph unicode="U" glyph-name="U" horiz-adv-x="1300" d="M1261 1500L1091 534Q1067 395 1012 292T874 120T686 17T453 -17Q317 -17 231 26T100 148T49 337T66 582L186 1263V1500L563 1520L394 564Q380 483 375 419T381 311T425 244T516 221Q607 221 668 294T756
516L929 1500H1261Z" />
<glyph unicode="V" glyph-name="V" horiz-adv-x="1300" d="M1283 1500L641 200L575 -17L226 0L17 1500L343 1520L451 700L427 260L574 700L963 1500H1283Z" />
<glyph unicode="W" glyph-name="W" horiz-adv-x="1300" d="M319 1520L333 959L231 400H241L348 701L452 1000H678L682 701L681 400H691L787 957L985 1500H1276L743 0H490L482 300L504 650L401 300L286 0H30L31 1500L319 1520Z" />
<glyph unicode="X" glyph-name="X" horiz-adv-x="1300" d="M856 0L642 613L602 427L352 0H30L552 824L283 1500L615 1520L796 1050L848 1231L1013 1500H1300L879 855L1196 0H856Z" />
<glyph unicode="Y" glyph-name="Y" horiz-adv-x="1300" d="M518 1143L560 773L683 1143L928 1500H1263L680 650L565 0H214L329 650L50 1500L393 1520L518 1143Z" />
<glyph unicode="Z" glyph-name="Z" horiz-adv-x="1300" d="M1100 228L1087 0H48L30 86L765 1187L922 1300L787 1272H329L342 1500H1256L1287 1442L541 314L387 200L524 228H1100Z" />
<glyph unicode="[" glyph-name="bracketleft" horiz-adv-x="1300" d="M459 1288L474 1520H1174L1135 1302H785L774 1154L565 -31L524 -179H874L835 -398H135L202 -166L459 1288Z" />
<glyph unicode="\" glyph-name="backslash" horiz-adv-x="1300" d="M287 1600H609L1016 -100H683L287 1600Z" />
<glyph unicode="]" glyph-name="bracketright" horiz-adv-x="1300" d="M862 -166L847 -398H147L186 -179H535L546 -31L755 1154L796 1302H447L486 1520H1186L1119 1288L862 -166Z" />
<glyph unicode="^" glyph-name="asciicircum" horiz-adv-x="1300" d="M1242 866H942L701 1200L342 868H43L638 1500L850 1520L1242 866Z" />
<glyph unicode="_" glyph-name="underscore" horiz-adv-x="1300" d="M112 -200H1212L1167 -455H67L112 -200Z" />
<glyph unicode="`" glyph-name="grave" horiz-adv-x="1300" d="M1101 1200H886L658 1520L991 1500L1101 1200Z" />
<glyph unicode="a" glyph-name="a" horiz-adv-x="1300" d="M840 885Q820 888 803 890T779 893Q704 893 647 862T548 779T483 658T450 510Q444 449 446 395T460 299T491 233T541 209Q575 209 605 220T662 250T709 289T745 329L840 885ZM484 -16Q407 -15 350 8T253
72T188 165T152 280T140 409T148 542Q157 614 181 685T244 820T338 938T463 1032T621 1094T813 1117Q874 1116 936 1108Q990 1101 1053 1086T1174 1043L1031 209L1017 0H695L723 162L568 -10Q557 -12 539 -14T484 -16Z" />
<glyph unicode="b" glyph-name="b" horiz-adv-x="1300" d="M454 212Q483 207 515 204T577 200Q640 200 687 237T768 333T824 462T857 598Q872 680 871 737T856 831T819 883T767 900Q706 900 657 879T563 826L454 212ZM337 1398V1601L705 1632L589 974L707 1096Q738
1104 771 1110T833 1117Q925 1117 999 1083T1122 982T1188 817T1184 593Q1160 456 1099 344T951 151T756 27T530 -17Q466 -17 402 -11T280 6T175 29T100 54L337 1398Z" />
<glyph unicode="c" glyph-name="c" horiz-adv-x="1300" d="M1007 772Q970 833 916 859T785 885Q724 885 664 862T553 795T466 691T416 553Q404 484 420 426T473 325T561 260T671 236Q723 236 767 245T848 271T914 309T965 353L1051 137Q1030 121 990 95T893 44T760
1T594 -17Q461 -17 361 29T197 153T110 336T106 555Q118 624 142 693T206 824T300 940T427 1033T592 1094T797 1117Q931 1117 1034 1080T1201 957L1007 772Z" />
<glyph unicode="d" glyph-name="d" horiz-adv-x="1300" d="M796 900H727Q661 900 607 869T511 785T442 662T401 515Q388 441 389 383T405 284T444 222T505 200Q541 200 570 210T622 237T662 275T693 316L796 900ZM637 0L666 162L510 -10Q502 -12 495 -13T478 -15T455
-16T420 -17Q328 -17 256 23T137 137T74 309T78 528Q99 647 158 751T307 933T512 1055T761 1100H831L925 1632L1245 1600L1000 209L985 0H637Z" />
<glyph unicode="e" glyph-name="e" horiz-adv-x="1300" d="M1078 158Q1032 121 980 90T868 35T738 -2T586 -16Q442 -16 341 31T179 156T100 337T100 550Q112 621 138 690T203 823T297 939T419 1032T571 1094T752 1117Q872 1117 960 1082T1101 982T1173 829T1173
632Q1168 605 1157 561T1132 466H395Q387 412 393 365T428 284T508 230T644 210Q696 210 736 221T808 248T862 281T901 310L1078 158ZM886 672Q894 718 888 759T861 831T805 881T718 900Q667 900 630 885T565 848T519 800T490 756L381 653L557 671L886 672Z" />
<glyph unicode="f" glyph-name="f" horiz-adv-x="1300" d="M487 876H231L270 1100H526L551 1242Q570 1339 603 1412T689 1533T814 1602T985 1617Q1037 1614 1082 1602T1165 1573T1231 1537T1282 1501L1118 1341Q1089 1361 1055 1374T977 1393Q951 1396 930 1390T894
1364T867 1313T847 1233L823 1100H1120L1054 876H798L644 0Q624 -112 596 -195T521 -333T400 -411T214 -428Q177 -426 145 -420T88 -406T44 -390T16 -376L106 -179L109 -180Q128 -188 151 -196T201 -202Q229 -199 250 -184T286 -143T312 -80T333 0L487 876Z" />
<glyph unicode="g" glyph-name="g" horiz-adv-x="1300" d="M727 16Q692 2 642 -7T534 -17Q433 -17 348 27T204 148T122 327T117 545Q138 662 195 766T339 948T536 1071T777 1117Q795 1117 807 1117T829 1114L892 958L921 1120L1243 1100L1042 -41Q1025 -140 972
-226T837 -377T649 -479T419 -517Q353 -517 301 -507T206 -476T127 -427T58 -359L231 -192Q244 -206 267 -223T320 -256T382 -282T450 -293Q492 -293 536 -273T617 -216T682 -132T720 -27L727 16ZM868 820Q845 852 812 876T734 900Q674 900 625 864T538 774T477
655T442 534Q430 463 437 402T466 296T519 226T588 200Q647 200 691 225T774 287L868 820Z" />
<glyph unicode="h" glyph-name="h" horiz-adv-x="1300" d="M409 0H92L329 1339V1568L692 1600L586 1000L680 1100Q726 1110 778 1113T894 1117Q1071 1117 1146 1014T1187 718L1060 0H734L858 698Q867 750 862 787T842 847T806 881T762 892Q720 892 689 885T634
865T590 838T552 808L409 0Z" />
<glyph unicode="i" glyph-name="i" horiz-adv-x="1300" d="M588 1501H925L879 1240H542L588 1501ZM570 920L406 876H212V1100H854L729 423Q722 384 727 350T748 290T788 251T842 236Q875 236 903 241T959 258T1014 287T1072 330L1090 98Q1075 87 1050 68T988 30T898
-3T774 -17Q659 -17 582 19T461 116T405 259T409 432L473 800L570 920Z" />
<glyph unicode="j" glyph-name="j" horiz-adv-x="1300" d="M855 1501H1192L1146 1240H809L855 1501ZM834 920L670 876H475L476 1100H1117L911 -68Q895 -159 854 -240T748 -383T593 -481T388 -517Q317 -517 269 -503T190 -470T142 -432T112 -402L212 -170Q255 -220
301 -242T413 -264Q443 -264 470 -250T519 -212T558 -153T582 -77L737 800L834 920Z" />
<glyph unicode="k" glyph-name="k" horiz-adv-x="1300" d="M103 0L349 1397V1600L696 1631L544 769L868 1100H1209L776 700L559 627L737 564L1116 0H768L489 458L409 0H103Z" />
<glyph unicode="l" glyph-name="l" horiz-adv-x="1300" d="M646 1386L482 1342H287V1566H919L711 388Q702 337 706 303T723 247T755 217T796 208Q824 208 849 216T896 238T937 267T973 300L1047 107Q1035 98 1012 78T951 36T861 -1T738 -17Q630 -17 558 17T445
109T394 245T398 410L549 1266L646 1386Z" />
<glyph unicode="m" glyph-name="m" horiz-adv-x="1300" d="M286 0H-28L165 1100L483 1120L462 1000L557 1100Q562 1103 572 1106T594 1111T618 1115T640 1117Q688 1117 722 1114T780 1101T822 1077T854 1039Q876 1052 904 1065T964 1090T1029 1109T1093 1117Q1190
1117 1241 1090T1313 1014T1329 894T1308 736L1179 0H864L992 727Q999 768 1003 797T1007 846T998 875T972 885Q955 885 939 878T907 859T881 832T864 798Q863 791 862 779T858 754T854 730T851 715L725 0H421L546 708Q553 750 557 783T560 838T552 873T529 885Q500
885 472 866T427 804L286 0Z" />
<glyph unicode="n" glyph-name="n" horiz-adv-x="1300" d="M412 0H95L289 1100L609 1120L588 1000L683 1100Q722 1110 766 1113T869 1117Q960 1117 1028 1090T1138 1014T1194 894T1193 736L1064 0H747L876 736Q883 777 877 806T853 855T812 883T759 892Q696 892
649 872T554 808L412 0Z" />
<glyph unicode="o" glyph-name="o" horiz-adv-x="1300" d="M556 -17Q436 -17 344 26T193 146T112 327T111 553Q132 674 189 777T332 956T525 1074T757 1117Q877 1117 968 1075T1117 957T1194 778T1194 553Q1173 431 1117 327T978 147T787 27T556 -17ZM863 528Q875
596 875 662T859 780T807 865T713 897Q657 897 612 870T533 796T475 692T441 571Q429 502 430 436T449 319T503 235T599 203Q653 203 697 230T774 304T830 408T863 528Z" />
<glyph unicode="p" glyph-name="p" horiz-adv-x="1300" d="M486 200H564Q631 200 695 229T813 310T904 429T956 576Q971 657 965 718T937 819T878 880T797 900Q770 900 742 892T688 872T637 843T594 811L486 200ZM37 -500L319 1100L648 1120L617 944L771 1110Q792
1113 815 1115T862 1117Q955 1117 1036 1078T1172 967T1251 792T1252 564Q1231 441 1164 338T998 159T774 42T512 0H451L363 -500H37Z" />
<glyph unicode="q" glyph-name="q" horiz-adv-x="1300" d="M861 891Q832 895 804 897T738 900Q696 900 658 884T587 841T526 778T476 700T439 614T416 526Q401 442 408 381T438 280T494 220T568 200Q604 200 631 205T679 221T717 246T753 278L861 891ZM728 136L586
-8Q536 -17 492 -17Q400 -17 318 20T179 128T97 299T95 526Q119 663 184 772T342 958T548 1076T780 1117Q844 1117 910 1108T1036 1087T1142 1061T1213 1038L942 -500H616L728 136Z" />
<glyph unicode="r" glyph-name="r" horiz-adv-x="1300" d="M559 1000L654 1100Q710 1115 761 1116T859 1117Q940 1117 998 1108T1098 1086T1164 1058T1205 1032V735L916 700L898 876Q879 879 860 882T820 885Q724 885 648 850T515 750L383 0H66L260 1100L580 1120L559
1000Z" />
<glyph unicode="s" glyph-name="s" horiz-adv-x="1300" d="M1089 822Q1064 840 1031 854T961 877T884 892T805 898Q749 898 701 894T618 880T560 851T532 804Q527 778 551 760T613 727T699 703T788 684Q854 669 922 641T1044 571T1126 470T1142 335Q1124 235 1068
168T925 59T727 1T490 -17Q430 -17 373 -9T264 15T169 50T96 95L231 305Q292 263 365 236T531 208Q553 208 584 210T649 217T717 231T779 256T826 292T851 344Q856 371 835 392T780 428T703 455T622 475Q540 493 468 523T344 596T267 698T255 832Q268 908 318 962T445
1050T622 1101T837 1117Q893 1117 948 1109T1051 1087T1139 1056T1203 1022L1089 822Z" />
<glyph unicode="t" glyph-name="t" horiz-adv-x="1300" d="M602 388Q593 337 593 304T601 250T625 222T663 214Q717 214 759 224T834 249T892 282T939 316L1011 135Q996 124 959 99T864 48T725 3T545 -17Q437 -17 378 17T294 109T272 245T290 410L372 876H130L170
1100H412L449 1310L780 1420L724 1100H1183L1116 876H688L602 388Z" />
<glyph unicode="u" glyph-name="u" horiz-adv-x="1300" d="M892 1100L1213 1120L1015 0H698L716 100L617 0Q588 -8 558 -12T493 -17Q359 -17 276 21T149 122T98 268T104 438L221 1100L541 1120L420 438Q411 386 412 345T429 274T477 229T560 213Q593 213 623 223T677
249T721 283T754 318L892 1100Z" />
<glyph unicode="v" glyph-name="v" horiz-adv-x="1300" d="M509 700L512 300L655 700L856 1100L1173 1120L599 -17L286 0L129 1100L447 1120L509 700Z" />
<glyph unicode="w" glyph-name="w" horiz-adv-x="1300" d="M766 600V300H776L833 700L977 1100L1273 1120L857 0H591L562 400L582 600L530 400L364 0H79V1100L370 1120L368 700L285 300H295L400 600L517 900H752L766 600Z" />
<glyph unicode="x" glyph-name="x" horiz-adv-x="1300" d="M677 272L646 474L553 272L337 0H-1L502 585L237 1100L582 1120L684 900L711 700L806 900L971 1100L1329 1120L865 581L1171 0H810L677 272Z" />
<glyph unicode="y" glyph-name="y" horiz-adv-x="1300" d="M592 670L596 200L738 670L977 1100L1310 1120L706 8Q661 -75 613 -161T506 -319T373 -435T201 -480Q134 -480 79 -452T-26 -374L129 -194Q149 -209 173 -221T224 -234Q268 -234 310 -185T406 -47L189
1100L508 1120L592 670Z" />
<glyph unicode="z" glyph-name="z" horiz-adv-x="1300" d="M683 200H1056L1048 0H145L127 85L645 757L886 925L630 900H356L364 1100H1160L1178 1017L663 339L427 175L683 200Z" />
<glyph unicode="{" glyph-name="braceleft" horiz-adv-x="1300" d="M1078 1260Q1048 1280 1007 1292T930 1305Q900 1303 880 1289T845 1248T822 1185T804 1099L762 864Q752 808 728 759T673 671T608 601T543 550Q567 530 590 500T631 430T655 342T652 238L609
-2Q601 -50 597 -88T597 -153T617 -194T663 -208Q698 -208 743 -196T827 -163L890 -348Q855 -363 822 -376T754 -399T677 -414T583 -420Q470 -420 401 -388T297 -300T257 -168T267 -2L310 238Q326 327 320 379T269 442L134 462L166 640L307 660Q355 671 380 723T420
864L462 1099Q478 1188 509 1264T596 1397T731 1485T925 1517Q977 1517 1016 1512T1088 1497T1148 1474T1207 1445L1078 1260Z" />
<glyph unicode="|" glyph-name="bar" horiz-adv-x="1300" d="M983 1520L648 -380H316L647 1500L983 1520Z" />
<glyph unicode="}" glyph-name="braceright" horiz-adv-x="1300" d="M409 1445Q444 1461 477 1474T545 1496T622 1511T716 1517Q829 1517 898 1485T1003 1397T1043 1265T1032 1099L990 864Q975 776 981 724T1031 660L1166 640L1134 462L993 442Q945 432 921 380T880
238L837 -2Q822 -91 790 -167T704 -300T569 -388T375 -420Q323 -420 284 -415T212 -400T151 -377T92 -348L221 -163Q251 -183 292 -195T369 -208Q399 -208 419 -194T454 -153T477 -88T495 -2L538 238Q548 293 572 341T626 430T691 500T757 550Q734 570 711 600T670
670T645 759T648 864L690 1099Q698 1147 702 1184T701 1248T681 1288T636 1305Q601 1305 556 1293T472 1260L409 1445Z" />
<glyph unicode="~" glyph-name="asciitilde" horiz-adv-x="1300" d="M0 441Q18 508 56 578T155 705T296 798T482 835Q536 835 574 825T641 801T692 769T736 738T782 713T841 703Q910 703 959 741T1029 838L1298 802Q1280 729 1245 657T1153 528T1015 436T823 400Q773
400 738 410T675 434T627 466T582 497T532 522T465 532Q436 532 410 522T361 496T322 457T294 410L0 441Z" />
<glyph unicode="&#xa0;" glyph-name="nbspace" horiz-adv-x="1300" />
<glyph unicode="&#xa1;" glyph-name="exclamdown" horiz-adv-x="1300" d="M227 -400L413 656L719 691L527 -400H227ZM779 951Q773 917 756 888T712 836T653 800T587 787Q553 787 526 800T481 835T455 887T453 951Q459 984 477 1014T520 1067T578 1103T644 1117Q677
1117 705 1104T752 1068T778 1015T779 951Z" />
<glyph unicode="&#xa2;" glyph-name="cent" horiz-adv-x="1300" d="M981 814Q961 837 942 852T904 877L788 223Q823 236 857 252T922 288L1000 93Q942 58 880 33T748 -5L716 -190H426L460 6Q372 34 312 90T219 222T178 388T187 575Q202 662 239 744T334 896T472
1017T652 1095L689 1302L985 1340L944 1105Q1008 1090 1060 1056T1158 961L981 814ZM468 563Q446 436 467 354T548 232L661 873Q590 840 541 765T468 563Z" />
<glyph unicode="&#xa3;" glyph-name="sterling" horiz-adv-x="1300" d="M683 216H1004L966 0H17L84 216H217Q219 218 223 224T236 249Q249 277 287 378T386 665H258L296 883H455L541 1150Q566 1229 603 1296T693 1413T816 1489T980 1517Q1034 1517 1075 1511T1151
1490T1216 1452T1279 1395L1119 1228Q1077 1273 1047 1288T987 1303Q964 1303 945 1290T911 1252T881 1193T854 1116L779 883H974L909 665H711Q692 601 678 556T652 475T627 405T597 331L424 157L683 216Z" />
<glyph unicode="&#xa4;" glyph-name="currency" horiz-adv-x="1300" d="M1106 232L899 55L762 221Q676 188 582 188Q534 188 491 196T411 221L217 55L71 232L250 383Q230 431 224 479T226 573Q234 618 256 666T317 762L191 913L399 1092L535 925Q578 942 623 949T717
957Q764 957 806 950T886 925L1083 1092L1226 913L1049 762Q1068 714 1073 666T1071 573Q1063 527 1041 479T982 383L1106 232ZM484 573Q476 525 485 492T515 438T564 409T619 400Q646 400 677 409T735 438T784 491T813 573Q822 621 813 654T783 707T735 735T680
744Q653 744 622 736T563 707T514 654T484 573Z" />
<glyph unicode="&#xa5;" glyph-name="yen" horiz-adv-x="1300" d="M39 589H348L359 650L341 700H58L92 889H279L78 1500L423 1520L548 1143L589 773L713 1143L958 1500H1293L874 889H1092L1058 700H743L710 650L699 589H1039L1006 400H666L595 0H244L315 400H6L39 589Z" />
<glyph unicode="&#xa6;" glyph-name="brokenbar" horiz-adv-x="1300" d="M1010 1520L865 700H523L664 1500L1010 1520ZM806 362L671 -400H329L464 362H806Z" />
<glyph unicode="&#xa7;" glyph-name="section" horiz-adv-x="1300" d="M1059 1249Q1021 1272 990 1285T933 1306T884 1316T840 1318Q809 1318 780 1311T726 1286T685 1242T660 1174Q653 1135 663 1105T694 1050T745 1003T807 958Q860 921 913 880T1005 788T1064
674T1069 527Q1060 479 1038 434T983 350T910 282T825 234Q857 205 883 173T926 106T949 33T949 -46Q934 -128 892 -193T783 -305T628 -375T431 -400Q384 -400 341 -395T257 -378T176 -347T95 -299L231 -129Q269 -152 300 -166T357 -187T406 -197T450 -200Q481
-200 510 -192T564 -167T605 -121T629 -54Q636 -15 627 15T596 70T546 118T484 163Q431 200 378 240T286 332T227 446T222 593Q231 645 253 689T308 769T380 833T464 885Q432 915 407 947T364 1014T341 1087T342 1166Q356 1248 398 1313T506 1423T662 1493T859
1517Q951 1517 1032 1497T1194 1419L1059 1249ZM631 747L617 737Q605 728 591 715T563 684T540 644T525 595Q519 561 527 532T552 478T593 430T640 387L660 372L674 383Q699 401 727 436T766 525Q772 558 764 587T738 641T698 689T651 731L631 747Z" />
<glyph unicode="&#xa8;" glyph-name="dieresis" horiz-adv-x="1300" d="M485 1566H761L714 1300H438L485 1566ZM885 1566H1161L1114 1300H838L885 1566Z" />
<glyph unicode="&#xa9;" glyph-name="copyright" horiz-adv-x="1300" d="M732 1517Q829 1517 908 1480T1040 1379T1115 1230T1120 1047Q1103 949 1051 864T923 715T756 614T567 577Q470 577 391 614T260 714T185 863T180 1047Q197 1144 249 1229T376 1379T543
1480T732 1517ZM588 701Q658 701 725 728T849 803T944 913T996 1047Q1008 1119 992 1182T938 1292T841 1366T711 1393Q639 1393 572 1366T449 1292T355 1182T304 1047Q292 977 308 915T362 805T459 729T588 701ZM805 1165Q779 1191 756 1197T708 1204Q679 1204
656 1192T617 1158T590 1110T574 1052Q569 1021 569 992T578 940T606 903T658 889Q684 889 718 900T781 929L821 841Q780 818 734 805T633 791Q566 791 520 813T446 873T410 958T410 1058Q418 1105 442 1149T506 1227T601 1281T726 1302Q780 1302 820 1286T892
1231L805 1165Z" />
<glyph unicode="&#xaa;" glyph-name="ordfeminine" horiz-adv-x="1300" d="M387 951Q348 951 320 963T271 995T239 1041T221 1099T215 1163T219 1230Q223 1266 235 1301T267 1369T314 1428T376 1475T455 1506T551 1517Q582 1517 613 1513Q640 1509 671 1502T732
1480L660 1063L653 959H492L506 1040L429 954L414 951Q405 950 387 951ZM189 810H631L610 690H168L189 810ZM565 1401Q555 1403 547 1404T534 1405Q497 1405 468 1390T419 1348T386 1288T370 1214Q367 1183 368 1156T374 1108T390 1075T415 1063Q432 1063 447 1069T476
1084T499 1103T517 1123L565 1401Z" />
<glyph unicode="&#xab;" glyph-name="guillemotleft" horiz-adv-x="1300" d="M710 1106L759 880L376 583L294 550L363 517L646 224L510 -13L41 476L66 620L710 1106ZM1210 1106L1259 880L876 583L794 550L863 517L1146 224L1010 -13L541 476L566 620L1210 1106Z" />
<glyph unicode="&#xac;" glyph-name="logicalnot" horiz-adv-x="1300" d="M1271 827L1209 586L1151 258H809L845 459L882 600H32L72 827H1271Z" />
<glyph unicode="&#xad;" glyph-name="sfthyphen" horiz-adv-x="0" />
<glyph unicode="&#xae;" glyph-name="registered" horiz-adv-x="1300" d="M732 1517Q829 1517 908 1480T1040 1379T1115 1230T1120 1047Q1103 949 1051 864T923 715T756 614T567 577Q470 577 391 614T260 714T185 863T180 1047Q197 1144 249 1229T376 1379T543
1480T732 1517ZM588 701Q658 701 725 728T849 803T944 913T996 1047Q1008 1119 992 1182T938 1292T841 1366T711 1393Q639 1393 572 1366T449 1292T355 1182T304 1047Q292 977 308 915T362 805T459 729T588 701ZM629 1174L610 1065H630Q673 1065 698 1091T729 1153Q733
1176 729 1191T714 1216T689 1228T660 1232Q648 1232 644 1232T633 1231L629 1174ZM611 987Q608 991 604 992T597 993L563 800H450L524 1218L525 1291Q539 1292 557 1294T595 1297T633 1299T665 1300Q753 1300 800 1264T836 1158Q830 1122 815 1097T778 1053T730
1023T677 1004L720 993L825 800H708L611 987Z" />
<glyph unicode="&#xaf;" glyph-name="overscore" horiz-adv-x="1300" d="M319 1500H1019L980 1282H280L319 1500Z" />
<glyph unicode="&#xb0;" glyph-name="degree" horiz-adv-x="1300" d="M547 1517Q608 1517 658 1496T742 1438T791 1352T796 1247Q786 1191 754 1142T676 1057T571 999T452 977Q390 977 340 998T257 1056T209 1142T204 1247Q214 1303 245 1352T323 1438T427 1496T547
1517ZM482 1145Q505 1145 527 1153T566 1175T596 1207T612 1247Q615 1268 610 1286T591 1319T559 1341T517 1349Q494 1349 472 1341T433 1319T403 1287T388 1247Q384 1226 389 1208T408 1175T440 1153T482 1145Z" />
<glyph unicode="&#xb1;" glyph-name="plusminus" horiz-adv-x="1300" d="M239 862H599L672 1196H892L819 862H1179L1143 702H783L713 382H493L563 702H203L239 862ZM159 290H1059L1020 88H120L159 290Z" />
<glyph unicode="&#xb2;" glyph-name="twosuperior" horiz-adv-x="1300" d="M123 720L139 815Q169 852 207 892T284 972T361 1047T426 1107Q459 1136 481 1156T518 1193T541 1227T553 1268Q557 1287 554 1305T542 1337T518 1361T483 1370Q442 1370 406 1343T338
1268L229 1311Q250 1350 278 1380T342 1433T419 1466T509 1478Q566 1478 607 1460T674 1411T708 1341T711 1263Q705 1228 689 1199T649 1142T598 1087T539 1030Q509 1000 477 969T415 910T362 859T324 820H645L628 720H123Z" />
<glyph unicode="&#xb3;" glyph-name="threesuperior" horiz-adv-x="1300" d="M279 1189Q296 1199 319 1214T368 1247T422 1285T476 1325T524 1367T562 1407L425 1370H259L288 1470H709L693 1383Q671 1344 636 1311T560 1246L475 1204Q527 1204 568 1191T635 1152T671
1089T673 1006Q664 957 637 917T569 844T477 789T369 750T254 728T140 720L158 820Q217 822 275 835T382 872T462 928T502 1001Q507 1030 499 1050T471 1082T425 1099T367 1105Q360 1105 346 1104T315 1103T285 1101T263 1100L279 1189Z" />
<glyph unicode="&#xb4;" glyph-name="acute" horiz-adv-x="1300" d="M592 1500L933 1520L591 1200H376L592 1500Z" />
<glyph unicode="&#xb5;" glyph-name="mu" horiz-adv-x="1300" d="M1282 51Q1265 37 1246 25T1200 4T1139 -11T1056 -17Q1022 -17 991 -5T936 32T894 96T870 190L802 72Q782 56 756 40T697 12T627 -9T546 -17Q526 -17 498 -12T442 1T391 20T357 40L386 -166L327
-500H17L299 1100L613 1120L479 362Q472 324 479 294T503 242T543 210T594 199Q637 199 677 219T752 268L899 1100L1213 1120L1080 365Q1063 273 1075 236T1123 199Q1150 199 1168 204T1214 223L1282 51Z" />
<glyph unicode="&#xb6;" glyph-name="paragraph" horiz-adv-x="1300" d="M934 1298H800L501 -400H232L409 604Q334 614 265 643T146 724T75 857T73 1050Q88 1137 122 1204T203 1322T306 1406T424 1461T547 1491T667 1500H1237L902 -400H635L934 1298Z" />
<glyph unicode="&#xb7;" glyph-name="middot" horiz-adv-x="1300" d="M103 683Q110 724 132 760T185 823T255 865T335 881Q376 881 409 866T464 823T496 760T498 683Q490 642 469 606T416 542T346 499T266 483Q225 483 192 499T136 542T105 605T103 683Z" />
<glyph unicode="&#xb8;" glyph-name="cedilla" horiz-adv-x="1300" d="M719 0Q743 -20 761 -46Q776 -69 785 -100T788 -171Q779 -221 748 -264T672 -338T572 -388T459 -407Q399 -407 345 -389T246 -349Q195 -323 150 -290L293 -131Q322 -151 351 -166Q375 -179
402 -189T452 -200Q475 -200 497 -188T525 -147Q529 -126 521 -103T501 -58T476 -22T457 0H719Z" />
<glyph unicode="&#xb9;" glyph-name="onesuperior" horiz-adv-x="1300" d="M422 1160L491 1341L353 1206L305 1169L243 1261L522 1480L642 1470L527 820H649L631 720H222L240 820H362L422 1160Z" />
<glyph unicode="&#xba;" glyph-name="ordmasculine" horiz-adv-x="1300" d="M200 810H642L621 690H179L200 810ZM467 950Q407 950 361 972T285 1032T245 1122T244 1235Q255 1296 283 1347T354 1437T451 1496T567 1517Q627 1517 673 1496T747 1437T786 1348T786
1235Q775 1174 747 1122T678 1032T583 972T467 950ZM620 1223Q626 1257 626 1290T618 1349T592 1391T545 1407Q517 1407 495 1394T455 1357T427 1305T409 1244Q403 1210 403 1177T413 1118T440 1076T488 1060Q515 1060 537 1074T576 1111T604 1163T620 1223Z" />
<glyph unicode="&#xbb;" glyph-name="guillemotright" horiz-adv-x="1300" d="M789 619L764 476L122 -13L70 224L455 517L535 550L466 582L187 880L316 1106L789 619ZM1289 619L1264 476L622 -13L570 224L955 517L1035 550L966 582L687 880L816 1106L1289 619Z" />
<glyph unicode="&#xbc;" glyph-name="onequarter" horiz-adv-x="1300" d="M261 0H76L1116 1500H1292L261 0ZM300 1160L369 1341L231 1206L183 1169L121 1261L400 1480L520 1470L405 820H527L509 720H100L118 820H240L300 1160ZM1191 150H1102L1076 0H915L942 150H662L680
250L1016 760L1155 750L924 381L814 250H960L984 390L1147 400L1120 250H1220L1191 150Z" />
<glyph unicode="&#xbd;" glyph-name="onehalf" horiz-adv-x="1300" d="M251 0H66L1106 1500H1282L251 0ZM676 0L692 95Q722 132 760 172T837 252T914 327T979 387Q1012 416 1034 436T1071 473T1094 507T1106 548Q1110 567 1107 585T1095 617T1071 641T1036 650Q995
650 959 623T891 548L782 591Q803 630 831 660T895 713T972 746T1062 758Q1119 758 1160 740T1227 691T1261 621T1264 543Q1258 508 1242 479T1202 422T1151 367T1092 310Q1062 280 1030 249T968 190T915 139T877 100H1198L1181 0H676ZM300 1160L369 1341L231 1206L183
1169L121 1261L400 1480L520 1470L405 820H527L509 720H100L118 820H240L300 1160Z" />
<glyph unicode="&#xbe;" glyph-name="threequarters" horiz-adv-x="1300" d="M261 0H76L1116 1500H1292L261 0ZM1169 150H1080L1054 0H893L920 150H640L658 250L994 760L1133 750L902 381L792 250H938L962 390L1125 400L1098 250H1198L1169 150ZM239 1189Q256
1199 279 1214T328 1247T382 1285T436 1325T484 1367T522 1407L385 1370H219L248 1470H669L653 1383Q631 1344 596 1311T520 1246L435 1204Q487 1204 528 1191T595 1152T631 1089T633 1006Q624 957 597 917T529 844T437 789T329 750T214 728T100 720L118 820Q177
822 235 835T342 872T422 928T462 1001Q467 1030 459 1050T431 1082T385 1099T327 1105Q320 1105 306 1104T275 1103T245 1101T223 1100L239 1189Z" />
<glyph unicode="&#xbf;" glyph-name="questiondown" horiz-adv-x="1300" d="M141 -24Q152 36 180 85T248 178T336 259T435 335Q469 360 503 391T568 463T622 553T657 666L974 701Q958 614 932 538T866 395T768 270T630 158Q604 139 580 119T535 77T501 28T480
-32Q473 -72 482 -100T513 -147T565 -174T630 -183Q656 -183 695 -175T779 -147T873 -95T964 -17L1119 -168Q1049 -244 976 -292T830 -368T691 -406T564 -417Q469 -417 385 -394T240 -322T152 -199T141 -24ZM1014 951Q1008 917 991 888T947 836T889 800T823 787Q789
787 762 800T716 835T690 887T688 951Q694 984 712 1014T756 1067T814 1103T880 1117Q913 1117 941 1104T987 1068T1013 1015T1014 951Z" />
<glyph unicode="&#xc0;" glyph-name="Agrave" horiz-adv-x="1300" d="M35 0L616 1284L680 1500L1072 1520L1234 0H900L872 427H530L353 0H35ZM862 1331L763 990L627 646H851L840 990L862 1331ZM1001 1600H786L558 1920L891 1900L1001 1600Z" />
<glyph unicode="&#xc1;" glyph-name="Aacute" horiz-adv-x="1300" d="M35 0L616 1284L680 1500L1072 1520L1234 0H900L872 427H530L353 0H35ZM862 1331L763 990L627 646H851L840 990L862 1331ZM960 1900L1301 1920L959 1600H744L960 1900Z" />
<glyph unicode="&#xc2;" glyph-name="Acircumflex" horiz-adv-x="1300" d="M35 0L616 1284L680 1500L1072 1520L1234 0H900L872 427H530L353 0H35ZM862 1331L763 990L627 646H851L840 990L862 1331ZM1231 1620H1011L959 1723L952 1850L899 1723L800 1620H561L805
1900L1099 1920L1231 1620Z" />
<glyph unicode="&#xc3;" glyph-name="Atilde" horiz-adv-x="1300" d="M35 0L616 1284L680 1500L1072 1520L1234 0H900L872 427H530L353 0H35ZM862 1331L763 990L627 646H851L840 990L862 1331ZM507 1627Q518 1667 542 1712T603 1796T690 1859T803 1884Q852 1884
883 1872T939 1844T985 1817T1039 1804Q1060 1804 1075 1811T1102 1830T1121 1858T1135 1892L1301 1882Q1290 1838 1268 1792T1211 1707T1127 1645T1010 1620Q964 1620 935 1632T882 1660T834 1687T775 1700Q757 1700 744 1693T721 1675T702 1650T688 1620L507
1627Z" />
<glyph unicode="&#xc4;" glyph-name="Adieresis" horiz-adv-x="1300" d="M35 0L616 1284L680 1500L1072 1520L1234 0H900L872 427H530L353 0H35ZM862 1331L763 990L627 646H851L840 990L862 1331ZM625 1866H901L854 1600H578L625 1866ZM1025 1866H1301L1254 1600H978L1025
1866Z" />
<glyph unicode="&#xc5;" glyph-name="Aring" horiz-adv-x="1300" d="M974 1927Q1033 1927 1081 1905T1160 1844T1205 1753T1208 1642Q1197 1583 1166 1531T1090 1438Q1086 1435 1081 1431L1234 0H900L872 427H530L353 0H35L616 1284L669 1463Q650 1494 641 1530Q627
1583 638 1642Q648 1701 680 1753T757 1843T859 1904T974 1927ZM862 1331L763 990L627 646H851L840 990L862 1331ZM907 1542Q927 1542 946 1550T980 1571T1006 1603T1021 1641Q1024 1661 1020 1678T1005 1709T978 1730T941 1738Q921 1738 902 1731T868 1710T841
1679T827 1641Q823 1621 827 1603T843 1572T870 1550T907 1542Z" />
<glyph unicode="&#xc6;" glyph-name="AE" horiz-adv-x="1300" d="M1177 228L1110 0H480L539 231L574 427H403L181 0H-82L569 1284L653 1500H1365L1325 1272H993L989 1202Q987 1167 984 1133L946 916H1195L1157 703H908L848 360L817 228H1177ZM710 1250L590 851L481
599H604L710 1250Z" />
<glyph unicode="&#xc7;" glyph-name="Ccedilla" horiz-adv-x="1300" d="M1048 133Q933 52 814 17Q767 4 718 -4Q739 -23 755 -46Q770 -69 779 -100T782 -171Q773 -221 742 -264T666 -338T566 -388T453 -407Q393 -407 339 -389T240 -349Q189 -323 144 -290L287
-131Q316 -151 345 -166Q369 -179 396 -189T446 -200Q469 -200 491 -188T519 -147Q523 -126 515 -103T495 -58T470 -21Q464 -14 459 -9Q416 -1 377 11Q293 40 229 91T119 215T51 374T24 561T40 769Q58 870 86 964T157 1142T260 1294T404 1412T595 1489T840 1517Q904
1517 964 1506T1079 1472T1179 1418T1261 1344L1081 1160Q1052 1182 1019 1202T952 1237T882 1261T812 1270Q717 1270 646 1231T525 1125T441 966T390 772Q379 711 377 648T381 524T406 411T454 319T529 256T633 233Q667 233 701 238T774 256T859 289T965 340L1048
133Z" />
<glyph unicode="&#xc8;" glyph-name="Egrave" horiz-adv-x="1300" d="M1066 228L999 0H39L97 231L279 1263V1500H1254L1214 1272H617L607 1134L569 916H1085L1047 703H531L471 360L439 228H1066ZM1001 1600H786L558 1920L891 1900L1001 1600Z" />
<glyph unicode="&#xc9;" glyph-name="Eacute" horiz-adv-x="1300" d="M1066 228L999 0H39L97 231L279 1263V1500H1254L1214 1272H617L607 1134L569 916H1085L1047 703H531L471 360L439 228H1066ZM777 1900L1118 1920L776 1600H561L777 1900Z" />
<glyph unicode="&#xca;" glyph-name="Ecircumflex" horiz-adv-x="1300" d="M1066 228L999 0H39L97 231L279 1263V1500H1254L1214 1272H617L607 1134L569 916H1085L1047 703H531L471 360L439 228H1066ZM1143 1620H923L871 1723L864 1850L811 1723L712 1620H473L717
1900L1011 1920L1143 1620Z" />
<glyph unicode="&#xcb;" glyph-name="Edieresis" horiz-adv-x="1300" d="M1066 228L999 0H39L97 231L279 1263V1500H1254L1214 1272H617L607 1134L569 916H1085L1047 703H531L471 360L439 228H1066ZM486 1866H762L715 1600H439L486 1866ZM886 1866H1162L1115 1600H839L886
1866Z" />
<glyph unicode="&#xcc;" glyph-name="Igrave" horiz-adv-x="1300" d="M353 1500H1231L1191 1272H918L733 228H1034L959 0H81L121 228H399L584 1272H278L353 1500ZM996 1600H781L553 1920L886 1900L996 1600Z" />
<glyph unicode="&#xcd;" glyph-name="Iacute" horiz-adv-x="1300" d="M353 1500H1231L1191 1272H918L733 228H1034L959 0H81L121 228H399L584 1272H278L353 1500ZM957 1900L1298 1920L956 1600H741L957 1900Z" />
<glyph unicode="&#xce;" glyph-name="Icircumflex" horiz-adv-x="1300" d="M353 1500H1231L1191 1272H918L733 228H1034L959 0H81L121 228H399L584 1272H278L353 1500ZM1178 1624H958L906 1727L899 1854L846 1727L747 1624H508L752 1904L1046 1924L1178 1624Z" />
<glyph unicode="&#xcf;" glyph-name="Idieresis" horiz-adv-x="1300" d="M353 1500H1231L1191 1272H918L733 228H1034L959 0H81L121 228H399L584 1272H278L353 1500ZM514 1966H790L743 1700H467L514 1966ZM914 1966H1190L1143 1700H867L914 1966Z" />
<glyph unicode="&#xd0;" glyph-name="Eth" horiz-adv-x="1300" d="M2 888H162L228 1263V1500Q278 1505 335 1508T447 1513T551 1516T633 1517Q801 1517 936 1477T1161 1350T1285 1130T1287 807Q1261 662 1212 546T1094 340T942 186T763 80T566 20T358 0H6L123
665H-36L2 888ZM585 1289Q580 1289 575 1289T563 1288L555 1127L513 888H693L654 665H474L397 230Q503 236 582 266T717 340T811 440T872 555T909 671T931 778Q951 890 950 984T913 1146T798 1251T585 1289Z" />
<glyph unicode="&#xd1;" glyph-name="Ntilde" horiz-adv-x="1300" d="M739 0L443 950H433L442 649L327 0H5L227 1263V1500L566 1520L861 600H871L857 852L971 1500L1297 1520L1028 0H739ZM441 1627Q452 1667 476 1712T537 1796T624 1859T737 1884Q786 1884 817
1872T873 1844T919 1817T973 1804Q994 1804 1009 1811T1036 1830T1055 1858T1069 1892L1235 1882Q1224 1838 1202 1792T1145 1707T1061 1645T944 1620Q898 1620 869 1632T816 1660T768 1687T709 1700Q691 1700 678 1693T655 1675T636 1650T622 1620L441 1627Z"
/>
<glyph unicode="&#xd2;" glyph-name="Ograve" horiz-adv-x="1300" d="M488 -17Q390 -17 313 10T178 88T82 209T25 364T6 547T25 750Q43 855 77 952T159 1135T269 1291T406 1411T569 1489T759 1517Q906 1517 1007 1456T1165 1291T1236 1047T1222 750Q1203 645 1170
548T1088 365T978 209T841 89T677 11T488 -17ZM866 721Q877 783 885 848T894 974T888 1090T859 1185T802 1250T710 1274Q658 1274 616 1253T541 1195T482 1110T437 1007T403 895T380 783Q369 720 361 655T352 527T359 411T388 315T445 250T536 226Q613 226 669
273T764 393T827 553T866 721ZM1001 1600H786L558 1920L891 1900L1001 1600Z" />
<glyph unicode="&#xd3;" glyph-name="Oacute" horiz-adv-x="1300" d="M488 -17Q390 -17 313 10T178 88T82 209T25 364T6 547T25 750Q43 855 77 952T159 1135T269 1291T406 1411T569 1489T759 1517Q906 1517 1007 1456T1165 1291T1236 1047T1222 750Q1203 645 1170
548T1088 365T978 209T841 89T677 11T488 -17ZM866 721Q877 783 885 848T894 974T888 1090T859 1185T802 1250T710 1274Q658 1274 616 1253T541 1195T482 1110T437 1007T403 895T380 783Q369 720 361 655T352 527T359 411T388 315T445 250T536 226Q613 226 669
273T764 393T827 553T866 721ZM792 1900L1133 1920L791 1600H576L792 1900Z" />
<glyph unicode="&#xd4;" glyph-name="Ocircumflex" horiz-adv-x="1300" d="M487 -17Q389 -17 312 10T177 88T81 209T24 364T5 547T24 750Q42 855 76 952T158 1135T268 1291T405 1411T568 1489T758 1517Q905 1517 1006 1456T1164 1291T1235 1047T1221 750Q1202
645 1169 548T1087 365T977 209T840 89T676 11T487 -17ZM865 721Q876 783 884 848T893 974T887 1090T858 1185T801 1250T709 1274Q657 1274 615 1253T540 1195T481 1110T436 1007T402 895T379 783Q368 720 360 655T351 527T358 411T387 315T444 250T535 226Q612
226 668 273T763 393T826 553T865 721ZM1125 1620H905L853 1723L846 1850L793 1723L694 1620H455L699 1900L993 1920L1125 1620Z" />
<glyph unicode="&#xd5;" glyph-name="Otilde" horiz-adv-x="1300" d="M514 -17Q416 -17 339 10T204 88T108 209T51 364T32 547T51 750Q69 855 103 952T185 1135T295 1291T432 1411T595 1489T785 1517Q932 1517 1033 1456T1191 1291T1262 1047T1248 750Q1229 645
1196 548T1114 365T1004 209T867 89T703 11T514 -17ZM892 721Q903 783 911 848T920 974T914 1090T885 1185T828 1250T736 1274Q684 1274 642 1253T567 1195T508 1110T463 1007T429 895T406 783Q395 720 387 655T378 527T385 411T414 315T471 250T562 226Q639 226
695 273T790 393T853 553T892 721ZM455 1627Q466 1667 490 1712T551 1796T638 1859T751 1884Q800 1884 831 1872T887 1844T933 1817T987 1804Q1008 1804 1023 1811T1050 1830T1069 1858T1083 1892L1249 1882Q1238 1838 1216 1792T1159 1707T1075 1645T958 1620Q912
1620 883 1632T830 1660T782 1687T723 1700Q705 1700 692 1693T669 1675T650 1650T636 1620L455 1627Z" />
<glyph unicode="&#xd6;" glyph-name="Odieresis" horiz-adv-x="1300" d="M518 -17Q420 -17 343 10T208 88T112 209T55 364T36 547T55 750Q73 855 107 952T189 1135T299 1291T436 1411T599 1489T789 1517Q936 1517 1037 1456T1195 1291T1266 1047T1252 750Q1233
645 1200 548T1118 365T1008 209T871 89T707 11T518 -17ZM896 721Q907 783 915 848T924 974T918 1090T889 1185T832 1250T740 1274Q688 1274 646 1253T571 1195T512 1110T467 1007T433 895T410 783Q399 720 391 655T382 527T389 411T418 315T475 250T566 226Q643
226 699 273T794 393T857 553T896 721ZM538 1866H814L767 1600H491L538 1866ZM938 1866H1214L1167 1600H891L938 1866Z" />
<glyph unicode="&#xd7;" glyph-name="multiply" horiz-adv-x="1300" d="M212 119L51 269L481 633L180 998L393 1149L641 847L690 729L733 847L1086 1149L1247 998L817 633L1118 269L905 119L658 419L609 538L566 419L212 119Z" />
<glyph unicode="&#xd8;" glyph-name="Oslash" horiz-adv-x="1300" d="M514 -17Q441 -17 380 -2L331 -100H121L212 80L203 88Q146 139 108 209T51 364T32 547T51 750Q69 855 103 952T185 1135T295 1291T432 1411T595 1489T785 1517Q863 1517 929 1499L980 1600H1180L1088
1416Q1150 1364 1191 1291Q1248 1187 1262 1047T1248 750Q1229 645 1196 548T1114 365T1004 209T867 89T703 11T514 -17ZM736 1274Q684 1274 642 1253T567 1195T508 1110T463 1007T429 895T406 783Q395 720 387 655T378 527Q377 470 383 419L808 1260Q778 1274
736 1274ZM892 721Q903 783 911 848T920 974Q922 1026 916 1072L499 236Q526 226 562 226Q639 226 695 273T790 393T853 553T892 721Z" />
<glyph unicode="&#xd9;" glyph-name="Ugrave" horiz-adv-x="1300" d="M1261 1500L1091 534Q1067 395 1012 292T874 120T686 17T453 -17Q317 -17 231 26T100 148T49 337T66 582L186 1263V1500L563 1520L394 564Q380 483 375 419T381 311T425 244T516 221Q607 221
668 294T756 516L929 1500H1261ZM901 1600H686L458 1920L791 1900L901 1600Z" />
<glyph unicode="&#xda;" glyph-name="Uacute" horiz-adv-x="1300" d="M1261 1500L1091 534Q1067 395 1012 292T874 120T686 17T453 -17Q317 -17 231 26T100 148T49 337T66 582L186 1263V1500L563 1520L394 564Q380 483 375 419T381 311T425 244T516 221Q607 221
668 294T756 516L929 1500H1261ZM818 1900L1159 1920L817 1600H602L818 1900Z" />
<glyph unicode="&#xdb;" glyph-name="Ucircumflex" horiz-adv-x="1300" d="M1261 1500L1091 534Q1067 395 1012 292T874 120T686 17T453 -17Q317 -17 231 26T100 148T49 337T66 582L186 1263V1500L563 1520L394 564Q380 483 375 419T381 311T425 244T516 221Q607
221 668 294T756 516L929 1500H1261ZM1135 1620H915L863 1723L856 1850L803 1723L704 1620H465L709 1900L1003 1920L1135 1620Z" />
<glyph unicode="&#xdc;" glyph-name="Udieresis" horiz-adv-x="1300" d="M1261 1500L1091 534Q1067 395 1012 292T874 120T686 17T453 -17Q317 -17 231 26T100 148T49 337T66 582L186 1263V1500L563 1520L394 564Q380 483 375 419T381 311T425 244T516 221Q607
221 668 294T756 516L929 1500H1261ZM486 1866H762L715 1600H439L486 1866ZM886 1866H1162L1115 1600H839L886 1866Z" />
<glyph unicode="&#xdd;" glyph-name="Yacute" horiz-adv-x="1300" d="M487 1143L529 773L652 1143L897 1500H1232L649 650L534 0H183L298 650L19 1500L362 1520L487 1143ZM616 1900L957 1920L615 1600H400L616 1900Z" />
<glyph unicode="&#xde;" glyph-name="Thorn" horiz-adv-x="1300" d="M310 1500H693L659 1311H773Q824 1311 879 1302T987 1273T1085 1219T1160 1138T1203 1027T1201 882Q1191 825 1172 764T1115 643T1018 531T870 438Q842 426 811 416T744 398T665 386T571 381H495L428
0H86L310 1267V1500ZM621 1093L535 605H639Q688 605 728 626T798 684T848 772T879 882Q896 983 850 1038T706 1093H621Z" />
<glyph unicode="&#xdf;" glyph-name="germandbls" horiz-adv-x="1300" d="M417 -17L78 0L266 1073Q284 1176 333 1254T456 1384T623 1463T825 1489Q927 1489 1011 1461T1146 1373Q1189 1322 1208 1266T1216 1127Q1209 1074 1186 1027T1128 939T1048 867T952 811Q1012
790 1061 759T1145 686T1192 590T1194 466Q1179 380 1143 312T1057 192T946 104T818 44T684 11T551 0L509 224Q655 227 745 283T856 457Q866 516 857 558T822 628T756 668T665 681L609 902Q664 907 711 921T793 961T852 1022T885 1107Q891 1142 886 1173T867 1227T832
1263T785 1276Q714 1276 673 1240T617 1119L417 -17Z" />
<glyph unicode="&#xe0;" glyph-name="agrave" horiz-adv-x="1300" d="M840 885Q820 888 803 890T779 893Q704 893 647 862T548 779T483 658T450 510Q444 449 446 395T460 299T491 233T541 209Q575 209 605 220T662 250T709 289T745 329L840 885ZM484 -16Q407 -15
350 8T253 72T188 165T152 280T140 409T148 542Q157 614 181 685T244 820T338 938T463 1032T621 1094T813 1117Q874 1116 936 1108Q990 1101 1053 1086T1174 1043L1031 209L1017 0H695L723 162L568 -10Q557 -12 539 -14T484 -16ZM964 1200H749L521 1520L854 1500L964
1200Z" />
<glyph unicode="&#xe1;" glyph-name="aacute" horiz-adv-x="1300" d="M840 885Q820 888 803 890T779 893Q704 893 647 862T548 779T483 658T450 510Q444 449 446 395T460 299T491 233T541 209Q575 209 605 220T662 250T709 289T745 329L840 885ZM484 -16Q407 -15
350 8T253 72T188 165T152 280T140 409T148 542Q157 614 181 685T244 820T338 938T463 1032T621 1094T813 1117Q874 1116 936 1108Q990 1101 1053 1086T1174 1043L1031 209L1017 0H695L723 162L568 -10Q557 -12 539 -14T484 -16ZM892 1500L1233 1520L891 1200H676L892
1500Z" />
<glyph unicode="&#xe2;" glyph-name="acircumflex" horiz-adv-x="1300" d="M840 885Q820 888 803 890T779 893Q704 893 647 862T548 779T483 658T450 510Q444 449 446 395T460 299T491 233T541 209Q575 209 605 220T662 250T709 289T745 329L840 885ZM484 -16Q407
-15 350 8T253 72T188 165T152 280T140 409T148 542Q157 614 181 685T244 820T338 938T463 1032T621 1094T813 1117Q874 1116 936 1108Q990 1101 1053 1086T1174 1043L1031 209L1017 0H695L723 162L568 -10Q557 -12 539 -14T484 -16ZM1143 1220H923L871 1323L864
1450L811 1323L712 1220H473L717 1500L1011 1520L1143 1220Z" />
<glyph unicode="&#xe3;" glyph-name="atilde" horiz-adv-x="1300" d="M840 885Q820 888 803 890T779 893Q704 893 647 862T548 779T483 658T450 510Q444 449 446 395T460 299T491 233T541 209Q575 209 605 220T662 250T709 289T745 329L840 885ZM484 -16Q407 -15
350 8T253 72T188 165T152 280T140 409T148 542Q157 614 181 685T244 820T338 938T463 1032T621 1094T813 1117Q874 1116 936 1108Q990 1101 1053 1086T1174 1043L1031 209L1017 0H695L723 162L568 -10Q557 -12 539 -14T484 -16ZM400 1247Q411 1287 435 1332T496
1416T583 1479T696 1504Q745 1504 776 1492T832 1464T878 1437T932 1424Q953 1424 968 1431T995 1450T1014 1478T1028 1512L1194 1502Q1183 1458 1161 1412T1104 1327T1020 1265T903 1240Q857 1240 828 1252T775 1280T727 1307T668 1320Q650 1320 637 1313T614
1295T595 1270T581 1240L400 1247Z" />
<glyph unicode="&#xe4;" glyph-name="adieresis" horiz-adv-x="1300" d="M840 885Q820 888 803 890T779 893Q704 893 647 862T548 779T483 658T450 510Q444 449 446 395T460 299T491 233T541 209Q575 209 605 220T662 250T709 289T745 329L840 885ZM484 -16Q407
-15 350 8T253 72T188 165T152 280T140 409T148 542Q157 614 181 685T244 820T338 938T463 1032T621 1094T813 1117Q874 1116 936 1108Q990 1101 1053 1086T1174 1043L1031 209L1017 0H695L723 162L568 -10Q557 -12 539 -14T484 -16ZM547 1566H823L776 1300H500L547
1566ZM947 1566H1223L1176 1300H900L947 1566Z" />
<glyph unicode="&#xe5;" glyph-name="aring" horiz-adv-x="1300" d="M900 1682Q959 1682 1007 1660T1086 1599T1131 1508T1134 1397Q1123 1338 1092 1286T1016 1194T915 1131Q890 1120 865 1115Q900 1112 936 1108Q990 1101 1053 1086T1174 1043L1031 209L1017
0H695L723 162L568 -10Q557 -12 539 -14T484 -16Q407 -15 350 8T253 72T188 165T152 280T140 409T148 542Q157 614 181 685T244 820T338 938T463 1032T621 1094Q678 1109 741 1114Q716 1120 693 1131Q645 1154 613 1193T567 1285T564 1397Q574 1456 606 1508T683
1598T785 1659T900 1682ZM840 885Q820 888 803 890T779 893Q704 893 647 862T548 779T483 658T450 510Q444 449 446 395T460 299T491 233T541 209Q575 209 605 220T662 250T709 289T745 329L840 885ZM833 1297Q853 1297 872 1305T906 1326T932 1358T947 1396Q950
1416 946 1433T931 1464T904 1485T867 1493Q847 1493 828 1486T794 1465T767 1434T753 1396Q749 1376 753 1358T769 1327T796 1305T833 1297Z" />
<glyph unicode="&#xe6;" glyph-name="ae" horiz-adv-x="1300" d="M577 87Q531 42 462 13T297 -17Q121 -17 50 79T11 358Q44 550 145 643T410 736H447Q464 736 480 734Q486 771 490 800T492 849T480 881T446 892Q408 892 374 884T311 864Q278 852 250 836L183 1025Q232
1051 292 1071Q343 1088 411 1102T561 1117Q624 1117 669 1098T742 1051Q794 1084 856 1100T985 1117Q1051 1117 1108 1101T1207 1050T1274 959T1299 826Q1299 735 1274 646T1210 466H785Q783 455 781 444T777 421Q768 369 769 322Q769 266 799 235T888 200Q940
202 980 231T1055 299L1197 161L1155 118Q1113 78 1074 52T995 11T911 -11T816 -17Q790 -17 759 -11T695 9T632 41T577 87ZM733 681H1043L1058 768Q1061 786 1060 807T1049 847T1020 879T970 892Q940 892 917 879T876 848T847 808T828 768L733 681ZM441 513H432Q407
513 377 505T320 478T271 431T242 359Q229 288 247 248T309 208Q336 208 353 221T382 251Q394 269 402 294L441 513Z" />
<glyph unicode="&#xe7;" glyph-name="ccedilla" horiz-adv-x="1300" d="M1006 772Q969 833 915 859T784 885Q723 885 663 862T552 795T465 691T415 553Q403 484 419 426T472 325T560 260T670 236Q722 236 766 245T847 271T913 309T964 353L1050 137Q1029 121 989
95T892 44T759 1Q733 -5 706 -9Q723 -26 737 -46Q752 -69 761 -100T764 -171Q755 -221 724 -264T648 -338T548 -388T435 -407Q375 -407 321 -389T222 -349Q171 -323 126 -290L269 -131Q298 -151 327 -166Q351 -179 378 -189T428 -200Q451 -200 473 -188T501 -147Q505
-126 497 -103T477 -58T452 -22T433 0H443Q399 11 359 29Q259 75 196 153T109 336T105 555Q117 624 141 693T205 824T299 940T426 1033T591 1094T796 1117Q930 1117 1033 1080T1200 957L1006 772Z" />
<glyph unicode="&#xe8;" glyph-name="egrave" horiz-adv-x="1300" d="M1078 158Q1032 121 980 90T868 35T738 -2T586 -16Q442 -16 341 31T179 156T100 337T100 550Q112 621 138 690T203 823T297 939T419 1032T571 1094T752 1117Q872 1117 960 1082T1101 982T1173
829T1173 632Q1168 605 1157 561T1132 466H395Q387 412 393 365T428 284T508 230T644 210Q696 210 736 221T808 248T862 281T901 310L1078 158ZM886 672Q894 718 888 759T861 831T805 881T718 900Q667 900 630 885T565 848T519 800T490 756L381 653L557 671L886
672ZM901 1200H686L458 1520L791 1500L901 1200Z" />
<glyph unicode="&#xe9;" glyph-name="eacute" horiz-adv-x="1300" d="M1078 158Q1032 121 980 90T868 35T738 -2T586 -16Q442 -16 341 31T179 156T100 337T100 550Q112 621 138 690T203 823T297 939T419 1032T571 1094T752 1117Q872 1117 960 1082T1101 982T1173
829T1173 632Q1168 605 1157 561T1132 466H395Q387 412 393 365T428 284T508 230T644 210Q696 210 736 221T808 248T862 281T901 310L1078 158ZM886 672Q894 718 888 759T861 831T805 881T718 900Q667 900 630 885T565 848T519 800T490 756L381 653L557 671L886
672ZM818 1500L1159 1520L817 1200H602L818 1500Z" />
<glyph unicode="&#xea;" glyph-name="ecircumflex" horiz-adv-x="1300" d="M1078 158Q1032 121 980 90T868 35T738 -2T586 -16Q442 -16 341 31T179 156T100 337T100 550Q112 621 138 690T203 823T297 939T419 1032T571 1094T752 1117Q872 1117 960 1082T1101 982T1173
829T1173 632Q1168 605 1157 561T1132 466H395Q387 412 393 365T428 284T508 230T644 210Q696 210 736 221T808 248T862 281T901 310L1078 158ZM886 672Q894 718 888 759T861 831T805 881T718 900Q667 900 630 885T565 848T519 800T490 756L381 653L557 671L886
672ZM1135 1220H915L863 1323L856 1450L803 1323L704 1220H465L709 1500L1003 1520L1135 1220Z" />
<glyph unicode="&#xeb;" glyph-name="edieresis" horiz-adv-x="1300" d="M1078 158Q1032 121 980 90T868 35T738 -2T586 -16Q442 -16 341 31T179 156T100 337T100 550Q112 621 138 690T203 823T297 939T419 1032T571 1094T752 1117Q872 1117 960 1082T1101 982T1173
829T1173 632Q1168 605 1157 561T1132 466H395Q387 412 393 365T428 284T508 230T644 210Q696 210 736 221T808 248T862 281T901 310L1078 158ZM886 672Q894 718 888 759T861 831T805 881T718 900Q667 900 630 885T565 848T519 800T490 756L381 653L557 671L886
672ZM535 1566H811L764 1300H488L535 1566ZM935 1566H1211L1164 1300H888L935 1566Z" />
<glyph unicode="&#xec;" glyph-name="igrave" horiz-adv-x="1300" d="M515 834L606 896L510 876H247V1100H889L770 423Q762 382 766 348T784 289T820 250T873 236Q906 236 935 241T993 258T1049 287T1107 330L1125 98Q1110 87 1085 68T1023 30T933 -3T809 -17Q694
-17 617 19T496 116T440 259T444 432L515 834ZM891 1200H676L448 1520L781 1500L891 1200Z" />
<glyph unicode="&#xed;" glyph-name="iacute" horiz-adv-x="1300" d="M515 834L606 896L510 876H247V1100H889L770 423Q762 382 766 348T784 289T820 250T873 236Q906 236 935 241T993 258T1049 287T1107 330L1125 98Q1110 87 1085 68T1023 30T933 -3T809 -17Q694
-17 617 19T496 116T440 259T444 432L515 834ZM762 1500L1103 1520L761 1200H546L762 1500Z" />
<glyph unicode="&#xee;" glyph-name="icircumflex" horiz-adv-x="1300" d="M515 834L606 896L510 876H247V1100H889L770 423Q762 382 766 348T784 289T820 250T873 236Q906 236 935 241T993 258T1049 287T1107 330L1125 98Q1110 87 1085 68T1023 30T933 -3T809
-17Q694 -17 617 19T496 116T440 259T444 432L515 834ZM1094 1220H874L822 1323L815 1450L762 1323L663 1220H424L668 1500L962 1520L1094 1220Z" />
<glyph unicode="&#xef;" glyph-name="idieresis" horiz-adv-x="1300" d="M515 834L606 896L510 876H247V1100H889L770 423Q762 382 766 348T784 289T820 250T873 236Q906 236 935 241T993 258T1049 287T1107 330L1125 98Q1110 87 1085 68T1023 30T933 -3T809 -17Q694
-17 617 19T496 116T440 259T444 432L515 834ZM485 1566H761L714 1300H438L485 1566ZM885 1566H1161L1114 1300H838L885 1566Z" />
<glyph unicode="&#xf0;" glyph-name="eth" horiz-adv-x="1300" d="M496 1154L727 1320L579 1296Q537 1310 502 1310Q475 1310 450 1308T401 1300V1508Q434 1511 456 1513T494 1516T520 1517H540Q640 1517 723 1495T876 1433L1048 1561L1158 1395L946 1239H1074Q1115
1177 1140 1103T1177 948T1187 782T1169 612Q1160 558 1138 491T1080 354T993 218T874 99T719 15T527 -17Q409 -17 324 18T188 118T121 273T124 472Q144 584 192 671T311 816T473 905T673 936Q721 936 768 929T861 904Q862 929 859 958T846 1018T824 1076T792 1126L610
993L496 1154ZM844 596Q830 616 813 637T772 674T719 701T648 712Q602 712 565 692T498 638T450 556T421 455Q411 401 417 356T443 278T494 227T566 208Q605 208 640 225T706 272T760 341T801 426Q818 469 827 510T844 596Z" />
<glyph unicode="&#xf1;" glyph-name="ntilde" horiz-adv-x="1300" d="M411 0H94L288 1100L608 1120L587 1000L682 1100Q721 1110 765 1113T868 1117Q959 1117 1027 1090T1137 1014T1193 894T1192 736L1063 0H746L875 736Q882 777 876 806T852 855T811 883T758
892Q695 892 648 872T553 808L411 0ZM403 1247Q414 1287 438 1332T499 1416T586 1479T699 1504Q748 1504 779 1492T835 1464T881 1437T935 1424Q956 1424 971 1431T998 1450T1017 1478T1031 1512L1197 1502Q1186 1458 1164 1412T1107 1327T1023 1265T906 1240Q860
1240 831 1252T778 1280T730 1307T671 1320Q653 1320 640 1313T617 1295T598 1270T584 1240L403 1247Z" />
<glyph unicode="&#xf2;" glyph-name="ograve" horiz-adv-x="1300" d="M556 -17Q436 -17 344 26T193 146T112 327T111 553Q132 674 189 777T332 956T525 1074T757 1117Q877 1117 968 1075T1117 957T1194 778T1194 553Q1173 431 1117 327T978 147T787 27T556 -17ZM863
528Q875 596 875 662T859 780T807 865T713 897Q657 897 612 870T533 796T475 692T441 571Q429 502 430 436T449 319T503 235T599 203Q653 203 697 230T774 304T830 408T863 528ZM901 1200H686L458 1520L791 1500L901 1200Z" />
<glyph unicode="&#xf3;" glyph-name="oacute" horiz-adv-x="1300" d="M556 -17Q436 -17 344 26T193 146T112 327T111 553Q132 674 189 777T332 956T525 1074T757 1117Q877 1117 968 1075T1117 957T1194 778T1194 553Q1173 431 1117 327T978 147T787 27T556 -17ZM863
528Q875 596 875 662T859 780T807 865T713 897Q657 897 612 870T533 796T475 692T441 571Q429 502 430 436T449 319T503 235T599 203Q653 203 697 230T774 304T830 408T863 528ZM915 1500L1256 1520L914 1200H699L915 1500Z" />
<glyph unicode="&#xf4;" glyph-name="ocircumflex" horiz-adv-x="1300" d="M556 -17Q436 -17 344 26T193 146T112 327T111 553Q132 674 189 777T332 956T525 1074T757 1117Q877 1117 968 1075T1117 957T1194 778T1194 553Q1173 431 1117 327T978 147T787 27T556
-17ZM863 528Q875 596 875 662T859 780T807 865T713 897Q657 897 612 870T533 796T475 692T441 571Q429 502 430 436T449 319T503 235T599 203Q653 203 697 230T774 304T830 408T863 528ZM1132 1220H912L860 1323L853 1450L800 1323L701 1220H462L706 1500L1000
1520L1132 1220Z" />
<glyph unicode="&#xf5;" glyph-name="otilde" horiz-adv-x="1300" d="M556 -17Q436 -17 344 26T193 146T112 327T111 553Q132 674 189 777T332 956T525 1074T757 1117Q877 1117 968 1075T1117 957T1194 778T1194 553Q1173 431 1117 327T978 147T787 27T556 -17ZM863
528Q875 596 875 662T859 780T807 865T713 897Q657 897 612 870T533 796T475 692T441 571Q429 502 430 436T449 319T503 235T599 203Q653 203 697 230T774 304T830 408T863 528ZM435 1247Q446 1287 470 1332T531 1416T618 1479T731 1504Q780 1504 811 1492T867
1464T913 1437T967 1424Q988 1424 1003 1431T1030 1450T1049 1478T1063 1512L1229 1502Q1218 1458 1196 1412T1139 1327T1055 1265T938 1240Q892 1240 863 1252T810 1280T762 1307T703 1320Q685 1320 672 1313T649 1295T630 1270T616 1240L435 1247Z" />
<glyph unicode="&#xf6;" glyph-name="odieresis" horiz-adv-x="1300" d="M556 -17Q436 -17 344 26T193 146T112 327T111 553Q132 674 189 777T332 956T525 1074T757 1117Q877 1117 968 1075T1117 957T1194 778T1194 553Q1173 431 1117 327T978 147T787 27T556
-17ZM863 528Q875 596 875 662T859 780T807 865T713 897Q657 897 612 870T533 796T475 692T441 571Q429 502 430 436T449 319T503 235T599 203Q653 203 697 230T774 304T830 408T863 528ZM505 1566H781L734 1300H458L505 1566ZM905 1566H1181L1134 1300H858L905
1566Z" />
<glyph unicode="&#xf7;" glyph-name="divide" horiz-adv-x="1300" d="M451 287Q456 316 471 341T510 386T560 417T616 428Q645 428 668 417T707 387T729 342T731 287Q726 259 711 233T673 188T624 156T567 144Q539 144 515 156T475 187T453 233T451 287ZM566 940Q571
969 586 994T625 1039T675 1070T731 1081Q760 1081 783 1070T822 1040T844 995T846 940Q841 912 826 886T788 841T739 809T682 797Q654 797 630 809T590 840T568 886T566 940ZM219 724H1119L1080 500H180L219 724Z" />
<glyph unicode="&#xf8;" glyph-name="oslash" horiz-adv-x="1300" d="M551 -17Q445 -17 360 17L269 -100H10L195 136Q191 141 187 146Q129 223 107 327T106 553Q127 674 184 777T327 956T520 1074T752 1117Q858 1117 941 1084L1040 1209H1290L1102 968Q1107 962
1112 956Q1169 881 1189 778T1189 553Q1168 431 1112 327T973 147T782 27T551 -17ZM708 897Q652 897 607 870T528 796T470 692T436 571Q424 502 425 436V427L781 879Q751 897 708 897ZM858 528Q870 596 870 662V671L518 220Q550 203 594 203Q648 203 692 230T769
304T825 408T858 528Z" />
<glyph unicode="&#xf9;" glyph-name="ugrave" horiz-adv-x="1300" d="M891 1100L1212 1120L1014 0H697L715 100L616 0Q587 -8 557 -12T492 -17Q358 -17 275 21T148 122T97 268T103 438L220 1100L540 1120L419 438Q410 386 411 345T428 274T476 229T559 213Q592
213 622 223T676 249T720 283T753 318L891 1100ZM899 1200H684L456 1520L789 1500L899 1200Z" />
<glyph unicode="&#xfa;" glyph-name="uacute" horiz-adv-x="1300" d="M891 1100L1212 1120L1014 0H697L715 100L616 0Q587 -8 557 -12T492 -17Q358 -17 275 21T148 122T97 268T103 438L220 1100L540 1120L419 438Q410 386 411 345T428 274T476 229T559 213Q592
213 622 223T676 249T720 283T753 318L891 1100ZM816 1500L1157 1520L815 1200H600L816 1500Z" />
<glyph unicode="&#xfb;" glyph-name="ucircumflex" horiz-adv-x="1300" d="M891 1100L1212 1120L1014 0H697L715 100L616 0Q587 -8 557 -12T492 -17Q358 -17 275 21T148 122T97 268T103 438L220 1100L540 1120L419 438Q410 386 411 345T428 274T476 229T559 213Q592
213 622 223T676 249T720 283T753 318L891 1100ZM1087 1220H867L815 1323L808 1450L755 1323L656 1220H417L661 1500L955 1520L1087 1220Z" />
<glyph unicode="&#xfc;" glyph-name="udieresis" horiz-adv-x="1300" d="M891 1100L1212 1120L1014 0H697L715 100L616 0Q587 -8 557 -12T492 -17Q358 -17 275 21T148 122T97 268T103 438L220 1100L540 1120L419 438Q410 386 411 345T428 274T476 229T559 213Q592
213 622 223T676 249T720 283T753 318L891 1100ZM473 1566H749L702 1300H426L473 1566ZM873 1566H1149L1102 1300H826L873 1566Z" />
<glyph unicode="&#xfd;" glyph-name="yacute" horiz-adv-x="1300" d="M601 670L605 200L747 670L986 1100L1319 1120L715 8Q670 -75 622 -161T515 -319T382 -435T210 -480Q143 -480 88 -452T-17 -374L138 -194Q158 -209 182 -221T233 -234Q277 -234 319 -185T415
-47L198 1100L517 1120L601 670ZM815 1500L1156 1520L814 1200H599L815 1500Z" />
<glyph unicode="&#xfe;" glyph-name="thorn" horiz-adv-x="1300" d="M935 528Q947 596 947 662T929 780T877 865T782 897Q727 897 682 870T604 796T548 692T514 571Q502 502 502 436T520 319T572 235T666 203Q721 203 766 230T845 304T901 408T935 528ZM697 1520L641
1201L529 1030L724 1109Q749 1113 773 1115T824 1117Q944 1117 1036 1075T1186 957T1265 778T1266 553Q1245 431 1188 327T1047 147T856 27T624 -17Q598 -17 574 -15T527 -9L361 75L412 -99L362 -380H21L353 1500L697 1520Z" />
<glyph unicode="&#xff;" glyph-name="ydieresis" horiz-adv-x="1300" d="M601 670L605 200L747 670L986 1100L1319 1120L715 8Q670 -75 622 -161T515 -319T382 -435T210 -480Q143 -480 88 -452T-17 -374L138 -194Q158 -209 182 -221T233 -234Q277 -234 319 -185T415
-47L198 1100L517 1120L601 670ZM546 1566H822L775 1300H499L546 1566ZM946 1566H1222L1175 1300H899L946 1566Z" />
<glyph unicode="&#x2013;" glyph-name="endash" horiz-adv-x="1300" d="M319 624H1019L980 400H280L319 624Z" />
<glyph unicode="&#x2014;" glyph-name="emdash" horiz-adv-x="1300" d="M39 624H1299L1260 400H1L39 624Z" />
<glyph unicode="&#x2018;" glyph-name="quoteleft" horiz-adv-x="1300" d="M375 1079Q369 1048 353 1020T312 971T256 938T190 925Q156 925 128 937T82 971T55 1020T53 1079Q59 1115 74 1159T117 1253T192 1356T308 1466L400 1408Q386 1390 371 1367T341 1319T316
1267T296 1217Q314 1209 331 1198T359 1171T376 1133T375 1079Z" />
<glyph unicode="&#x2019;" glyph-name="quoteright" horiz-adv-x="1300" d="M653 1520L1019 1500L540 1144H233L653 1520Z" />
<glyph unicode="&#x201a;" glyph-name="quotesinglbase" horiz-adv-x="1300" d="M225 121Q231 152 247 180T288 229T344 262T410 275Q444 275 472 263T518 229T545 180T547 121Q541 85 526 41T483 -53T408 -156T292 -266L200 -208Q214 -190 229 -167T259 -119T284
-67T304 -17Q286 -9 269 2T241 29T224 67T225 121Z" />
<glyph unicode="&#x201c;" glyph-name="quotedblleft" horiz-adv-x="1300" d="M375 1079Q369 1048 353 1020T312 971T256 938T190 925Q156 925 128 937T82 971T55 1020T53 1079Q59 1115 74 1159T117 1253T192 1356T308 1466L400 1408Q386 1390 371 1367T341 1319T316
1267T296 1217Q314 1209 331 1198T359 1171T376 1133T375 1079ZM775 1079Q769 1048 753 1020T712 971T656 938T590 925Q556 925 528 937T482 971T455 1020T453 1079Q459 1115 474 1159T517 1253T592 1356T708 1466L800 1408Q786 1390 771 1367T741 1319T716 1267T696
1217Q714 1209 731 1198T759 1171T776 1133T775 1079Z" />
<glyph unicode="&#x201d;" glyph-name="quotedblright" horiz-adv-x="1300" d="M225 1321Q231 1352 247 1380T288 1429T344 1462T410 1475Q444 1475 472 1463T518 1429T545 1380T547 1321Q541 1285 526 1241T483 1147T408 1044T292 934L200 992Q214 1010 229 1033T259
1081T284 1133T304 1183Q286 1191 269 1202T241 1229T224 1267T225 1321ZM625 1321Q631 1352 647 1380T688 1429T744 1462T810 1475Q844 1475 872 1463T918 1429T945 1380T947 1321Q941 1285 926 1241T883 1147T808 1044T692 934L600 992Q614 1010 629 1033T659
1081T684 1133T704 1183Q686 1191 669 1202T641 1229T624 1267T625 1321Z" />
<glyph unicode="&#x201e;" glyph-name="quotedblbase" horiz-adv-x="1300" d="M225 121Q231 152 247 180T288 229T344 262T410 275Q444 275 472 263T518 229T545 180T547 121Q541 85 526 41T483 -53T408 -156T292 -266L200 -208Q214 -190 229 -167T259 -119T284
-67T304 -17Q286 -9 269 2T241 29T224 67T225 121ZM625 121Q631 152 647 180T688 229T744 262T810 275Q844 275 872 263T918 229T945 180T947 121Q941 85 926 41T883 -53T808 -156T692 -266L600 -208Q614 -190 629 -167T659 -119T684 -67T704 -17Q686 -9 669 2T641
29T624 67T625 121Z" />
<glyph unicode="&#x2022;" glyph-name="bullet" horiz-adv-x="1300" d="M398 807Q398 867 421 920T485 1013T578 1076T692 1100Q752 1100 805 1077T899 1014T962 921T986 807Q986 747 963 693T901 597T808 532T695 508Q635 508 581 532T487 597T422 692T398 807Z" />
<glyph unicode="&#x2039;" glyph-name="guilsinglleft" horiz-adv-x="1300" d="M960 1106L1009 880L626 583L544 550L613 517L896 224L760 -13L291 476L316 620L960 1106Z" />
<glyph unicode="&#x203a;" glyph-name="guilsinglright" horiz-adv-x="1300" d="M989 619L964 476L322 -13L270 224L655 517L735 550L666 582L387 880L516 1106L989 619Z" />
</font>
</defs>
</svg>
