<?xml version="1.0" standalone="no"?>
<!DOCTYPE svg PUBLIC "-//W3C//DTD SVG 1.1//EN" "http://www.w3.org/Graphics/SVG/1.1/DTD/svg11.dtd">
<svg xmlns="http://www.w3.org/2000/svg">
<defs >
<font id="B612Mono" horiz-adv-x="1416" ><font-face
    font-family="B612 Mono"
    units-per-em="2000"
    panose-1="2 11 6 9 5 0 0 2 0 4"
    ascent="1930"
    descent="-500"
    alphabetic="0" />
<glyph unicode=" " glyph-name="space" horiz-adv-x="1300" />
<glyph unicode="!" glyph-name="exclam" horiz-adv-x="1300" d="M664 1500L479 450L275 429L464 1500H664ZM196 106Q196 136 209 160T243 200T289 223T339 227Q363 223 381 211T411 182T430 145T438 106Q439 76 428 52T397 11T351 -13T297 -17Q250 -11 223 22T196 106Z" />
<glyph unicode="&quot;" glyph-name="quotedbl" horiz-adv-x="1300" d="M589 1500L571 1400Q565 1362 548 1306T513 1196Q492 1134 469 1067H382Q381 1134 382 1196Q384 1250 387 1306T396 1400L414 1500H589ZM890 1500L872 1400Q866 1362 849 1306T814 1196Q793
1134 770 1067H683Q682 1134 683 1196Q685 1250 688 1306T697 1400L715 1500H890Z" />
<glyph unicode="#" glyph-name="numbersign" horiz-adv-x="1300" d="M1038 950L917 550H1189L1143 400H874L753 0L549 -20L677 400H404L285 0L82 -20L207 400H39V550H250L372 950H110L156 1100H415L472 1285L510 1500L739 1520L612 1100H885L1004 1500L1208 1520L1083
1100H1260V950H1038ZM840 950H569L449 550H720L840 950Z" />
<glyph unicode="$" glyph-name="dollar" horiz-adv-x="1300" d="M1090 1252Q1036 1295 985 1319T875 1348L785 836Q839 807 890 773T982 692T1048 582T1073 432Q1073 340 1039 265T945 133T806 40T635 -10L602 -199H456L488 -17H477Q359 -9 265 33T100 134L218
284Q242 262 271 240T334 199T407 167T492 148Q498 147 504 147T517 146L616 707Q559 738 503 773T403 856T331 967T303 1116Q303 1207 340 1277T439 1397T584 1476T758 1513L791 1701L941 1721L904 1512Q953 1505 997 1491T1079 1457T1148 1416T1206 1371L1090
1252ZM679 896L758 1342Q706 1332 660 1311T579 1259T524 1188T506 1101Q507 1063 520 1034T557 979T611 933T677 893L679 896ZM869 433Q869 470 858 500T826 556T779 604T721 646L635 157Q680 168 722 190T797 246T849 326T869 433Z" />
<glyph unicode="%" glyph-name="percent" horiz-adv-x="1300" d="M272 0H86L1027 1500H1213L272 0ZM327 800Q257 800 213 827T146 903T121 1018T132 1162Q145 1238 170 1303T234 1416T327 1490T454 1517Q524 1517 568 1490T634 1416T659 1304T649 1162Q635 1085
610 1019T546 904T453 828T327 800ZM509 1210Q515 1245 517 1277T514 1333T488 1371T430 1386Q393 1386 370 1373T332 1338T309 1287T295 1224L277 1123Q271 1087 268 1055T272 998T299 959T357 944Q393 944 416 957T454 992T476 1043T490 1105L509 1210ZM846 -17Q776
-17 732 10T665 86T640 201T651 345Q664 421 689 486T753 599T846 673T973 700Q1043 700 1087 673T1153 599T1178 487T1168 345Q1154 268 1129 202T1065 87T972 11T846 -17ZM1028 393Q1034 428 1036 460T1033 516T1007 554T949 569Q912 569 889 556T851 521T828
470T814 407L796 306Q790 270 787 238T791 181T818 142T876 127Q912 127 935 140T973 175T995 226T1009 288L1028 393Z" />
<glyph unicode="&amp;" glyph-name="ampersand" horiz-adv-x="1300" d="M1221 721Q1207 642 1186 563T1130 408T1045 265T925 141H1017L1109 -20H887L828 77Q743 27 652 5T464 -17Q361 -17 285 20T161 122T97 270T96 447Q113 542 151 615T239 742T341 830T442
881Q428 909 415 945T393 1021T382 1100T385 1176Q398 1248 428 1310T510 1418T633 1490T802 1517Q868 1517 917 1500T1003 1456T1066 1398T1110 1338L1006 1200Q995 1226 977 1254T931 1305T862 1344T766 1359Q718 1359 683 1340T622 1293T583 1233T564 1175Q562
1161 562 1146T563 1112Q564 1097 571 1074T594 1014T633 921T693 786T776 599T886 352Q916 386 937 423T973 502T1000 592T1023 700L1221 721ZM466 700Q398 671 351 612T287 457Q274 385 290 331T341 241T423 188T520 170Q563 170 596 175T657 188T705 208T746
234L484 800L466 700Z" />
<glyph unicode="&apos;" glyph-name="quotesingle" horiz-adv-x="1300" d="M414 1500H589L571 1400Q558 1326 508 1241T372 1067H328Q343 1143 358 1209Q364 1237 369 1266T380 1320T390 1367T396 1400L414 1500Z" />
<glyph unicode="(" glyph-name="parenleft" horiz-adv-x="1300" d="M408 1180Q429 1300 453 1381T516 1510T616 1579T776 1600Q795 1600 815 1599T854 1594T887 1586T910 1575L819 1449L805 1451Q799 1452 790 1453T770 1454Q715 1454 686 1433T642 1376T620 1293T604
1194L391 -14Q382 -66 373 -113T367 -195T391 -252T465 -274Q476 -274 485 -274T502 -272L516 -269L563 -395Q552 -401 536 -406T500 -415T459 -420T419 -420Q350 -415 305 -396T232 -347T194 -278T181 -193T185 -99T200 0L408 1180Z" />
<glyph unicode=")" glyph-name="parenright" horiz-adv-x="1300" d="M650 0Q638 -67 628 -124T602 -229T563 -312T502 -372T411 -408T281 -420Q261 -420 241 -418T203 -413T170 -406T147 -395L238 -269L252 -272Q258 -273 267 -273T287 -274Q338 -274 367 -253T412
-196T436 -113T453 -14L666 1194Q675 1246 681 1292T683 1374T658 1430T592 1454Q581 1455 572 1454T555 1451L541 1449L494 1575Q504 1581 520 1585T556 1593T597 1598T638 1600Q731 1600 783 1567T856 1476T876 1342T858 1180L650 0Z" />
<glyph unicode="*" glyph-name="asterisk" horiz-adv-x="1300" d="M706 994L812 802L697 712L584 918L573 990L536 918L363 726L258 793L442 996L515 1041L435 1045L225 1118L275 1249L499 1172L556 1120L548 1202L590 1436L725 1450L681 1198L641 1118L715 1168L953
1240L986 1118L730 1040L650 1037L706 994Z" />
<glyph unicode="+" glyph-name="plus" horiz-adv-x="1300" d="M223 700H596L671 1123H826L751 700H1123L1096 545H724L649 122H494L569 545H196L223 700Z" />
<glyph unicode="," glyph-name="comma" horiz-adv-x="1300" d="M127 127Q132 156 148 182T188 228T241 259T300 271Q329 271 354 261T396 230T420 180T420 110Q411 57 396 8T351 -93T274 -197T155 -307L107 -284Q137 -240 164 -193Q186 -154 206 -108T235 -17Q210
-16 188 -6T150 21T128 66T127 127Z" />
<glyph unicode="-" glyph-name="hyphen" horiz-adv-x="1300" d="M300 600H800L773 445H273L300 600Z" />
<glyph unicode="." glyph-name="period" horiz-adv-x="1300" d="M107 150Q113 184 131 214T175 266T234 302T300 315Q334 315 361 302T407 267T434 214T436 150Q430 116 412 86T367 33T309 -3T243 -17Q209 -17 181 -4T135 32T109 85T107 150Z" />
<glyph unicode="/" glyph-name="slash" horiz-adv-x="1300" d="M257 -100H47L1057 1600H1257L257 -100Z" />
<glyph unicode="0" glyph-name="zero" horiz-adv-x="1300" d="M509 -17Q424 -7 362 29T257 122T187 250T148 403T135 573T142 750Q150 841 175 936T240 1119T335 1284T458 1416T606 1498T779 1517Q862 1508 924 1473T1030 1381T1102 1252T1142 1097T1156 926T1146
750Q1135 658 1109 563T1041 379T944 213T821 81T676 -1T509 -17ZM348 793Q340 735 333 668T326 532T334 399T368 284T436 199T547 158Q605 152 655 173T748 234T823 329T881 448T919 577T939 707Q943 765 948 833T954 969T946 1102T914 1217T848 1301T740 1341Q679
1347 629 1327T539 1266T466 1171T411 1052T373 923T348 793Z" />
<glyph unicode="1" glyph-name="one" horiz-adv-x="1300" d="M268 0L296 160H541L711 1126L809 1353L640 1167L395 979L308 1100L841 1520L977 1500L741 160H986L958 0H268Z" />
<glyph unicode="2" glyph-name="two" horiz-adv-x="1300" d="M71 0L100 168Q169 266 240 347T384 497T527 625T665 739Q725 787 779 833T874 926T939 1021T963 1123Q963 1177 949 1220T904 1292T822 1336T699 1352Q651 1352 611 1336T536 1292T475 1231T426 1160L296
1220Q362 1362 480 1439T752 1517H771Q781 1517 791 1516Q882 1510 948 1475T1058 1386T1123 1265T1144 1128Q1144 1122 1144 1116T1143 1104Q1139 1025 1102 957T1010 827T893 712T772 607Q700 542 636 485T516 374T414 268T333 160H1003L975 0H71Z" />
<glyph unicode="3" glyph-name="three" horiz-adv-x="1300" d="M371 1340L414 1500H1144L1119 1360Q1100 1320 1064 1277T982 1189T882 1102T776 1019L631 948H702Q769 948 834 923T952 852T1036 741T1068 597Q1068 485 1028 397T918 243T755 130T557 55T340 13T120
0L148 160Q227 161 310 173T473 207T623 262T747 337T832 430T863 543Q863 606 840 653T775 730T675 776T546 791Q501 791 458 790T373 786L400 940Q446 970 501 1008T613 1087T724 1171T824 1252T902 1324T946 1380L787 1340H371Z" />
<glyph unicode="4" glyph-name="four" horiz-adv-x="1300" d="M1107 300H927L875 0H675L727 300H132L163 471L832 1520L1017 1500L443 600L326 460H756L827 867L1024 850L956 460H1151L1107 300Z" />
<glyph unicode="5" glyph-name="five" horiz-adv-x="1300" d="M492 982L518 995Q536 1004 560 1013T611 1028T666 1035Q769 1035 843 1006T966 926T1037 806T1060 655Q1060 539 1023 446T920 280T765 154T571 67T352 17T121 0L149 160Q245 160 335 175T504 219T649
287T762 378T835 489T861 619Q861 668 844 712T795 791T718 845T618 866Q536 866 480 849T376 800H262L385 1500H1128L1100 1340H555L492 982Z" />
<glyph unicode="6" glyph-name="six" horiz-adv-x="1300" d="M1065 1344Q1059 1346 1046 1346T1021 1347Q933 1347 856 1325T711 1261T588 1163T486 1038T406 891T348 730L452 847Q478 862 511 876T580 902T652 921T722 928Q808 928 879 906T1002 837T1081 717T1110
541Q1110 429 1067 328T950 149T777 27T565 -19Q554 -19 544 -19T523 -17Q445 -11 386 16T283 85T212 180T166 293T142 412T135 530Q135 658 166 781T256 1013T398 1215T584 1375T807 1479T1060 1517Q1075 1517 1093 1517T1120 1514L1065 1344ZM328 597Q321 559
320 529T319 469Q319 406 334 352T379 257T453 188T555 153Q576 150 596 150Q659 150 716 178T816 258T885 378T911 530Q911 590 890 633T832 704T749 745T651 759Q553 759 471 719T328 597Z" />
<glyph unicode="7" glyph-name="seven" horiz-adv-x="1300" d="M264 1500H1157L1134 1370Q1126 1328 1083 1266T975 1125T835 954T688 759T558 549T469 329Q458 288 448 244T428 158T412 75T398 0H200Q205 30 215 80T237 186T264 297T291 392Q326 501 382 605T503
805T636 985T762 1138T861 1258T915 1340H236L264 1500Z" />
<glyph unicode="8" glyph-name="eight" horiz-adv-x="1300" d="M798 1517Q879 1514 944 1492T1055 1429T1125 1331T1150 1199Q1150 1127 1129 1074T1071 979T987 906T886 846Q939 823 981 780T1054 683T1100 570T1117 458Q1117 328 1074 238T957 91T787 9T583
-17Q489 -17 407 5T263 75T166 195T130 368Q130 457 158 531T235 666T352 771T498 850Q424 903 379 976T334 1132Q334 1201 352 1256T401 1354T475 1427T567 1478T669 1507T776 1517H798ZM654 760Q586 733 526 701T419 628T345 535T318 414Q318 345 340 295T400
211T491 161T602 145Q661 145 719 164T823 219T898 304T927 415Q927 485 905 538T846 632T759 703T654 760ZM723 923Q773 944 817 968T895 1021T947 1085T967 1163Q967 1218 949 1256T901 1318T835 1352T763 1363Q720 1363 677 1347T600 1303T545 1240T523 1167Q523
1120 537 1085T578 1021T642 969T723 923Z" />
<glyph unicode="9" glyph-name="nine" horiz-adv-x="1300" d="M814 663Q782 641 752 624T691 596T628 579T560 573Q472 573 400 602T277 686T198 823T170 1008Q170 1120 211 1213T322 1374T484 1479T680 1517Q770 1517 838 1497T955 1440T1038 1356T1090 1251T1118
1134T1126 1011Q1126 869 1095 738T1005 493T864 284T678 124T455 20T200 -17V150Q325 153 443 198T659 326T824 523T915 780L814 663ZM934 953Q935 966 935 978V1004Q935 1076 923 1139T881 1248T802 1322T679 1349Q604 1349 545 1321T446 1243T385 1129T364 990Q364
934 379 888T426 810T504 759T616 741Q665 741 712 757T802 801T878 868T934 953Z" />
<glyph unicode=":" glyph-name="colon" horiz-adv-x="1300" d="M135 133Q141 164 157 191T197 238T249 269T309 281Q340 281 365 270T406 238T430 191T431 133Q426 102 410 75T370 27T318 -5T259 -17Q228 -17 203 -5T161 27T137 74T135 133ZM226 647Q231 678 248
705T288 752T340 783T400 795Q431 795 456 784T497 752T520 705T522 647Q517 616 501 589T461 541T409 509T350 497Q319 497 294 509T252 541T228 588T226 647Z" />
<glyph unicode=";" glyph-name="semicolon" horiz-adv-x="1300" d="M226 641Q231 672 248 699T288 746T340 777T400 789Q431 789 456 778T497 746T520 699T522 641Q517 610 501 583T461 535T409 503T350 491Q319 491 294 503T252 535T228 582T226 641ZM135 127Q141
156 157 182T197 228T250 259T309 271Q338 271 362 261T404 230T428 180T428 110Q419 57 404 8T360 -93T283 -197T163 -307L115 -284Q146 -240 172 -193Q194 -154 214 -108T243 -17Q218 -16 196 -6T158 21T136 66T135 127Z" />
<glyph unicode="&lt;" glyph-name="less" horiz-adv-x="1300" d="M1107 1187L1076 1012L324 646L243 626L316 606L940 242L909 67L92 524L129 733L1107 1187Z" />
<glyph unicode="=" glyph-name="equal" horiz-adv-x="1300" d="M341 800H1041L1013 645H313L341 800ZM270 400H970L943 245H243L270 400Z" />
<glyph unicode="&gt;" glyph-name="greater" horiz-adv-x="1300" d="M1127 733L1090 524L111 67L142 242L894 606L975 626L900 646L278 1012L309 1187L1127 733Z" />
<glyph unicode="?" glyph-name="question" horiz-adv-x="1300" d="M727 1517Q815 1517 885 1493T1005 1425T1080 1318T1106 1176Q1106 1105 1086 1052T1031 955T952 877T861 809T768 740T683 664T619 570T584 450L370 429Q379 520 407 588T473 708T558 801T652
874T743 938T822 1003T876 1078T897 1173Q897 1219 881 1253T834 1308T763 1340T673 1351Q624 1351 583 1343T503 1317T428 1267T349 1190L236 1300Q285 1363 343 1404T464 1471T593 1506T727 1517ZM297 105Q297 128 307 149T335 188T375 215T422 225Q476 225 505
192T535 105Q535 82 526 61T501 22T463 -6T416 -17Q360 -17 329 17T297 105Z" />
<glyph unicode="@" glyph-name="at" horiz-adv-x="1300" d="M749 700L804 838Q785 840 769 834T738 820Q719 809 691 781T634 707T579 600T536 462Q511 346 514 275T540 170T595 134T664 155L749 700ZM838 -34Q793 -34 763 -23T715 5T687 39T673 69L615 -17Q543
-17 489 16T402 110T360 256T368 446Q384 546 427 642T532 813T667 935T822 981Q903 981 959 958L835 180Q827 141 836 121T868 100Q888 100 906 124T941 187T971 272T995 363T1013 445T1024 501Q1032 548 1041 609T1058 737T1067 874T1065 1010T1045 1134T1002
1235T931 1304T826 1330Q774 1330 719 1302T608 1222T502 1101T408 948T333 773T284 584Q267 489 258 396T248 214Q248 115 262 30T307 -119T390 -218T515 -254Q545 -254 574 -247T630 -227T678 -201T714 -173L687 -350Q675 -361 655 -372T607 -391T549 -405T483
-410Q374 -410 298 -367T175 -248T106 -65T84 166Q84 254 93 347T120 540Q143 671 182 792T273 1018T390 1210T529 1357T686 1452T858 1486Q935 1486 992 1461T1091 1393T1158 1290T1199 1162T1218 1018T1220 866T1208 717T1188 578Q1167 458 1140 348T1072 152T974
17T838 -34Z" />
<glyph unicode="A" glyph-name="A" horiz-adv-x="1300" d="M18 0L719 1300L789 1500L971 1520L1250 0H1050L982 450H447L201 0H18ZM877 1400L776 1080L522 600H959L866 1080L877 1400Z" />
<glyph unicode="B" glyph-name="B" horiz-adv-x="1300" d="M519 1359L502 1147L456 885H566Q642 885 712 901T835 952T921 1042T953 1176Q953 1233 930 1271T868 1333T779 1365T674 1375Q657 1375 637 1374T595 1371T555 1365T519 1359ZM100 0L327 1290L334 1490Q364
1494 402 1498T481 1504T561 1508T633 1510Q739 1510 831 1496T993 1448T1102 1355T1142 1206Q1142 1137 1122 1081T1068 981T990 907T897 860L735 816L880 802Q933 785 976 761T1051 701T1100 619T1118 510Q1118 417 1094 344T1026 213T923 116T795 50T650 12T496
0H100ZM328 160H468Q575 160 659 175T803 229T893 331T924 493Q924 557 900 602T834 675T733 717T608 730H428L328 160Z" />
<glyph unicode="C" glyph-name="C" horiz-adv-x="1300" d="M998 95Q978 81 942 62T854 26T733 -4T577 -17Q458 -17 370 30T223 162T135 363T106 616Q106 738 127 852T191 1067T295 1250T438 1392T618 1484T835 1517Q1078 1517 1210 1385L1112 1263Q1050 1306 984
1323T829 1341Q735 1341 660 1312T527 1232T427 1110T359 958T320 786T307 605Q307 518 319 437T367 292T466 191T632 153Q677 153 718 159T798 177T876 206T956 247L998 95Z" />
<glyph unicode="D" glyph-name="D" horiz-adv-x="1300" d="M293 1500Q324 1503 365 1505T449 1508T535 1510T610 1511Q755 1511 869 1479T1063 1378T1185 1199T1227 933Q1227 772 1194 641T1100 406T956 226T773 99T563 25T335 0H59L286 1290L293 1500ZM461 1150Q449
1083 426 953Q416 897 403 822T373 650T335 431T287 160H307Q450 160 560 193T751 283T888 416T976 580T1023 761T1038 946Q1038 1036 1016 1112T940 1242T798 1327T579 1358Q563 1358 545 1357T510 1354L472 1350L461 1150Z" />
<glyph unicode="E" glyph-name="E" horiz-adv-x="1300" d="M1040 160L992 0H72L123 200L315 1290L322 1500H1242L1214 1340H489L475 1150L428 885H1063L1038 740H403L332 340L290 160H1040Z" />
<glyph unicode="F" glyph-name="F" horiz-adv-x="1300" d="M300 0H100L327 1290L334 1500H1209L1161 1340H516L502 1150L456 885H996L970 740H430L300 0Z" />
<glyph unicode="G" glyph-name="G" horiz-adv-x="1300" d="M1092 197Q1043 152 985 113T861 45T720 0T562 -17Q418 -17 322 45T174 215T112 465T131 770Q149 871 179 965T253 1143T355 1294T488 1412T654 1489T856 1517Q971 1517 1067 1481T1223 1375L1114 1268Q1071
1300 1004 1324T842 1348Q720 1348 635 1302T491 1178T398 995T342 773Q330 704 324 632T323 490T346 360T399 253T487 180T618 153Q663 153 709 163T796 189T872 224T928 263L989 612L679 632L702 762H1192L1092 197Z" />
<glyph unicode="H" glyph-name="H" horiz-adv-x="1300" d="M787 0L914 725H372L245 0H50L277 1290L285 1500L513 1520L401 885H943L1051 1500L1250 1520L982 0H787Z" />
<glyph unicode="I" glyph-name="I" horiz-adv-x="1300" d="M332 1500H1232L1204 1340H846L637 160H1015L967 0H67L95 160H451L660 1340H284L332 1500Z" />
<glyph unicode="J" glyph-name="J" horiz-adv-x="1300" d="M473 1325L500 1500H1068L872 415Q853 309 819 228T728 93T591 11T399 -17Q358 -17 318 -4T241 30T176 73T130 115L243 233Q252 223 269 210T309 184T362 164T424 156Q493 156 537 175T608 234T652 332T682
470L802 1148L875 1374L633 1325H473Z" />
<glyph unicode="K" glyph-name="K" horiz-adv-x="1300" d="M50 0L277 1290L284 1500L518 1520L400 856L1055 1500H1277L634 865L454 802L618 744L1040 0H803L381 746L250 0H50Z" />
<glyph unicode="L" glyph-name="L" horiz-adv-x="1300" d="M397 160H1127L1078 0H173L229 200L421 1290L428 1500L647 1520L438 340L397 160Z" />
<glyph unicode="M" glyph-name="M" horiz-adv-x="1300" d="M838 0L997 901L1154 1399L1149 1400L901 921L654 500H554L456 920L371 1400L365 1399L352 901L193 0H13L241 1290L250 1500L468 1520L600 950L632 700L750 950L1076 1500L1287 1520L1018 0H838Z" />
<glyph unicode="N" glyph-name="N" horiz-adv-x="1300" d="M817 0L490 948L403 1361L397 1360L385 920L222 0H42L270 1290L277 1500L482 1520L808 557L900 140L906 141L905 580L1067 1500L1251 1520L982 0H817Z" />
<glyph unicode="O" glyph-name="O" horiz-adv-x="1300" d="M514 -17Q424 -17 353 10T230 88T144 209T94 364T79 547T100 750Q118 855 150 952T228 1135T331 1291T459 1411T611 1489T785 1517Q875 1517 946 1490T1069 1412T1155 1291T1205 1136T1220 953T1200 750Q1181
645 1149 548T1071 365T968 209T840 89T688 11T514 -17ZM986 719Q998 789 1006 862T1014 1004T1000 1135T956 1242T875 1315T748 1342Q676 1342 619 1318T517 1253T439 1156T382 1038T341 911T314 785Q301 714 293 640T286 497T300 366T343 258T424 185T551 158Q622
158 679 182T781 249T859 347T917 465T958 593T986 719Z" />
<glyph unicode="P" glyph-name="P" horiz-adv-x="1300" d="M289 0H99L327 1290V1490Q357 1495 398 1499T486 1506T578 1510T663 1512Q823 1512 940 1482T1130 1397T1231 1266T1244 1099Q1157 624 399 624L289 0ZM491 1147L424 765Q576 765 689 787T881 852T1005
957T1066 1100Q1079 1167 1055 1217T978 1302T849 1353T683 1370Q666 1370 643 1370T595 1368T547 1364T509 1359L491 1147Z" />
<glyph unicode="Q" glyph-name="Q" horiz-adv-x="1300" d="M626 0Q591 -8 553 -12T467 -17Q365 -17 290 26T164 145T88 322T63 540Q63 657 86 775T153 1001T260 1204T403 1367T580 1477T787 1517Q899 1517 984 1475T1126 1357T1211 1178T1240 953Q1240 837 1216
718T1146 489T1037 285T893 124Q885 116 874 108T854 92Q867 60 879 42T908 15T952 3T1021 0L944 -145Q894 -145 854 -137T780 -103T718 -28T662 102L650 137L626 0ZM841 314Q901 393 940 476T1002 642T1035 805T1045 961Q1045 1036 1030 1104T979 1224T888 1306T749
1337Q665 1337 596 1298T473 1193T379 1045T313 872T275 697T262 539Q262 456 278 387T331 267T423 190T558 162H579Q588 162 596 163T613 166T636 172Q618 217 605 250T579 306T547 339T500 350L577 500Q618 500 649 480T708 419T762 318T817 177L841 314Z" />
<glyph unicode="R" glyph-name="R" horiz-adv-x="1300" d="M408 619L300 0H100L327 1290V1490Q361 1494 405 1499T497 1508T596 1514T693 1517Q819 1517 911 1489T1062 1411T1151 1292T1180 1139Q1180 1010 1135 916T1018 760T854 665T668 629L794 593L1133 0H910L571
600Q563 614 550 616T528 619H408ZM502 1147L434 763H582Q673 763 749 786T881 855T967 966T998 1119Q998 1177 972 1224T903 1305T806 1357T694 1375Q652 1375 604 1373T520 1364L502 1147Z" />
<glyph unicode="S" glyph-name="S" horiz-adv-x="1300" d="M1087 1252Q1056 1277 1027 1295T966 1326T901 1344T825 1350Q763 1350 705 1332T602 1281T530 1202T503 1101Q503 1049 527 1012T591 944T682 887T786 833T891 770T981 689T1045 580T1070 432Q1070 327
1026 244T906 103T731 14T524 -17Q408 -17 301 19T97 134L215 284Q241 258 275 235T351 194T438 166T532 155Q588 155 647 169T755 217T835 303T866 433Q866 488 842 529T777 604T687 666T583 725T479 789T389 870T325 976T300 1116Q300 1216 344 1291T462 1417T632
1492T830 1517Q892 1517 947 1504T1049 1470T1134 1423T1203 1371L1087 1252Z" />
<glyph unicode="T" glyph-name="T" horiz-adv-x="1300" d="M394 0L630 1340H145L158 1500H1298L1270 1340H830L594 0H394Z" />
<glyph unicode="U" glyph-name="U" horiz-adv-x="1300" d="M1226 1500L1054 523Q1030 387 980 286T857 117T688 17T479 -17Q357 -17 280 25T162 145T116 332T133 573L259 1290L266 1500L490 1520L320 554Q303 459 308 385T340 259T411 180T519 153Q666 153 748
240T861 504L1036 1500H1226Z" />
<glyph unicode="V" glyph-name="V" horiz-adv-x="1300" d="M469 500L493 140L597 454L1111 1500H1300L648 180L587 -20L355 0L137 1500L326 1520L469 500Z" />
<glyph unicode="W" glyph-name="W" horiz-adv-x="1300" d="M344 700L510 1100H650L666 700V200H670L783 660L1084 1500H1261L724 0H543L527 450L556 950H552L406 450L228 0H68L70 1500L234 1520L233 660L183 200H187L344 700Z" />
<glyph unicode="X" glyph-name="X" horiz-adv-x="1300" d="M847 0L689 519L648 700L568 540L198 0H0L570 799L321 1500L537 1520L683 1056L718 860L777 1020L1107 1500H1300L787 776L1067 0H847Z" />
<glyph unicode="Y" glyph-name="Y" horiz-adv-x="1300" d="M619 935L1007 1500H1199L613 646L500 0H300L413 645L128 1500L336 1520L514 954L549 705L619 935Z" />
<glyph unicode="Z" glyph-name="Z" horiz-adv-x="1300" d="M1058 160L1050 0H21L9 50L867 1200L1083 1380L811 1340H326L334 1500H1280L1291 1478L422 300L213 120L485 160H1058Z" />
<glyph unicode="[" glyph-name="bracketleft" horiz-adv-x="1300" d="M454 1320L468 1520H1034L1007 1370H635L620 1170L401 -70L346 -270H718L691 -420H125L183 -220L454 1320Z" />
<glyph unicode="\" glyph-name="backslash" horiz-adv-x="1300" d="M303 1600H497L907 -100H703L303 1600Z" />
<glyph unicode="]" glyph-name="bracketright" horiz-adv-x="1300" d="M633 -220L619 -420H53L80 -270H452L467 -70L686 1170L741 1370H369L396 1520H962L904 1320L633 -220Z" />
<glyph unicode="^" glyph-name="asciicircum" horiz-adv-x="1300" d="M1273 912H1072L752 1239L727 1350L663 1241L239 914H23L681 1500L813 1517L1273 912Z" />
<glyph unicode="_" glyph-name="underscore" horiz-adv-x="1300" d="M101 -300H1200L1172 -455H73L101 -300Z" />
<glyph unicode="`" glyph-name="grave" horiz-adv-x="1300" d="M871 1200H721L549 1500L757 1520L871 1200Z" />
<glyph unicode="a" glyph-name="a" horiz-adv-x="1300" d="M927 930Q909 938 884 944T835 953Q808 957 779 958Q677 958 601 923T472 827T388 685T346 512Q340 462 340 421Q340 352 354 300T393 214T451 162T523 144Q575 144 619 158T699 195T766 247T821 306L927
930ZM768 0L796 162L681 49Q660 32 640 20T595 -1T538 -13T462 -17Q391 -17 335 15T240 104T181 242T160 419Q160 447 161 476T167 536Q180 647 225 751T348 937T539 1067T800 1117Q884 1117 970 1103T1133 1063L981 180L970 0H768Z" />
<glyph unicode="b" glyph-name="b" horiz-adv-x="1300" d="M353 171Q388 158 439 151T565 143Q668 143 736 184T848 292T914 439T948 601Q954 646 954 686Q954 749 941 799T904 884T848 938T776 957Q733 957 696 953T622 936T549 901T471 845L353 171ZM391 1420L403
1600L608 1620L494 974L595 1065Q651 1089 705 1103T815 1117Q890 1117 949 1085T1049 995T1113 858T1135 684Q1135 663 1134 641T1130 596Q1115 457 1069 344T945 151T760 27T517 -17Q492 -17 459 -15T390 -9T316 0T246 10T187 22T147 35L391 1420Z" />
<glyph unicode="c" glyph-name="c" horiz-adv-x="1300" d="M1044 885Q1007 917 944 937T775 957Q691 957 619 926T491 840T398 715T347 564Q338 516 338 469Q338 403 356 345T412 244T508 177T644 152Q686 152 732 165T820 195T896 230T947 258L1000 115Q970 93
927 70T831 28T720 -4T601 -17Q491 -17 406 21T263 125T175 278T144 464Q144 492 146 520T154 577Q172 681 227 778T368 951T565 1071T805 1117Q927 1117 1013 1089T1163 1000L1044 885Z" />
<glyph unicode="d" glyph-name="d" horiz-adv-x="1300" d="M715 940Q602 940 520 898T385 784T306 620T280 427Q280 355 294 302T333 214T392 161T466 144Q518 144 562 158T642 195T709 247T764 306L876 940H715ZM711 0L739 162L624 49Q603 32 583 20T538 -1T481
-13T405 -17Q332 -17 275 15T179 107T120 249T100 431Q100 516 117 599T170 756T259 892T385 1001T550 1073T755 1100H904L996 1620L1175 1600L924 180L913 0H711Z" />
<glyph unicode="e" glyph-name="e" horiz-adv-x="1300" d="M1017 139Q986 112 941 84T836 34T706 -3T552 -17Q439 -17 359 21T228 125T152 275T128 455Q128 502 134 550Q143 623 166 694T227 828T315 944T429 1035T566 1095T726 1117Q826 1117 903 1089T1034 1010T1114
888T1142 729Q1142 687 1135 646Q1130 615 1123 589T1107 543Q1098 520 1089 500H308Q302 477 300 456T297 415Q297 353 320 301T381 212T468 154T570 133Q634 133 690 145T792 176T872 213T925 245L1017 139ZM959 650Q961 653 964 666T969 695T973 727T975 752Q975
788 964 824T924 891T844 939T713 958Q648 958 594 940T496 890T420 817T368 732L286 623L479 650H959Z" />
<glyph unicode="f" glyph-name="f" horiz-adv-x="1300" d="M553 940H403L431 1100H581L609 1255Q626 1348 655 1416T728 1529T833 1596T973 1618Q981 1618 988 1618T1003 1617Q1048 1615 1083 1608T1146 1588T1196 1561T1236 1529L1141 1406Q1112 1431 1074 1448T997
1465H986Q948 1462 917 1453T860 1421T816 1355T785 1245L758 1100H1048L1000 940H735L560 -99Q550 -156 528 -213T466 -317T370 -392T234 -421H215Q206 -421 195 -420Q135 -415 103 -402T59 -382L124 -238Q135 -242 159 -250T213 -260H220Q256 -260 283 -242T330
-191T363 -109T388 0L553 940Z" />
<glyph unicode="g" glyph-name="g" horiz-adv-x="1300" d="M813 135L707 25Q698 20 684 13T648 -1T600 -12T540 -17Q455 -17 388 17T275 114T205 264T180 458Q180 543 196 625T243 780T320 915T426 1022T561 1092T724 1117Q745 1117 769 1114T818 1106T864 1091T903
1070L958 958L988 1121L1165 1100L963 -46Q944 -151 901 -237T792 -386T641 -483T453 -517Q376 -517 316 -501T212 -464T140 -420T100 -386L217 -276Q224 -282 246 -295T301 -322T377 -346T468 -357Q530 -357 582 -334T675 -267T743 -164T784 -31L813 135ZM937
834Q922 855 900 877T849 917T781 946T697 958Q634 958 585 935T498 874T434 784T391 676T367 560T359 448Q359 312 405 235T551 145Q572 142 592 142Q634 142 669 153T735 182T790 225T838 275L937 834Z" />
<glyph unicode="h" glyph-name="h" horiz-adv-x="1300" d="M298 0H108L355 1400L370 1600L583 1620L465 950L574 1065Q618 1087 693 1102T884 1117Q1009 1117 1072 1049T1136 849Q1136 822 1134 792T1125 730L997 0H807L932 709Q941 761 941 803Q941 886 907 921T809
957Q749 957 693 945T588 915T502 874T445 833L298 0Z" />
<glyph unicode="i" glyph-name="i" horiz-adv-x="1300" d="M630 1500H832L797 1300H595L630 1500ZM575 980L455 940H225L250 1100H756Q731 960 713 859T683 687T663 572T651 502T644 465T641 449T640 442T638 431Q636 417 633 394T626 347T620 302T617 269Q617
193 660 163T781 133Q807 133 839 145T904 173T963 208T1006 241L1054 120Q1045 112 1016 90T944 44T850 2T743 -17Q674 -17 616 2T516 56T450 139T426 244Q426 262 428 288T433 342T440 398T448 447L532 919L575 980Z" />
<glyph unicode="j" glyph-name="j" horiz-adv-x="1300" d="M923 1500H1125L1090 1300H888L923 1500ZM873 995L753 955H524L550 1100H1049L838 -97Q822 -186 797 -263T729 -396T619 -485T454 -517Q388 -517 332 -507T233 -484T165 -459T134 -444L200 -290Q205 -294
224 -304T273 -326T343 -346T431 -355Q478 -355 513 -339T575 -292T618 -215T646 -107L830 934L873 995Z" />
<glyph unicode="k" glyph-name="k" horiz-adv-x="1300" d="M160 0L410 1420L422 1600L627 1620L463 690L905 1100H1134L692 690L513 627L670 567L1052 0H816L440 557L342 0H160Z" />
<glyph unicode="l" glyph-name="l" horiz-adv-x="1300" d="M635 1475L515 1435H305L333 1600H819L603 376Q597 344 595 318T593 269Q593 193 636 163T757 133Q783 133 815 145T880 173T939 208T982 241L1030 120Q1021 112 992 90T920 44T826 2T719 -17Q650 -17
592 2T492 56T426 139T402 244Q402 280 406 319T418 400L592 1414L635 1475Z" />
<glyph unicode="m" glyph-name="m" horiz-adv-x="1300" d="M200 0H23L216 1100L397 1121L365 937Q393 977 408 999T430 1032T440 1045T443 1048Q454 1057 469 1069T506 1091T557 1109T626 1117Q682 1117 715 1103T767 1063T792 1001T803 923L887 1043Q898 1052
919 1065T969 1089T1028 1109T1092 1117Q1168 1117 1208 1092T1262 1018T1271 902T1250 750L1118 0H940L1070 740Q1080 794 1085 834T1086 902T1060 943T999 957Q979 957 951 945T895 913T841 869T800 819Q799 813 797 800T793 772T789 745T786 727L658 0H479L606
720Q615 774 621 818T622 892T597 940T533 957Q517 957 494 948T444 922T392 880T345 824L200 0Z" />
<glyph unicode="n" glyph-name="n" horiz-adv-x="1300" d="M292 0H102L296 1100L489 1121L455 927L537 1044Q557 1056 586 1069T655 1092T746 1110T863 1117Q1000 1117 1071 1045T1142 844Q1142 799 1133 750L1001 0H811L943 750Q945 764 946 777T948 802Q948
851 936 881T900 929T843 951T770 957Q717 957 670 945T582 915T505 875T439 834L292 0Z" />
<glyph unicode="o" glyph-name="o" horiz-adv-x="1300" d="M567 -17Q468 -17 387 18T247 117T156 271T124 473Q124 616 168 734T292 938T482 1070T726 1117Q828 1117 911 1084T1053 989T1144 836T1176 631Q1176 482 1134 362T1012 158T821 29T567 -17ZM993 622Q993
697 975 759T921 867T832 938T706 963Q641 963 586 944T487 890T409 810T353 710T319 597T307 480Q307 405 324 342T375 234T462 163T586 138Q650 138 705 157T805 211T885 292T944 393T980 505T993 622Z" />
<glyph unicode="p" glyph-name="p" horiz-adv-x="1300" d="M572 160Q686 160 765 202T895 315T968 480T991 677Q991 815 932 887T768 960Q693 960 630 923T507 827L390 160H572ZM273 -500H91L373 1100L559 1121L528 944L623 1047Q643 1060 664 1072T709 1095T764
1111T834 1117Q907 1117 969 1089T1077 1007T1147 875T1173 695Q1173 553 1134 427T1014 206T807 56T508 0H362L273 -500Z" />
<glyph unicode="q" glyph-name="q" horiz-adv-x="1300" d="M933 935Q913 939 887 943T832 950T772 955T713 957Q638 957 582 932T484 866T415 770T371 657T347 538T340 425Q340 277 394 209T545 140Q615 140 685 177T816 270L933 935ZM792 136L669 29Q641 17 618
9T573 -6T526 -14T470 -17Q397 -17 339 13T240 101T177 242T155 432Q155 577 197 702T314 919T495 1064T727 1117Q793 1117 845 1113T943 1102T1036 1085T1138 1065L862 -500H680L792 136Z" />
<glyph unicode="r" glyph-name="r" horiz-adv-x="1300" d="M448 895L566 1053Q598 1074 636 1087T713 1106T792 1115T866 1117Q918 1117 961 1110T1037 1093T1092 1072T1125 1053V800L980 779L961 948Q947 953 919 960T846 968Q778 968 716 949T600 899T501 829T422
750L290 0H100L294 1100L487 1121L448 895Z" />
<glyph unicode="s" glyph-name="s" horiz-adv-x="1300" d="M1065 909Q1048 918 1016 928T947 948T874 962T813 968Q760 968 701 963T591 941T507 895T474 817Q474 784 498 760T562 718T652 686T754 660T852 636T933 610Q970 595 1003 573T1060 523T1098 459T1112
383Q1112 305 1082 245T1000 141T882 66T746 18T605 -9T475 -17Q441 -17 392 -11T292 7T197 35T130 69L221 211Q243 199 280 187T358 165T438 149T505 143Q535 143 575 147T657 160T740 185T814 225T866 282T886 359Q886 394 864 418T805 460T721 491T625 515T528
538T442 566Q397 585 366 608T316 659T289 716T280 779Q280 875 326 939T448 1043T625 1100T833 1117Q871 1117 918 1111T1010 1095T1092 1073T1147 1047L1065 909Z" />
<glyph unicode="t" glyph-name="t" horiz-adv-x="1300" d="M533 376Q521 307 521 261Q521 195 543 169T607 143Q654 143 702 154T792 179T868 208T920 230L968 109Q957 101 919 81T825 38T700 0T559 -17Q493 -17 449 1T378 52T340 130T329 229Q329 268 334 311T347
400L443 940H142L170 1100H471L508 1309L712 1420L656 1100H1096L1048 940H633L533 376Z" />
<glyph unicode="u" glyph-name="u" horiz-adv-x="1300" d="M967 1100L1161 1121L963 0H773L802 163L722 56Q698 42 675 29T621 6T543 -10T425 -17Q356 -17 300 9T205 80T144 187T122 318Q122 338 123 359T129 401L257 1100L451 1121L319 401Q315 381 314 363T312
326Q312 286 322 253T354 195T412 157T498 143Q564 143 612 153T698 179T763 216T819 258L967 1100Z" />
<glyph unicode="v" glyph-name="v" horiz-adv-x="1300" d="M1202 1121L530 -20L328 0L164 1100L351 1121L460 381L472 149L563 381L983 1100L1202 1121Z" />
<glyph unicode="w" glyph-name="w" horiz-adv-x="1300" d="M737 400L754 150L823 480L1063 1100L1229 1121L813 0H666L595 348L610 750L485 350L293 0H146V1100L299 1121L300 480L263 150L558 885H711L737 400Z" />
<glyph unicode="x" glyph-name="x" horiz-adv-x="1300" d="M851 0L650 382L626 500L560 382L225 0H26L541 588L273 1100L487 1121L663 781L683 670L740 781L1021 1100L1236 1121L767 583L1076 0H851Z" />
<glyph unicode="y" glyph-name="y" horiz-adv-x="1300" d="M666 364L1064 1100L1257 1121L644 -17Q580 -136 530 -223T430 -367T328 -452T204 -480H200Q135 -480 89 -460T8 -403L100 -296Q114 -308 141 -317T192 -328H196Q232 -328 260 -314T317 -268T380 -181T462
-47L247 1100L420 1121Q431 1064 442 1002L464 880Q477 813 491 742Q522 576 562 364L573 132L666 364Z" />
<glyph unicode="z" glyph-name="z" horiz-adv-x="1300" d="M1008 160L1000 0H181L169 50L769 826L948 980L736 940H313L321 1100H1125L1137 1051L552 280L373 120L585 160H1008Z" />
<glyph unicode="{" glyph-name="braceleft" horiz-adv-x="1300" d="M148 625H270Q328 631 361 648T414 696T444 772T465 880L507 1119Q526 1227 555 1304T629 1431T740 1502T897 1519Q942 1517 973 1513T1027 1504T1071 1490T1113 1472L1028 1349Q999 1364 961
1369T892 1374Q840 1372 808 1356T754 1309T721 1231T697 1119L655 880Q643 809 631 759T601 672T557 606T489 550Q507 529 520 491T539 406T546 311T538 220L496 -20Q485 -82 480 -130T483 -210T519 -258T601 -275Q609 -277 617 -277H633Q645 -277 660 -275T691
-269T721 -261T746 -250L788 -373Q765 -383 743 -392T695 -408T635 -418T555 -420Q464 -417 409 -381T327 -288T297 -161T306 -20L348 220Q359 284 363 332T359 411T322 459T243 475H121L148 625Z" />
<glyph unicode="|" glyph-name="bar" horiz-adv-x="1300" d="M762 1520L423 -400H229L564 1500L762 1520Z" />
<glyph unicode="}" glyph-name="braceright" horiz-adv-x="1300" d="M1047 481H925Q867 475 834 458T781 410T751 334T730 226L688 -13Q669 -121 640 -198T566 -325T455 -396T298 -413Q253 -411 222 -407T168 -398T124 -384T82 -366L167 -243Q196 -258 234 -263T303
-268Q355 -266 387 -250T441 -203T474 -125T498 -13L540 226Q552 296 564 346T594 434T638 500T706 556Q688 577 675 615T656 700T649 795T657 886L699 1126Q710 1188 715 1235T712 1315T676 1364T594 1381Q586 1383 578 1383H562Q550 1383 535 1381T504 1375T474
1367T449 1356L407 1479Q430 1489 452 1498T500 1514T560 1524T640 1526Q731 1523 786 1487T868 1394T898 1267T889 1126L847 886Q836 822 832 774T836 695T873 647T952 631H1074L1047 481Z" />
<glyph unicode="~" glyph-name="asciitilde" horiz-adv-x="1300" d="M78 484Q97 550 136 611T228 719T343 789T472 805Q517 799 555 781T628 740T695 693T760 649T825 620T895 616Q967 628 1015 670T1099 792L1242 776Q1222 703 1181 634T1086 514T967 437T836
422Q800 428 765 446T695 488T625 535T555 578T485 607T414 611Q353 600 304 567T224 468L78 484Z" />
<glyph unicode="&#xa0;" glyph-name="nbspace" horiz-adv-x="1300" />
<glyph unicode="&#xa1;" glyph-name="exclamdown" horiz-adv-x="1300" d="M196 -396L381 654L585 675L396 -396H196ZM664 998Q664 968 651 944T617 904T571 881T521 877Q497 881 479 893T449 922T430 959T422 998Q421 1028 432 1052T463 1093T509 1117T563 1121Q610
1115 637 1082T664 998Z" />
<glyph unicode="&#xa2;" glyph-name="cent" horiz-adv-x="1300" d="M905 1320L869 1113Q920 1105 961 1088Q1029 1060 1080 991L961 878Q927 913 878 935Q866 940 854 944T827 951L686 153Q711 155 732 159T774 170Q831 188 864 208L911 67Q848 28 770 6Q747 -1
722 -6T670 -13L637 -200H491L524 -12Q486 -7 451 4T387 32Q322 78 282 140T222 275T200 431T206 601Q218 716 265 806T382 960T541 1062T723 1112L756 1300L905 1320ZM377 574Q367 496 373 427T403 304T466 212T566 158L706 952Q634 938 577 904T479 821T412 708T377
574Z" />
<glyph unicode="&#xa3;" glyph-name="sterling" horiz-adv-x="1300" d="M379 850H540L641 1165Q674 1267 706 1334T781 1442T881 1499T1020 1517Q1071 1518 1112 1510T1186 1484Q1253 1451 1276 1425L1168 1324Q1160 1329 1146 1336T1113 1351T1076 1363T1040
1369Q995 1371 963 1364T906 1332T860 1262T815 1141L722 850H929L883 700H675Q543 263 507 224L398 104L567 147H1005L980 0H34L79 147H217Q252 147 300 197Q347 245 493 700H353L379 850Z" />
<glyph unicode="&#xa4;" glyph-name="currency" horiz-adv-x="1300" d="M1001 222L882 121L754 278Q741 260 714 245T650 221T573 208T490 210T412 232T348 278L164 121L81 222L265 378Q237 437 231 497T236 611T274 710T337 784L207 940L326 1042L455 885Q475
909 508 923T581 942T664 947T745 937T814 916T861 885L1044 1042L1127 940L944 784Q965 760 976 712T981 605T949 487T872 378L1001 222ZM419 424Q453 386 494 370T578 354T664 374T743 424Q776 452 799 492T830 575T830 661T789 738Q756 773 714 785T629 795T545
775T475 738Q435 708 413 665T385 576T388 490T419 424Z" />
<glyph unicode="&#xa5;" glyph-name="yen" horiz-adv-x="1300" d="M56 550H451L468 645L450 700H83L109 850H399L183 1500L391 1520L579 954L614 705L684 935L1072 1500H1264L818 850H1109L1083 700H715L678 646L661 550H1056L1030 400H635L565 0H355L425 400H30L56 550Z" />
<glyph unicode="&#xa6;" glyph-name="brokenbar" horiz-adv-x="1300" d="M770 1520L625 700H425L566 1500L770 1520ZM565 362L431 -400H231L365 362H565Z" />
<glyph unicode="&#xa7;" glyph-name="section" horiz-adv-x="1300" d="M1010 1351Q966 1377 916 1384T808 1393Q752 1395 702 1384T613 1348T553 1286T531 1197Q531 1147 551 1107T603 1033T675 967T756 903T837 833T905 750T949 647T960 515Q956 462 941 420T901
347T846 293T781 257Q757 246 734 235T684 216L711 192Q774 138 806 70T834 -88Q830 -168 795 -230T699 -336T556 -400T376 -420Q293 -418 227 -404T102 -348L179 -251Q223 -277 273 -285T381 -293Q430 -293 480 -282T569 -248T634 -187T658 -97Q657 -47 638 -8T586
66T514 130T433 192T353 262T285 345T240 450T229 585Q232 632 247 671T287 741T342 798T407 842Q454 869 504 883L477 907Q446 935 421 965T380 1031T357 1105T355 1188Q365 1277 405 1339T506 1441T647 1499T813 1517Q895 1517 961 1503T1087 1448L1010 1351ZM520
767Q478 737 449 692T409 587Q402 549 409 515T435 450T479 391T537 336L591 291Q634 307 669 332Q711 363 740 408T780 513Q787 550 780 584T754 650T710 709T652 763L597 808Q576 800 557 790T520 767Z" />
<glyph unicode="&#xa8;" glyph-name="dieresis" horiz-adv-x="1300" d="M564 1500H764L729 1300H529L564 1500ZM964 1500H1164L1129 1300H929L964 1500Z" />
<glyph unicode="&#xa9;" glyph-name="copyright" horiz-adv-x="1300" d="M717 1517Q815 1510 892 1475T1021 1379T1095 1235T1104 1047Q1091 947 1045 860T926 709T759 610T557 577Q460 579 384 616T256 716T181 863T164 1047Q169 1114 192 1176T254 1293T342
1390T453 1464T579 1508T717 1517ZM571 663Q643 663 713 685T843 753T947 872T1013 1047Q1032 1137 1010 1209T940 1333T827 1411T696 1439Q610 1439 532 1410T392 1328T293 1204T250 1047Q246 968 265 899T325 777T428 694T571 663ZM831 1200Q812 1215 781 1224T696
1233Q654 1233 618 1219T554 1180T508 1124T482 1056Q478 1034 478 1013Q478 983 487 957T515 912T563 881T631 870Q652 870 675 876T719 889T757 905L782 918L809 854Q794 844 772 834T724 815T669 800T609 794Q554 794 512 811T440 858T396 927T381 1011Q381
1023 382 1036T386 1062Q395 1108 422 1152T493 1230T591 1284T711 1305Q772 1305 815 1292T890 1252L831 1200Z" />
<glyph unicode="&#xaa;" glyph-name="ordfeminine" horiz-adv-x="1300" d="M241 800H641L623 700H223L241 800ZM665 1427Q656 1431 644 1434T619 1438Q606 1440 591 1441Q540 1441 502 1424T438 1376T396 1305T375 1218Q372 1193 372 1172Q372 1138 379 1112T398
1069T427 1043T463 1034Q489 1034 511 1041T551 1059T585 1085T612 1115L665 1427ZM586 962L600 1043L542 986Q532 978 522 972T499 961T471 955T433 953Q397 953 369 969T322 1014T292 1083T282 1171Q282 1185 282 1200T285 1230Q292 1285 314 1337T376 1430T471
1495T602 1520Q644 1520 687 1513T768 1493L692 1052L687 962H586Z" />
<glyph unicode="&#xab;" glyph-name="guillemotleft" horiz-adv-x="1300" d="M650 1026L678 901L302 610L153 550L280 490L557 201L479 66L84 478L108 617L650 1026ZM1150 1026L1178 901L802 610L653 550L780 490L1057 201L979 66L584 478L608 617L1150 1026Z" />
<glyph unicode="&#xac;" glyph-name="logicalnot" horiz-adv-x="1300" d="M1258 800L1203 589L1149 280H949L979 449L1028 640H24L53 800H1258Z" />
<glyph unicode="&#xad;" glyph-name="sfthyphen" horiz-adv-x="800" />
<glyph unicode="&#xae;" glyph-name="registered" horiz-adv-x="1300" d="M717 1517Q815 1510 892 1475T1021 1379T1095 1235T1104 1047Q1091 947 1045 860T926 709T759 610T557 577Q460 579 384 616T256 716T181 863T164 1047Q169 1114 192 1176T254 1293T342
1390T453 1464T579 1508T717 1517ZM571 663Q643 663 713 685T843 753T947 872T1013 1047Q1032 1137 1010 1209T940 1333T827 1411T696 1439Q610 1439 532 1410T392 1328T293 1204T250 1047Q246 968 265 899T325 777T428 694T571 663ZM541 1006L505 802H439L514
1228V1294Q525 1295 539 1296T570 1299T602 1302T635 1303Q676 1303 706 1294T756 1268T785 1228T795 1178Q795 1135 781 1104T742 1053T688 1022T626 1010L668 998L780 802H706L594 1000Q592 1005 588 1005T580 1006H541ZM572 1181L549 1054H598Q628 1054 653
1061T697 1084T725 1121T735 1171Q735 1190 727 1206T704 1233T672 1250T635 1256Q621 1256 605 1255T578 1252L572 1181Z" />
<glyph unicode="&#xaf;" glyph-name="overscore" horiz-adv-x="1300" d="M464 1500H1164L1138 1350H438L464 1500Z" />
<glyph unicode="&#xb0;" glyph-name="degree" horiz-adv-x="1300" d="M568 1520Q679 1505 737 1435T789 1250Q786 1194 757 1143T683 1053T583 994T472 980Q362 993 306 1065T251 1250Q252 1288 265 1324T302 1391T355 1449T421 1492T493 1517T568 1520ZM492 1091Q523
1088 555 1097T615 1127T659 1179T679 1250Q682 1317 648 1357T548 1409Q514 1415 481 1406T421 1376T378 1323T361 1250Q362 1184 396 1141T492 1091Z" />
<glyph unicode="&#xb1;" glyph-name="plusminus" horiz-adv-x="1300" d="M223 862H596L671 1200H826L751 862H1123L1096 738H724L649 400H494L569 738H196L223 862ZM98 290H998V150H98V290Z" />
<glyph unicode="&#xb2;" glyph-name="twosuperior" horiz-adv-x="1300" d="M135 720L150 804Q184 853 220 893T292 968T363 1032T432 1089Q462 1113 489 1136T536 1183T569 1230T581 1281Q581 1308 574 1329T552 1365T511 1388T449 1396Q425 1396 405 1388T368
1366T337 1335T313 1300L248 1330Q281 1401 340 1439T476 1478H495Q541 1475 574 1458T629 1413T661 1353T672 1284Q672 1281 672 1278T671 1272Q669 1232 651 1198T605 1134T546 1076T486 1023Q450 991 418 963T358 907T307 854T266 800H601L587 720H135Z" />
<glyph unicode="&#xb3;" glyph-name="threesuperior" horiz-adv-x="1300" d="M285 1390L307 1470H672L659 1400Q650 1380 632 1358T591 1314T541 1271T488 1229L415 1194H451Q484 1194 517 1182T576 1146T618 1091T634 1018Q634 962 614 918T559 841T478 785T379
748T270 727T160 720L174 800Q213 800 255 806T336 823T411 851T473 888T515 935T531 991Q531 1023 520 1046T487 1085T437 1107T373 1115Q350 1115 329 1115T286 1113L300 1190Q323 1205 350 1224T406 1263T462 1305T512 1346T551 1382T573 1410L493 1390H285Z"
/>
<glyph unicode="&#xb4;" glyph-name="acute" horiz-adv-x="1300" d="M864 1500L1098 1520L801 1200H651L864 1500Z" />
<glyph unicode="&#xb5;" glyph-name="mu" horiz-adv-x="1300" d="M1237 36Q1226 27 1206 18T1161 1T1107 -12T1054 -17Q1021 -17 987 -6T924 28T872 82T841 155L804 86Q783 61 751 40T680 4T595 -16T504 -17Q485 -15 460 -13T410 -7T363 4T328 25L339 -166L280
-500H100L382 1100L567 1121L430 348Q421 298 423 257T443 186T494 143T581 133Q613 136 642 144T701 166T762 199T831 241L982 1100L1165 1121L1029 352Q1015 276 1014 233T1022 167T1050 139T1098 133Q1122 133 1145 137T1192 150L1237 36Z" />
<glyph unicode="&#xb6;" glyph-name="paragraph" horiz-adv-x="1300" d="M544 647Q507 649 477 655T422 669T374 685T330 702Q301 712 268 750T210 847T178 982T190 1144Q214 1246 259 1317T369 1430T515 1489T694 1500H1166L831 -400H662L970 1348H836L528 -400H359L544
647Z" />
<glyph unicode="&#xb7;" glyph-name="middot" horiz-adv-x="1300" d="M307 650Q313 684 331 714T375 766T434 802T500 815Q534 815 561 802T607 767T634 714T636 650Q630 616 612 586T567 533T509 497T443 483Q409 483 381 496T335 532T309 585T307 650Z" />
<glyph unicode="&#xb8;" glyph-name="cedilla" horiz-adv-x="1300" d="M524 0Q542 -27 554 -59Q565 -86 571 -122T572 -198Q565 -248 542 -287T485 -352T406 -393T311 -407Q269 -407 226 -394T146 -363Q104 -344 65 -318L154 -218Q177 -235 203 -248Q225 -259
252 -269T309 -279Q352 -280 382 -259T420 -189Q425 -156 415 -122T390 -61Q372 -29 348 0H524Z" />
<glyph unicode="&#xb9;" glyph-name="onesuperior" horiz-adv-x="1300" d="M148 720L162 800H284L369 1283L418 1396L334 1303L211 1209L168 1270L434 1480L502 1470L384 800H507L493 720H148Z" />
<glyph unicode="&#xba;" glyph-name="ordmasculine" horiz-adv-x="1300" d="M241 800H641L623 700H223L241 800ZM426 950Q377 950 336 967T266 1017T221 1094T205 1195Q205 1267 227 1326T289 1427T384 1493T506 1517Q557 1517 598 1501T669 1453T715 1377T731
1274Q731 1200 710 1140T649 1038T553 973T426 950ZM639 1270Q639 1307 630 1338T603 1392T559 1427T496 1440Q463 1440 436 1431T386 1404T347 1364T319 1314T302 1258T296 1199Q296 1161 304 1130T330 1076T374 1041T436 1028Q468 1028 495 1037T545 1064T585
1105T615 1155T633 1211T639 1270Z" />
<glyph unicode="&#xbb;" glyph-name="guillemotright" horiz-adv-x="1300" d="M708 617L684 478L143 66L113 201L492 490L639 550L512 610L238 901L310 1026L708 617ZM1208 617L1184 478L643 66L613 201L992 490L1139 550L1012 610L738 901L810 1026L1208 617Z" />
<glyph unicode="&#xbc;" glyph-name="onequarter" horiz-adv-x="1300" d="M354 0H219L994 1500H1120L354 0ZM1206 150H1116L1090 0H990L1016 150H719L734 235L1069 760L1161 750L874 300L816 230H1031L1066 433L1165 425L1131 230H1228L1206 150ZM46 720L60 800H182L267
1283L316 1396L232 1303L109 1209L66 1270L332 1480L400 1470L282 800H405L391 720H46Z" />
<glyph unicode="&#xbd;" glyph-name="onehalf" horiz-adv-x="1300" d="M354 0H219L994 1500H1120L354 0ZM708 0L723 84Q757 133 793 173T865 248T936 312T1005 369Q1035 393 1062 416T1109 463T1142 510T1154 561Q1154 588 1147 609T1125 645T1084 668T1022 676Q998
676 978 668T941 646T910 615T886 580L821 610Q854 681 913 719T1049 758H1068Q1114 755 1147 738T1202 693T1234 633T1245 564Q1245 561 1245 558T1244 552Q1242 512 1224 478T1178 414T1119 356T1059 303Q1023 271 991 243T931 187T880 134T839 80H1174L1160
0H708ZM46 720L60 800H182L267 1283L316 1396L232 1303L109 1209L66 1270L332 1480L400 1470L282 800H405L391 720H46Z" />
<glyph unicode="&#xbe;" glyph-name="threequarters" horiz-adv-x="1300" d="M354 0H219L994 1500H1120L354 0ZM1206 150H1116L1090 0H990L1016 150H719L734 235L1069 760L1161 750L874 300L816 230H1031L1066 433L1165 425L1131 230H1228L1206 150ZM185 1390L207
1470H572L559 1400Q550 1380 532 1358T491 1314T441 1271T388 1229L315 1194H351Q384 1194 417 1182T476 1146T518 1091T534 1018Q534 962 514 918T459 841T378 785T279 748T170 727T60 720L74 800Q113 800 155 806T236 823T311 851T373 888T415 935T431 991Q431
1023 420 1046T387 1085T337 1107T273 1115Q250 1115 229 1115T186 1113L200 1190Q223 1205 250 1224T306 1263T362 1305T412 1346T451 1382T473 1410L393 1390H185Z" />
<glyph unicode="&#xbf;" glyph-name="questiondown" horiz-adv-x="1300" d="M573 -16Q485 -16 415 8T295 76T220 183T194 325Q194 396 214 449T269 546T348 624T439 692T532 761T617 837T681 931T716 1051L930 1072Q921 981 893 913T827 793T742 700T648 627T557
563T478 498T424 423T403 328Q403 282 419 248T466 193T537 161T627 150Q676 150 717 158T797 184T872 234T951 311L1064 201Q1015 138 957 97T836 30T707 -5T573 -16ZM1003 1396Q1003 1373 993 1352T965 1313T925 1286T878 1276Q824 1276 795 1309T765 1396Q765
1419 774 1440T799 1479T837 1507T884 1518Q940 1518 971 1484T1003 1396Z" />
<glyph unicode="&#xc0;" glyph-name="Agrave" horiz-adv-x="1300" d="M18 0L719 1300L789 1500L971 1520L1250 0H1050L982 450H447L201 0H18ZM877 1400L776 1080L522 600H959L866 1080L877 1400ZM981 1600H831L659 1900L867 1920L981 1600Z" />
<glyph unicode="&#xc1;" glyph-name="Aacute" horiz-adv-x="1300" d="M18 0L719 1300L789 1500L971 1520L1250 0H1050L982 450H447L201 0H18ZM877 1400L776 1080L522 600H959L866 1080L877 1400ZM1048 1900L1282 1920L985 1600H835L1048 1900Z" />
<glyph unicode="&#xc2;" glyph-name="Acircumflex" horiz-adv-x="1300" d="M18 0L719 1300L789 1500L971 1520L1250 0H1050L982 450H447L201 0H18ZM877 1400L776 1080L522 600H959L866 1080L877 1400ZM1173 1620H1023L949 1772L935 1860L890 1773L762 1620H612L837
1900L1041 1920L1173 1620Z" />
<glyph unicode="&#xc3;" glyph-name="Atilde" horiz-adv-x="1300" d="M18 0L719 1300L789 1500L971 1520L1250 0H1050L982 450H447L201 0H18ZM877 1400L776 1080L522 600H959L866 1080L877 1400ZM566 1616Q578 1671 602 1712T656 1779T719 1817T785 1825Q824 1819
855 1805T914 1775T970 1747T1029 1735Q1057 1735 1076 1745T1109 1772T1129 1806T1140 1842L1235 1839Q1229 1791 1206 1747T1151 1670T1079 1622T1000 1612Q972 1617 944 1633T887 1667T825 1695T757 1701Q719 1696 693 1677T651 1613L566 1616Z" />
<glyph unicode="&#xc4;" glyph-name="Adieresis" horiz-adv-x="1300" d="M18 0L719 1300L789 1500L971 1520L1250 0H1050L982 450H447L201 0H18ZM877 1400L776 1080L522 600H959L866 1080L877 1400ZM637 1800H837L802 1600H602L637 1800ZM1037 1800H1237L1202
1600H1002L1037 1800Z" />
<glyph unicode="&#xc5;" glyph-name="Aring" horiz-adv-x="1300" d="M968 1881Q1016 1873 1053 1852T1116 1799T1153 1728T1163 1644Q1160 1587 1136 1542T1072 1464Q1035 1434 989 1418L1250 0H1050L982 450H447L201 0H18L719 1300L770 1447Q754 1461 740 1478Q713
1511 699 1554T688 1644Q691 1694 715 1740T779 1821T867 1872T968 1881ZM877 1400L776 1080L522 600H959L866 1080L877 1400ZM905 1520Q929 1515 954 1522T1001 1545T1036 1587T1047 1643Q1044 1695 1021 1724T947 1764Q921 1769 896 1761T850 1735T817 1693T805
1643Q808 1541 905 1520Z" />
<glyph unicode="&#xc6;" glyph-name="AE" horiz-adv-x="1300" d="M1300 160L1252 0H546L598 200L642 450H347L113 0H-103L575 1300L655 1500H1400L1372 1340H986L974 1149L927 885H1252L1227 740H902L831 340L789 160H1300ZM669 600L757 1106L758 1340L662 1099L415
600H669Z" />
<glyph unicode="&#xc7;" glyph-name="Ccedilla" horiz-adv-x="1300" d="M998 95Q978 81 942 62T854 26T733 -4Q697 -11 657 -14Q669 -35 678 -59Q689 -86 695 -122T696 -198Q689 -248 666 -287T609 -352T530 -393T435 -407Q393 -407 350 -394T270 -363Q228 -344
189 -318L278 -218Q301 -235 327 -248Q349 -259 376 -269T433 -279Q476 -280 506 -259T544 -189Q549 -156 539 -122T514 -61Q498 -33 479 -8Q419 3 369 30Q281 78 223 162T135 363T106 616Q106 738 127 852T191 1067T295 1250T438 1392T618 1484T835 1517Q1078
1517 1210 1385L1112 1263Q1050 1306 984 1323T829 1341Q735 1341 660 1312T527 1232T427 1110T359 958T320 786T307 605Q307 518 319 437T367 292T466 191T632 153Q677 153 718 159T798 177T876 206T956 247L998 95Z" />
<glyph unicode="&#xc8;" glyph-name="Egrave" horiz-adv-x="1300" d="M1040 160L992 0H72L123 200L315 1290L322 1500H1242L1214 1340H489L475 1150L428 885H1063L1038 740H403L332 340L290 160H1040ZM971 1600H821L649 1900L857 1920L971 1600Z" />
<glyph unicode="&#xc9;" glyph-name="Eacute" horiz-adv-x="1300" d="M1040 160L992 0H72L123 200L315 1290L322 1500H1242L1214 1340H489L475 1150L428 885H1063L1038 740H403L332 340L290 160H1040ZM803 1900L1037 1920L740 1600H590L803 1900Z" />
<glyph unicode="&#xca;" glyph-name="Ecircumflex" horiz-adv-x="1300" d="M1040 160L992 0H72L123 200L315 1290L322 1500H1242L1214 1340H489L475 1150L428 885H1063L1038 740H403L332 340L290 160H1040ZM1045 1620H895L821 1772L807 1860L762 1773L634 1620H484L709
1900L913 1920L1045 1620Z" />
<glyph unicode="&#xcb;" glyph-name="Edieresis" horiz-adv-x="1300" d="M1040 160L992 0H72L123 200L315 1290L322 1500H1242L1214 1340H489L475 1150L428 885H1063L1038 740H403L332 340L290 160H1040ZM714 1800H914L879 1600H679L714 1800ZM1114 1800H1314L1279
1600H1079L1114 1800Z" />
<glyph unicode="&#xcc;" glyph-name="Igrave" horiz-adv-x="1300" d="M338 1500H1238L1210 1340H852L643 160H1021L973 0H73L101 160H457L666 1340H290L338 1500ZM929 1600H779L607 1900L815 1920L929 1600Z" />
<glyph unicode="&#xcd;" glyph-name="Iacute" horiz-adv-x="1300" d="M338 1500H1238L1210 1340H852L643 160H1021L973 0H73L101 160H457L666 1340H290L338 1500ZM894 1900L1128 1920L831 1600H681L894 1900Z" />
<glyph unicode="&#xce;" glyph-name="Icircumflex" horiz-adv-x="1300" d="M338 1500H1238L1210 1340H852L643 160H1021L973 0H73L101 160H457L666 1340H290L338 1500ZM1142 1620H992L918 1772L904 1860L859 1773L731 1620H581L806 1900L1010 1920L1142 1620Z" />
<glyph unicode="&#xcf;" glyph-name="Idieresis" horiz-adv-x="1300" d="M338 1500H1238L1210 1340H852L643 160H1021L973 0H73L101 160H457L666 1340H290L338 1500ZM580 1900H780L745 1700H545L580 1900ZM980 1900H1180L1145 1700H945L980 1900Z" />
<glyph unicode="&#xd0;" glyph-name="Eth" horiz-adv-x="1300" d="M50 856H210L287 1290L294 1500Q325 1503 366 1505T450 1508T536 1510T611 1511Q756 1511 870 1479T1064 1378T1186 1199T1228 933Q1228 772 1195 641T1101 406T957 226T774 99T564 25T336 0H60L183
701H23L50 856ZM462 1150Q450 1083 427 953Q419 910 409 856H649L622 701H382Q378 676 374 649Q357 552 336 431T288 160H308Q451 160 561 193T752 283T889 416T977 580T1024 761T1039 946Q1039 1036 1017 1112T941 1242T799 1327T580 1358Q564 1358 546 1357T511
1354L473 1350L462 1150Z" />
<glyph unicode="&#xd1;" glyph-name="Ntilde" horiz-adv-x="1300" d="M817 0L490 948L403 1361L397 1360L385 920L222 0H42L270 1290L277 1500L482 1520L808 557L900 140L906 141L905 580L1067 1500L1251 1520L982 0H817ZM535 1655Q547 1710 571 1751T625 1818T688
1856T754 1864Q793 1858 824 1844T883 1814T939 1786T998 1774Q1026 1774 1045 1784T1078 1811T1098 1845T1109 1881L1204 1878Q1198 1830 1175 1786T1120 1709T1048 1661T969 1651Q941 1656 913 1672T856 1706T794 1734T726 1740Q688 1735 662 1716T620 1652L535
1655Z" />
<glyph unicode="&#xd2;" glyph-name="Ograve" horiz-adv-x="1300" d="M488 -17Q398 -17 327 10T204 88T118 209T68 364T53 547T74 750Q92 855 124 952T202 1135T305 1291T433 1411T585 1489T759 1517Q849 1517 920 1490T1043 1412T1129 1291T1179 1136T1194 953T1174
750Q1155 645 1123 548T1045 365T942 209T814 89T662 11T488 -17ZM960 719Q972 789 980 862T988 1004T974 1135T930 1242T849 1315T722 1342Q650 1342 593 1318T491 1253T413 1156T356 1038T315 911T288 785Q275 714 267 640T260 497T274 366T317 258T398 185T525
158Q596 158 653 182T755 249T833 347T891 465T932 593T960 719ZM1022 1600H872L700 1900L908 1920L1022 1600Z" />
<glyph unicode="&#xd3;" glyph-name="Oacute" horiz-adv-x="1300" d="M488 -17Q398 -17 327 10T204 88T118 209T68 364T53 547T74 750Q92 855 124 952T202 1135T305 1291T433 1411T585 1489T759 1517Q849 1517 920 1490T1043 1412T1129 1291T1179 1136T1194 953T1174
750Q1155 645 1123 548T1045 365T942 209T814 89T662 11T488 -17ZM960 719Q972 789 980 862T988 1004T974 1135T930 1242T849 1315T722 1342Q650 1342 593 1318T491 1253T413 1156T356 1038T315 911T288 785Q275 714 267 640T260 497T274 366T317 258T398 185T525
158Q596 158 653 182T755 249T833 347T891 465T932 593T960 719ZM920 1900L1154 1920L857 1600H707L920 1900Z" />
<glyph unicode="&#xd4;" glyph-name="Ocircumflex" horiz-adv-x="1300" d="M488 -17Q398 -17 327 10T204 88T118 209T68 364T53 547T74 750Q92 855 124 952T202 1135T305 1291T433 1411T585 1489T759 1517Q849 1517 920 1490T1043 1412T1129 1291T1179 1136T1194
953T1174 750Q1155 645 1123 548T1045 365T942 209T814 89T662 11T488 -17ZM960 719Q972 789 980 862T988 1004T974 1135T930 1242T849 1315T722 1342Q650 1342 593 1318T491 1253T413 1156T356 1038T315 911T288 785Q275 714 267 640T260 497T274 366T317 258T398
185T525 158Q596 158 653 182T755 249T833 347T891 465T932 593T960 719ZM1138 1620H988L914 1772L900 1860L855 1773L727 1620H577L802 1900L1006 1920L1138 1620Z" />
<glyph unicode="&#xd5;" glyph-name="Otilde" horiz-adv-x="1300" d="M488 -17Q398 -17 327 10T204 88T118 209T68 364T53 547T74 750Q92 855 124 952T202 1135T305 1291T433 1411T585 1489T759 1517Q849 1517 920 1490T1043 1412T1129 1291T1179 1136T1194 953T1174
750Q1155 645 1123 548T1045 365T942 209T814 89T662 11T488 -17ZM960 719Q972 789 980 862T988 1004T974 1135T930 1242T849 1315T722 1342Q650 1342 593 1318T491 1253T413 1156T356 1038T315 911T288 785Q275 714 267 640T260 497T274 366T317 258T398 185T525
158Q596 158 653 182T755 249T833 347T891 465T932 593T960 719ZM516 1655Q528 1710 552 1751T606 1818T669 1856T735 1864Q774 1858 805 1844T864 1814T920 1786T979 1774Q1007 1774 1026 1784T1059 1811T1079 1845T1090 1881L1185 1878Q1179 1830 1156 1786T1101
1709T1029 1661T950 1651Q922 1656 894 1672T837 1706T775 1734T707 1740Q669 1735 643 1716T601 1652L516 1655Z" />
<glyph unicode="&#xd6;" glyph-name="Odieresis" horiz-adv-x="1300" d="M488 -17Q398 -17 327 10T204 88T118 209T68 364T53 547T74 750Q92 855 124 952T202 1135T305 1291T433 1411T585 1489T759 1517Q849 1517 920 1490T1043 1412T1129 1291T1179 1136T1194
953T1174 750Q1155 645 1123 548T1045 365T942 209T814 89T662 11T488 -17ZM960 719Q972 789 980 862T988 1004T974 1135T930 1242T849 1315T722 1342Q650 1342 593 1318T491 1253T413 1156T356 1038T315 911T288 785Q275 714 267 640T260 497T274 366T317 258T398
185T525 158Q596 158 653 182T755 249T833 347T891 465T932 593T960 719ZM552 1800H752L717 1600H517L552 1800ZM952 1800H1152L1117 1600H917L952 1800Z" />
<glyph unicode="&#xd7;" glyph-name="multiply" horiz-adv-x="1300" d="M760 627L1110 203L968 102L659 477H660L619 576L584 477L142 102L35 203L536 627L185 1052L328 1153L637 777L677 679L713 777L1154 1153L1260 1052L760 627Z" />
<glyph unicode="&#xd8;" glyph-name="Oslash" horiz-adv-x="1300" d="M488 -17Q398 -17 327 10Q287 26 253 48L153 -100H-57L133 179Q125 194 118 209Q84 279 68 364T53 547T74 750Q92 855 124 952T202 1135T305 1291T433 1411T585 1489T759 1517Q849 1517 920
1489Q962 1473 997 1448L1100 1600H1300L1112 1322Q1121 1307 1129 1291Q1163 1221 1179 1136T1194 953T1174 750Q1155 645 1123 548T1045 365T942 209T814 89T662 11T488 -17ZM848 1315Q798 1342 722 1342Q650 1342 593 1318T491 1253T413 1156T356 1038T315 911T288
785Q275 714 267 640T260 496Q261 436 270 381L888 1288Q870 1303 848 1315ZM960 719Q972 789 980 862T988 1004Q987 1065 976 1120L361 209Q378 195 398 185Q449 158 525 158Q596 158 653 182T755 249T833 347T891 465T932 593T960 719Z" />
<glyph unicode="&#xd9;" glyph-name="Ugrave" horiz-adv-x="1300" d="M1226 1500L1054 523Q1030 387 980 286T857 117T688 17T479 -17Q357 -17 280 25T162 145T116 332T133 573L259 1290L266 1500L490 1520L320 554Q303 459 308 385T340 259T411 180T519 153Q666
153 748 240T861 504L1036 1500H1226ZM955 1600H805L633 1900L841 1920L955 1600Z" />
<glyph unicode="&#xda;" glyph-name="Uacute" horiz-adv-x="1300" d="M1226 1500L1054 523Q1030 387 980 286T857 117T688 17T479 -17Q357 -17 280 25T162 145T116 332T133 573L259 1290L266 1500L490 1520L320 554Q303 459 308 385T340 259T411 180T519 153Q666
153 748 240T861 504L1036 1500H1226ZM798 1900L1032 1920L735 1600H585L798 1900Z" />
<glyph unicode="&#xdb;" glyph-name="Ucircumflex" horiz-adv-x="1300" d="M1226 1500L1054 523Q1030 387 980 286T857 117T688 17T479 -17Q357 -17 280 25T162 145T116 332T133 573L259 1290L266 1500L490 1520L320 554Q303 459 308 385T340 259T411 180T519
153Q666 153 748 240T861 504L1036 1500H1226ZM1046 1620H896L822 1772L808 1860L763 1773L635 1620H485L710 1900L914 1920L1046 1620Z" />
<glyph unicode="&#xdc;" glyph-name="Udieresis" horiz-adv-x="1300" d="M1226 1500L1054 523Q1030 387 980 286T857 117T688 17T479 -17Q357 -17 280 25T162 145T116 332T133 573L259 1290L266 1500L490 1520L320 554Q303 459 308 385T340 259T411 180T519 153Q666
153 748 240T861 504L1036 1500H1226ZM495 1800H695L660 1600H460L495 1800ZM895 1800H1095L1060 1600H860L895 1800Z" />
<glyph unicode="&#xdd;" glyph-name="Yacute" horiz-adv-x="1300" d="M588 935L976 1500H1168L582 646L469 0H269L382 645L97 1500L305 1520L483 954L518 705L588 935ZM731 1900L965 1920L668 1600H518L731 1900Z" />
<glyph unicode="&#xde;" glyph-name="Thorn" horiz-adv-x="1300" d="M344 1500H564L529 1301H729Q754 1301 792 1294T874 1268T959 1220T1035 1143T1088 1035T1106 889Q1105 855 1100 814T1081 729T1047 642T993 559T915 488T808 435Q752 415 688 408T530 401H370L300
0H100L329 1299L344 1500ZM502 1151L398 557H587Q668 557 731 581T837 648T903 753T926 889Q926 934 911 981T865 1065T786 1127T671 1151H502Z" />
<glyph unicode="&#xdf;" glyph-name="germandbls" horiz-adv-x="1300" d="M950 1148Q956 1196 942 1235T902 1304T840 1350T769 1369Q691 1372 645 1356T567 1304Q539 1273 525 1239T502 1160L295 -17L100 0L295 1111Q329 1306 453 1418Q481 1443 510 1461T579
1492T671 1511T798 1517Q880 1517 945 1491T1055 1418T1121 1308T1135 1169Q1129 1106 1111 1058T1062 973T990 908T899 860L737 816L882 802Q940 784 987 754T1066 681T1109 583T1111 460Q1102 366 1070 296T991 174T885 90T760 36T628 8T498 0L466 160Q565 160
644 171T780 215T873 303T919 450Q936 591 853 660T606 730L564 885Q628 885 693 897T812 940T903 1021T950 1148Z" />
<glyph unicode="&#xe0;" glyph-name="agrave" horiz-adv-x="1300" d="M927 930Q909 938 884 944T835 953Q808 957 779 958Q677 958 601 923T472 827T388 685T346 512Q340 462 340 421Q340 352 354 300T393 214T451 162T523 144Q575 144 619 158T699 195T766 247T821
306L927 930ZM768 0L796 162L681 49Q660 32 640 20T595 -1T538 -13T462 -17Q391 -17 335 15T240 104T181 242T160 419Q160 447 161 476T167 536Q180 647 225 751T348 937T539 1067T800 1117Q884 1117 970 1103T1133 1063L981 180L970 0H768ZM1010 1200H860L688
1500L896 1520L1010 1200Z" />
<glyph unicode="&#xe1;" glyph-name="aacute" horiz-adv-x="1300" d="M927 930Q909 938 884 944T835 953Q808 957 779 958Q677 958 601 923T472 827T388 685T346 512Q340 462 340 421Q340 352 354 300T393 214T451 162T523 144Q575 144 619 158T699 195T766 247T821
306L927 930ZM768 0L796 162L681 49Q660 32 640 20T595 -1T538 -13T462 -17Q391 -17 335 15T240 104T181 242T160 419Q160 447 161 476T167 536Q180 647 225 751T348 937T539 1067T800 1117Q884 1117 970 1103T1133 1063L981 180L970 0H768ZM936 1500L1170 1520L873
1200H723L936 1500Z" />
<glyph unicode="&#xe2;" glyph-name="acircumflex" horiz-adv-x="1300" d="M927 930Q909 938 884 944T835 953Q808 957 779 958Q677 958 601 923T472 827T388 685T346 512Q340 462 340 421Q340 352 354 300T393 214T451 162T523 144Q575 144 619 158T699 195T766
247T821 306L927 930ZM768 0L796 162L681 49Q660 32 640 20T595 -1T538 -13T462 -17Q391 -17 335 15T240 104T181 242T160 419Q160 447 161 476T167 536Q180 647 225 751T348 937T539 1067T800 1117Q884 1117 970 1103T1133 1063L981 180L970 0H768ZM1129 1220H979L905
1372L891 1460L846 1373L718 1220H568L793 1500L997 1520L1129 1220Z" />
<glyph unicode="&#xe3;" glyph-name="atilde" horiz-adv-x="1300" d="M927 930Q909 938 884 944T835 953Q808 957 779 958Q677 958 601 923T472 827T388 685T346 512Q340 462 340 421Q340 352 354 300T393 214T451 162T523 144Q575 144 619 158T699 195T766 247T821
306L927 930ZM768 0L796 162L681 49Q660 32 640 20T595 -1T538 -13T462 -17Q391 -17 335 15T240 104T181 242T160 419Q160 447 161 476T167 536Q180 647 225 751T348 937T539 1067T800 1117Q884 1117 970 1103T1133 1063L981 180L970 0H768ZM528 1275Q540 1330
564 1371T618 1438T681 1476T747 1484Q786 1478 817 1464T876 1434T932 1406T991 1394Q1019 1394 1038 1404T1071 1431T1091 1465T1102 1501L1197 1498Q1191 1450 1168 1406T1113 1329T1041 1281T962 1271Q934 1276 906 1292T849 1326T787 1354T719 1360Q681 1355
655 1336T613 1272L528 1275Z" />
<glyph unicode="&#xe4;" glyph-name="adieresis" horiz-adv-x="1300" d="M927 930Q909 938 884 944T835 953Q808 957 779 958Q677 958 601 923T472 827T388 685T346 512Q340 462 340 421Q340 352 354 300T393 214T451 162T523 144Q575 144 619 158T699 195T766
247T821 306L927 930ZM768 0L796 162L681 49Q660 32 640 20T595 -1T538 -13T462 -17Q391 -17 335 15T240 104T181 242T160 419Q160 447 161 476T167 536Q180 647 225 751T348 937T539 1067T800 1117Q884 1117 970 1103T1133 1063L981 180L970 0H768ZM620 1500H820L785
1300H585L620 1500ZM1020 1500H1220L1185 1300H985L1020 1500Z" />
<glyph unicode="&#xe5;" glyph-name="aring" horiz-adv-x="1300" d="M927 930Q909 938 884 944T835 953Q808 957 779 958Q677 958 601 923T472 827T388 685T346 512Q340 462 340 421Q340 352 354 300T393 214T451 162T523 144Q575 144 619 158T699 195T766 247T821
306L927 930ZM768 0L796 162L681 49Q660 32 640 20T595 -1T538 -13T462 -17Q391 -17 335 15T240 104T181 242T160 419Q160 447 161 476T167 536Q180 647 225 751T348 937T539 1067T800 1117Q884 1117 970 1103T1133 1063L981 180L970 0H768ZM944 1636Q992 1628
1029 1607T1092 1554T1129 1483T1139 1399Q1136 1342 1112 1297T1049 1220T962 1172T862 1158Q818 1159 781 1179T716 1233T675 1309T664 1399Q667 1449 691 1495T755 1576T843 1627T944 1636ZM881 1275Q905 1270 930 1277T977 1300T1012 1342T1023 1398Q1020 1450
997 1479T923 1519Q897 1524 872 1516T826 1490T793 1448T781 1398Q784 1296 881 1275Z" />
<glyph unicode="&#xe6;" glyph-name="ae" horiz-adv-x="1300" d="M1262 650Q1259 631 1254 610T1242 567T1229 528T1216 500H736Q722 425 722 360T736 247T779 171T853 143Q891 143 923 152T981 175T1024 202T1049 225L1161 129Q1131 99 1100 73T1029 26T940 -5T823
-17Q770 -17 727 -1T651 44T599 109T574 189Q550 147 524 110T463 44T384 0T281 -17Q213 -17 158 6T67 75T17 188T18 344Q34 437 68 505T150 619T258 687T388 710Q426 710 454 704T501 690Q522 681 536 670L542 705Q552 764 558 811T559 890T531 940T461 957Q428
957 396 948T337 928Q306 916 279 900L227 1044Q272 1064 324 1080Q369 1094 426 1105T549 1117Q591 1117 622 1105T673 1071T705 1021T720 962Q735 993 760 1021T822 1070T904 1104T1004 1117Q1101 1117 1161 1087T1250 998T1280 852T1262 650ZM512 533Q505 537
493 541Q482 544 466 547T426 550Q333 550 276 504T198 345Q190 300 192 263T208 199T249 158T317 143Q357 143 385 163T431 208Q452 237 466 274L512 533ZM1098 730Q1106 776 1109 817T1103 890T1071 939T1002 957Q953 957 915 938T848 887T801 815T776 732L687
623L814 650H1084L1098 730Z" />
<glyph unicode="&#xe7;" glyph-name="ccedilla" horiz-adv-x="1300" d="M1043 885Q1006 917 943 937T774 957Q690 957 618 926T490 840T397 715T346 564Q337 516 337 469Q337 403 355 345T411 244T507 177T643 152Q685 152 731 165T819 195T895 230T946 258L999
115Q969 93 926 70T830 28T718 -4Q695 -9 672 -12Q684 -34 694 -59Q705 -86 711 -122T712 -198Q705 -248 682 -287T625 -352T546 -393T451 -407Q409 -407 366 -394T286 -363Q244 -344 205 -318L294 -218Q317 -235 343 -248Q365 -259 392 -269T449 -279Q492 -280
522 -259T560 -189Q565 -156 555 -122T530 -61Q514 -33 494 -7Q446 2 405 21Q320 60 262 125T174 278T143 464Q143 492 145 520T153 577Q171 681 226 778T367 951T564 1071T804 1117Q926 1117 1012 1089T1162 1000L1043 885Z" />
<glyph unicode="&#xe8;" glyph-name="egrave" horiz-adv-x="1300" d="M1017 139Q986 112 941 84T836 34T706 -3T552 -17Q439 -17 359 21T228 125T152 275T128 455Q128 502 134 550Q143 623 166 694T227 828T315 944T429 1035T566 1095T726 1117Q826 1117 903 1089T1034
1010T1114 888T1142 729Q1142 687 1135 646Q1130 615 1123 589T1107 543Q1098 520 1089 500H308Q302 477 300 456T297 415Q297 353 320 301T381 212T468 154T570 133Q634 133 690 145T792 176T872 213T925 245L1017 139ZM959 650Q961 653 964 666T969 695T973 727T975
752Q975 788 964 824T924 891T844 939T713 958Q648 958 594 940T496 890T420 817T368 732L286 623L479 650H959ZM838 1200H688L516 1500L724 1520L838 1200Z" />
<glyph unicode="&#xe9;" glyph-name="eacute" horiz-adv-x="1300" d="M1017 139Q986 112 941 84T836 34T706 -3T552 -17Q439 -17 359 21T228 125T152 275T128 455Q128 502 134 550Q143 623 166 694T227 828T315 944T429 1035T566 1095T726 1117Q826 1117 903 1089T1034
1010T1114 888T1142 729Q1142 687 1135 646Q1130 615 1123 589T1107 543Q1098 520 1089 500H308Q302 477 300 456T297 415Q297 353 320 301T381 212T468 154T570 133Q634 133 690 145T792 176T872 213T925 245L1017 139ZM959 650Q961 653 964 666T969 695T973 727T975
752Q975 788 964 824T924 891T844 939T713 958Q648 958 594 940T496 890T420 817T368 732L286 623L479 650H959ZM909 1500L1143 1520L846 1200H696L909 1500Z" />
<glyph unicode="&#xea;" glyph-name="ecircumflex" horiz-adv-x="1300" d="M1017 139Q986 112 941 84T836 34T706 -3T552 -17Q439 -17 359 21T228 125T152 275T128 455Q128 502 134 550Q143 623 166 694T227 828T315 944T429 1035T566 1095T726 1117Q826 1117
903 1089T1034 1010T1114 888T1142 729Q1142 687 1135 646Q1130 615 1123 589T1107 543Q1098 520 1089 500H308Q302 477 300 456T297 415Q297 353 320 301T381 212T468 154T570 133Q634 133 690 145T792 176T872 213T925 245L1017 139ZM959 650Q961 653 964 666T969
695T973 727T975 752Q975 788 964 824T924 891T844 939T713 958Q648 958 594 940T496 890T420 817T368 732L286 623L479 650H959ZM1051 1220H901L827 1372L813 1460L768 1373L640 1220H490L715 1500L919 1520L1051 1220Z" />
<glyph unicode="&#xeb;" glyph-name="edieresis" horiz-adv-x="1300" d="M1017 139Q986 112 941 84T836 34T706 -3T552 -17Q439 -17 359 21T228 125T152 275T128 455Q128 502 134 550Q143 623 166 694T227 828T315 944T429 1035T566 1095T726 1117Q826 1117 903
1089T1034 1010T1114 888T1142 729Q1142 687 1135 646Q1130 615 1123 589T1107 543Q1098 520 1089 500H308Q302 477 300 456T297 415Q297 353 320 301T381 212T468 154T570 133Q634 133 690 145T792 176T872 213T925 245L1017 139ZM959 650Q961 653 964 666T969
695T973 727T975 752Q975 788 964 824T924 891T844 939T713 958Q648 958 594 940T496 890T420 817T368 732L286 623L479 650H959ZM542 1500H742L707 1300H507L542 1500ZM942 1500H1142L1107 1300H907L942 1500Z" />
<glyph unicode="&#xec;" glyph-name="igrave" horiz-adv-x="1300" d="M631 393Q622 341 621 297T628 221T660 171T719 153Q768 153 816 161T903 179T968 199T1000 210L1012 56Q1006 53 978 41T905 17T803 -6T679 -17Q581 -17 526 15T448 103T425 237T443 403L544
977L489 955H250V1100H756L650 501L631 393ZM772 1200H622L450 1500L658 1520L772 1200Z" />
<glyph unicode="&#xed;" glyph-name="iacute" horiz-adv-x="1300" d="M631 393Q622 341 621 297T628 221T660 171T719 153Q768 153 816 161T903 179T968 199T1000 210L1012 56Q1006 53 978 41T905 17T803 -6T679 -17Q581 -17 526 15T448 103T425 237T443 403L544
977L489 955H250V1100H756L650 501L631 393ZM847 1500L1081 1520L784 1200H634L847 1500Z" />
<glyph unicode="&#xee;" glyph-name="icircumflex" horiz-adv-x="1300" d="M631 393Q622 341 621 297T628 221T660 171T719 153Q768 153 816 161T903 179T968 199T1000 210L1012 56Q1006 53 978 41T905 17T803 -6T679 -17Q581 -17 526 15T448 103T425 237T443
403L544 977L489 955H250V1100H756L650 501L631 393ZM938 1220H788L714 1372L700 1460L655 1373L527 1220H377L602 1500L806 1520L938 1220Z" />
<glyph unicode="&#xef;" glyph-name="idieresis" horiz-adv-x="1300" d="M631 393Q622 341 621 297T628 221T660 171T719 153Q768 153 816 161T903 179T968 199T1000 210L1012 56Q1006 53 978 41T905 17T803 -6T679 -17Q581 -17 526 15T448 103T425 237T443 403L544
977L489 955H250V1100H756L650 501L631 393ZM435 1500H635L600 1300H400L435 1500ZM835 1500H1035L1000 1300H800L835 1500Z" />
<glyph unicode="&#xf0;" glyph-name="eth" horiz-adv-x="1300" d="M545 1168L789 1347L666 1326Q621 1352 575 1365T474 1378Q461 1378 452 1377T439 1375V1518Q456 1520 471 1520H501Q611 1520 702 1490T868 1405L1027 1522L1104 1407L892 1252L1010 1255Q1083
1124 1107 963T1119 620Q1115 563 1094 491T1036 344T946 199T826 77T679 -3T506 -20Q398 -8 325 27T208 122T146 268T128 469Q128 544 150 609T209 728T296 821T404 888T525 924T650 927Q717 919 778 902T902 847L964 730Q965 804 957 872T930 1001T883 1110T814
1194L622 1053L545 1168ZM921 607Q902 630 873 655T806 703T726 743T637 767Q565 777 505 754T402 687T333 581T305 451Q300 314 359 237T533 140Q593 130 646 148T742 205T818 298T871 412Q889 468 900 513T921 607Z" />
<glyph unicode="&#xf1;" glyph-name="ntilde" horiz-adv-x="1300" d="M292 0H102L296 1100L489 1121L455 927L537 1044Q557 1056 586 1069T655 1092T746 1110T863 1117Q1000 1117 1071 1045T1142 844Q1142 799 1133 750L1001 0H811L943 750Q945 764 946 777T948
802Q948 851 936 881T900 929T843 951T770 957Q717 957 670 945T582 915T505 875T439 834L292 0ZM500 1275Q512 1330 536 1371T590 1438T653 1476T719 1484Q758 1478 789 1464T848 1434T904 1406T963 1394Q991 1394 1010 1404T1043 1431T1063 1465T1074 1501L1169
1498Q1163 1450 1140 1406T1085 1329T1013 1281T934 1271Q906 1276 878 1292T821 1326T759 1354T691 1360Q653 1355 627 1336T585 1272L500 1275Z" />
<glyph unicode="&#xf2;" glyph-name="ograve" horiz-adv-x="1300" d="M567 -17Q468 -17 387 18T247 117T156 271T124 473Q124 616 168 734T292 938T482 1070T726 1117Q828 1117 911 1084T1053 989T1144 836T1176 631Q1176 482 1134 362T1012 158T821 29T567 -17ZM993
622Q993 697 975 759T921 867T832 938T706 963Q641 963 586 944T487 890T409 810T353 710T319 597T307 480Q307 405 324 342T375 234T462 163T586 138Q650 138 705 157T805 211T885 292T944 393T980 505T993 622ZM836 1200H686L514 1500L722 1520L836 1200Z" />
<glyph unicode="&#xf3;" glyph-name="oacute" horiz-adv-x="1300" d="M567 -17Q468 -17 387 18T247 117T156 271T124 473Q124 616 168 734T292 938T482 1070T726 1117Q828 1117 911 1084T1053 989T1144 836T1176 631Q1176 482 1134 362T1012 158T821 29T567 -17ZM993
622Q993 697 975 759T921 867T832 938T706 963Q641 963 586 944T487 890T409 810T353 710T319 597T307 480Q307 405 324 342T375 234T462 163T586 138Q650 138 705 157T805 211T885 292T944 393T980 505T993 622ZM848 1500L1082 1520L785 1200H635L848 1500Z" />
<glyph unicode="&#xf4;" glyph-name="ocircumflex" horiz-adv-x="1300" d="M567 -17Q468 -17 387 18T247 117T156 271T124 473Q124 616 168 734T292 938T482 1070T726 1117Q828 1117 911 1084T1053 989T1144 836T1176 631Q1176 482 1134 362T1012 158T821 29T567
-17ZM993 622Q993 697 975 759T921 867T832 938T706 963Q641 963 586 944T487 890T409 810T353 710T319 597T307 480Q307 405 324 342T375 234T462 163T586 138Q650 138 705 157T805 211T885 292T944 393T980 505T993 622ZM995 1220H845L771 1372L757 1460L712
1373L584 1220H434L659 1500L863 1520L995 1220Z" />
<glyph unicode="&#xf5;" glyph-name="otilde" horiz-adv-x="1300" d="M567 -17Q468 -17 387 18T247 117T156 271T124 473Q124 616 168 734T292 938T482 1070T726 1117Q828 1117 911 1084T1053 989T1144 836T1176 631Q1176 482 1134 362T1012 158T821 29T567 -17ZM993
622Q993 697 975 759T921 867T832 938T706 963Q641 963 586 944T487 890T409 810T353 710T319 597T307 480Q307 405 324 342T375 234T462 163T586 138Q650 138 705 157T805 211T885 292T944 393T980 505T993 622ZM410 1275Q422 1330 446 1371T500 1438T563 1476T629
1484Q668 1478 699 1464T758 1434T814 1406T873 1394Q901 1394 920 1404T953 1431T973 1465T984 1501L1079 1498Q1073 1450 1050 1406T995 1329T923 1281T844 1271Q816 1276 788 1292T731 1326T669 1354T601 1360Q563 1355 537 1336T495 1272L410 1275Z" />
<glyph unicode="&#xf6;" glyph-name="odieresis" horiz-adv-x="1300" d="M567 -17Q468 -17 387 18T247 117T156 271T124 473Q124 616 168 734T292 938T482 1070T726 1117Q828 1117 911 1084T1053 989T1144 836T1176 631Q1176 482 1134 362T1012 158T821 29T567
-17ZM993 622Q993 697 975 759T921 867T832 938T706 963Q641 963 586 944T487 890T409 810T353 710T319 597T307 480Q307 405 324 342T375 234T462 163T586 138Q650 138 705 157T805 211T885 292T944 393T980 505T993 622ZM514 1500H714L679 1300H479L514 1500ZM914
1500H1114L1079 1300H879L914 1500Z" />
<glyph unicode="&#xf7;" glyph-name="divide" horiz-adv-x="1300" d="M200 700H1100V545H200V700ZM471 346Q477 377 493 404T533 451T585 482T645 494Q676 494 700 483T741 451T765 404T767 346Q762 315 746 288T706 240T653 208T594 196Q563 196 538 208T496
240T473 287T471 346ZM585 961Q591 992 607 1019T647 1066T699 1097T759 1109Q790 1109 814 1098T855 1066T879 1019T881 961Q876 930 860 903T820 855T767 823T708 811Q677 811 652 823T610 855T587 902T585 961Z" />
<glyph unicode="&#xf8;" glyph-name="oslash" horiz-adv-x="1300" d="M567 -17Q489 -17 421 5L358 -100H148L267 95Q256 106 246 117Q188 181 156 271T124 473Q124 616 168 734T292 938T482 1070T726 1117Q808 1117 878 1095L948 1209H1148L1029 1012Q1041 1000
1053 988Q1112 926 1144 836T1176 631Q1176 482 1134 362T1012 158T821 29T567 -17ZM706 963Q641 963 586 944T487 890T409 810T353 710T319 597T307 480Q307 405 324 342Q337 291 363 251L791 952Q753 963 706 963ZM993 622Q993 697 975 759Q960 811 932 852L507
147Q543 138 586 138Q650 138 705 157T805 211T885 292T944 393T980 505T993 622Z" />
<glyph unicode="&#xf9;" glyph-name="ugrave" horiz-adv-x="1300" d="M967 1100L1161 1121L963 0H773L802 163L722 56Q698 42 675 29T621 6T543 -10T425 -17Q356 -17 300 9T205 80T144 187T122 318Q122 338 123 359T129 401L257 1100L451 1121L319 401Q315 381
314 363T312 326Q312 286 322 253T354 195T412 157T498 143Q564 143 612 153T698 179T763 216T819 258L967 1100ZM892 1200H742L570 1500L778 1520L892 1200Z" />
<glyph unicode="&#xfa;" glyph-name="uacute" horiz-adv-x="1300" d="M967 1100L1161 1121L963 0H773L802 163L722 56Q698 42 675 29T621 6T543 -10T425 -17Q356 -17 300 9T205 80T144 187T122 318Q122 338 123 359T129 401L257 1100L451 1121L319 401Q315 381
314 363T312 326Q312 286 322 253T354 195T412 157T498 143Q564 143 612 153T698 179T763 216T819 258L967 1100ZM836 1500L1070 1520L773 1200H623L836 1500Z" />
<glyph unicode="&#xfb;" glyph-name="ucircumflex" horiz-adv-x="1300" d="M967 1100L1161 1121L963 0H773L802 163L722 56Q698 42 675 29T621 6T543 -10T425 -17Q356 -17 300 9T205 80T144 187T122 318Q122 338 123 359T129 401L257 1100L451 1121L319 401Q315
381 314 363T312 326Q312 286 322 253T354 195T412 157T498 143Q564 143 612 153T698 179T763 216T819 258L967 1100ZM1008 1220H858L784 1372L770 1460L725 1373L597 1220H447L672 1500L876 1520L1008 1220Z" />
<glyph unicode="&#xfc;" glyph-name="udieresis" horiz-adv-x="1300" d="M967 1100L1161 1121L963 0H773L802 163L722 56Q698 42 675 29T621 6T543 -10T425 -17Q356 -17 300 9T205 80T144 187T122 318Q122 338 123 359T129 401L257 1100L451 1121L319 401Q315
381 314 363T312 326Q312 286 322 253T354 195T412 157T498 143Q564 143 612 153T698 179T763 216T819 258L967 1100ZM518 1500H718L683 1300H483L518 1500ZM918 1500H1118L1083 1300H883L918 1500Z" />
<glyph unicode="&#xfd;" glyph-name="yacute" horiz-adv-x="1300" d="M666 364L1064 1100L1257 1121L644 -17Q580 -136 530 -223T430 -367T328 -452T204 -480H200Q135 -480 89 -460T8 -403L100 -296Q114 -308 141 -317T192 -328H196Q232 -328 260 -314T317 -268T380
-181T462 -47L247 1100L420 1121Q431 1064 442 1002L464 880Q477 813 491 742Q522 576 562 364L573 132L666 364ZM890 1500L1124 1520L827 1200H677L890 1500Z" />
<glyph unicode="&#xfe;" glyph-name="thorn" horiz-adv-x="1300" d="M568 1520L480 1020Q523 1049 572 1070Q683 1117 816 1117Q918 1117 1001 1084T1143 989T1234 836T1266 631Q1266 482 1224 362T1102 158T911 29T657 -17Q558 -17 477 18T336 117Q329 124 323
132L229 -400H35L370 1500L568 1520ZM1083 622Q1083 697 1065 759T1011 867T922 938T796 963Q731 963 676 944T577 890T499 810T443 710T409 597T397 480Q397 405 414 342T465 234T552 163T676 138Q740 138 795 157T895 211T975 292T1034 393T1070 505T1083 622Z"
/>
<glyph unicode="&#xff;" glyph-name="ydieresis" horiz-adv-x="1300" d="M666 364L1064 1100L1257 1121L644 -17Q580 -136 530 -223T430 -367T328 -452T204 -480H200Q135 -480 89 -460T8 -403L100 -296Q114 -308 141 -317T192 -328H196Q232 -328 260 -314T317
-268T380 -181T462 -47L247 1100L420 1121Q431 1064 442 1002L464 880Q477 813 491 742Q522 576 562 364L573 132L666 364ZM935 1500H1135L1100 1300H900L935 1500ZM535 1500H735L700 1300H500L535 1500Z" />
<glyph unicode="&#x2013;" glyph-name="endash" horiz-adv-x="1300" d="M105 600H1105L1078 446H78L105 600Z" />
<glyph unicode="&#x2014;" glyph-name="emdash" horiz-adv-x="1300" d="M40 600H1287L1260 446H13L40 600Z" />
<glyph unicode="&#x2018;" glyph-name="quoteleft" horiz-adv-x="1300" d="M406 1095Q405 1069 393 1046T362 1005T316 979T261 974Q217 980 187 1012T158 1109Q158 1139 168 1179T203 1266T271 1362T382 1460L423 1440Q396 1407 374 1370Q355 1338 338 1298T315
1216Q357 1214 382 1184T406 1095Z" />
<glyph unicode="&#x2019;" glyph-name="quoteright" horiz-adv-x="1300" d="M728 1520L974 1500L571 1200H371L728 1520Z" />
<glyph unicode="&#x201a;" glyph-name="quotesinglbase" horiz-adv-x="1300" d="M194 105Q195 131 207 154T238 195T284 221T339 226Q383 220 413 188T442 91Q442 61 432 21T397 -66T329 -162T218 -260L177 -240Q204 -207 226 -170Q245 -138 262 -98T285 -16Q243
-14 218 16T194 105Z" />
<glyph unicode="&#x201c;" glyph-name="quotedblleft" horiz-adv-x="1300" d="M406 1095Q405 1069 393 1046T362 1005T316 979T261 974Q217 980 187 1012T158 1109Q158 1139 168 1179T203 1266T271 1362T382 1460L423 1440Q396 1407 374 1370Q355 1338 338 1298T315
1216Q357 1214 382 1184T406 1095ZM806 1095Q805 1069 793 1046T762 1005T716 979T661 974Q617 980 587 1012T558 1109Q558 1139 568 1179T603 1266T671 1362T782 1460L823 1440Q796 1407 774 1370Q755 1338 738 1298T715 1216Q757 1214 782 1184T806 1095Z" />
<glyph unicode="&#x201d;" glyph-name="quotedblright" horiz-adv-x="1300" d="M194 1305Q195 1331 207 1354T238 1395T284 1421T339 1426Q383 1420 413 1388T442 1291Q442 1261 432 1221T397 1134T329 1038T218 940L177 960Q204 993 226 1030Q245 1062 262 1102T285
1184Q243 1186 218 1216T194 1305ZM594 1305Q595 1331 607 1354T638 1395T684 1421T739 1426Q783 1420 813 1388T842 1291Q842 1261 832 1221T797 1134T729 1038T618 940L577 960Q604 993 626 1030Q645 1062 662 1102T685 1184Q643 1186 618 1216T594 1305Z" />
<glyph unicode="&#x201e;" glyph-name="quotedblbase" horiz-adv-x="1300" d="M194 105Q195 131 207 154T238 195T284 221T339 226Q383 220 413 188T442 91Q442 61 432 21T397 -66T329 -162T218 -260L177 -240Q204 -207 226 -170Q245 -138 262 -98T285 -16Q243
-14 218 16T194 105ZM594 105Q595 131 607 154T638 195T684 221T739 226Q783 220 813 188T842 91Q842 61 832 21T797 -66T729 -162T618 -260L577 -240Q604 -207 626 -170Q645 -138 662 -98T685 -16Q643 -14 618 16T594 105Z" />
<glyph unicode="&#x2022;" glyph-name="bullet" horiz-adv-x="1300" d="M398 807Q398 867 421 920T485 1013T578 1076T692 1100Q752 1100 805 1077T899 1014T962 921T986 807Q986 747 963 693T901 597T808 532T695 508Q635 508 581 532T487 597T422 692T398 807Z" />
<glyph unicode="&#x2039;" glyph-name="guilsinglleft" horiz-adv-x="1300" d="M850 1026L878 901L502 610L353 550L480 490L757 201L679 66L284 478L308 617L850 1026Z" />
<glyph unicode="&#x203a;" glyph-name="guilsinglright" horiz-adv-x="1300" d="M808 617L784 478L243 66L213 201L592 490L739 550L612 610L338 901L410 1026L808 617Z" />
</font>
</defs>
</svg>
